<svg xmlns="http://www.w3.org/2000/svg" viewBox="0 0 400 400">
  <defs id="genericDefs" />
  <g>
    <defs id="153884925046-defs1">
      <linearGradient x1="223.0955352783203" gradientUnits="userSpaceOnUse" x2="224.1988983154297" y1="143.8001708984375" y2="145.31883239746094" id="1538849250127-linearGradient1" spreadMethod="pad">
        <stop stop-opacity="1" stop-color="black" offset="0%" />
        <stop stop-opacity="1" stop-color="rgb(51,51,153)" offset="100%" />
      </linearGradient>
      <linearGradient x1="231.55807495117188" gradientUnits="userSpaceOnUse" x2="230.7945556640625" y1="187.23153686523438" y2="188.9464111328125" id="153884925020-linearGradient1" spreadMethod="pad">
        <stop stop-opacity="1" stop-color="rgb(51,51,153)" offset="0%" />
        <stop stop-opacity="1" stop-color="rgb(102,102,0)" offset="100%" />
      </linearGradient>
      <linearGradient x1="202.65838623046875" gradientUnits="userSpaceOnUse" x2="200.94351196289062" y1="200.1951446533203" y2="199.43162536621094" id="1538849250223-linearGradient1" spreadMethod="pad">
        <stop stop-opacity="1" stop-color="rgb(102,102,0)" offset="0%" />
        <stop stop-opacity="1" stop-color="red" offset="100%" />
      </linearGradient>
      <linearGradient x1="241.3388671875" gradientUnits="userSpaceOnUse" x2="243.05374145507812" y1="217.4167938232422" y2="218.18031311035156" id="1538849250650-linearGradient1" spreadMethod="pad">
        <stop stop-opacity="1" stop-color="rgb(102,102,0)" offset="0%" />
        <stop stop-opacity="1" stop-color="red" offset="100%" />
      </linearGradient>
      <linearGradient x1="210.67181396484375" gradientUnits="userSpaceOnUse" x2="209.90829467773438" y1="234.14283752441406" y2="235.85772705078125" id="1538849250749-linearGradient1" spreadMethod="pad">
        <stop stop-opacity="1" stop-color="rgb(102,102,0)" offset="0%" />
        <stop stop-opacity="1" stop-color="black" offset="100%" />
      </linearGradient>
      <linearGradient x1="160.44906616210938" gradientUnits="userSpaceOnUse" x2="159.685546875" y1="346.9449768066406" y2="348.65985107421875" id="1538849250353-linearGradient1" spreadMethod="pad">
        <stop stop-opacity="1" stop-color="black" offset="0%" />
        <stop stop-opacity="1" stop-color="rgb(51,51,153)" offset="100%" />
      </linearGradient>
      <linearGradient x1="196.54843139648438" gradientUnits="userSpaceOnUse" x2="194.6712646484375" y1="130.9815673828125" y2="130.9815673828125" id="1538849250874-linearGradient1" spreadMethod="pad">
        <stop stop-opacity="1" stop-color="black" offset="0%" />
        <stop stop-opacity="1" stop-color="rgb(51,51,153)" offset="100%" />
      </linearGradient>
      <linearGradient x1="162.0274658203125" gradientUnits="userSpaceOnUse" x2="161.4473876953125" y1="110.71405029296875" y2="108.92875671386719" id="153884925040-linearGradient1" spreadMethod="pad">
        <stop stop-opacity="1" stop-color="rgb(51,51,153)" offset="0%" />
        <stop stop-opacity="1" stop-color="red" offset="100%" />
      </linearGradient>
      <linearGradient x1="178.419189453125" gradientUnits="userSpaceOnUse" x2="176.90052795410156" y1="70.7568588256836" y2="71.86023712158203" id="153884925045-linearGradient1" spreadMethod="pad">
        <stop stop-opacity="1" stop-color="black" offset="0%" />
        <stop stop-opacity="1" stop-color="red" offset="100%" />
      </linearGradient>
      <clipPath clipPathUnits="userSpaceOnUse" id="1538849250850-clipPath1">
        <path d="M-233.8478546142578 -155.52444458007812 L166.1521453857422 -155.52444458007812 L166.1521453857422 244.47555541992188 L-233.8478546142578 244.47555541992188 L-233.8478546142578 -155.52444458007812 Z" />
      </clipPath>
      <clipPath clipPathUnits="userSpaceOnUse" id="1538849250384-clipPath1">
        <path d="M-215.96014404296875 -196.78883361816406 L184.03985595703125 -196.78883361816406 L184.03985595703125 203.21116638183594 L-215.96014404296875 203.21116638183594 L-215.96014404296875 -196.78883361816406 Z" />
      </clipPath>
      <clipPath clipPathUnits="userSpaceOnUse" id="1538849250844-clipPath1">
        <path d="M-173.6957550048828 -178.416748046875 L226.3042449951172 -178.416748046875 L226.3042449951172 221.583251953125 L-173.6957550048828 221.583251953125 L-173.6957550048828 -178.416748046875 Z" />
      </clipPath>
      <clipPath clipPathUnits="userSpaceOnUse" id="1538849250336-clipPath1">
        <path d="M-256.2245178222656 -215.16091918945312 L143.77548217773438 -215.16091918945312 L143.77548217773438 184.83908081054688 L-256.2245178222656 184.83908081054688 L-256.2245178222656 -215.16091918945312 Z" />
      </clipPath>
      <clipPath clipPathUnits="userSpaceOnUse" id="1538849250944-clipPath1">
        <path d="M-123.33004760742188 -361.84637451171875 L276.6699523925781 -361.84637451171875 L276.6699523925781 38.153629302978516 L-123.33004760742188 38.153629302978516 L-123.33004760742188 -361.84637451171875 Z" />
      </clipPath>
      <clipPath clipPathUnits="userSpaceOnUse" id="1538849250432-clipPath1">
        <path d="M-135.6431121826172 -371.17449951171875 L264.3569030761719 -371.17449951171875 L264.3569030761719 28.82550621032715 L-135.6431121826172 28.82550621032715 L-135.6431121826172 -371.17449951171875 Z" />
      </clipPath>
      <clipPath clipPathUnits="userSpaceOnUse" id="1538849250658-clipPath1">
        <path d="M-141.97178649902344 -361.84637451171875 L258.0281982421875 -361.84637451171875 L258.0281982421875 38.153629302978516 L-141.97178649902344 38.153629302978516 L-141.97178649902344 -361.84637451171875 Z" />
      </clipPath>
      <clipPath clipPathUnits="userSpaceOnUse" id="15388492505-clipPath1">
        <path d="M-162.11277770996094 -118.98155975341797 L237.88722229003906 -118.98155975341797 L237.88722229003906 281.0184326171875 L-162.11277770996094 281.0184326171875 L-162.11277770996094 -118.98155975341797 Z" />
      </clipPath>
      <clipPath clipPathUnits="userSpaceOnUse" id="1538849250783-clipPath1">
        <path d="M-147.65463256835938 -76.0228271484375 L252.34536743164062 -76.0228271484375 L252.34536743164062 323.9771728515625 L-147.65463256835938 323.9771728515625 L-147.65463256835938 -76.0228271484375 Z" />
      </clipPath>
      <clipPath clipPathUnits="userSpaceOnUse" id="153884925062-clipPath1">
        <path d="M156.64584350585938 79.8021240234375 C158.94613647460938 79.8021240234375 160.81088256835938 81.6668701171875 160.81088256835938 83.9671630859375 L160.81088256835938 92.2972412109375 C160.81088256835938 94.59752655029297 158.94613647460938 96.4622802734375 156.64584350585938 96.4622802734375 L152.66342163085938 96.4622802734375 C150.36312866210938 96.4622802734375 148.49838256835938 94.59752655029297 148.49838256835938 92.2972412109375 L148.49838256835938 83.9671630859375 C148.49838256835938 81.6668701171875 150.36312866210938 79.8021240234375 152.66342163085938 79.8021240234375 ZM169.65476989746094 122.92491912841797 C171.87954711914062 122.92491912841797 173.68309020996094 124.72846221923828 173.68309020996094 126.95323944091797 L173.68309020996094 135.0098876953125 C173.68309020996094 137.2346649169922 171.87954711914062 139.0382080078125 169.65476989746094 139.0382080078125 L167.57078552246094 139.0382080078125 C165.34600830078125 139.0382080078125 163.54246520996094 137.2346649169922 163.54246520996094 135.0098876953125 L163.54246520996094 126.95323944091797 C163.54246520996094 124.72846221923828 165.34600830078125 122.92491912841797 167.57078552246094 122.92491912841797 ZM254.4054718017578 159.46780395507812 C256.6302490234375 159.46780395507812 258.43377685546875 161.27134704589844 258.43377685546875 163.49612426757812 L258.43377685546875 171.55276489257812 C258.43377685546875 173.7775421142578 256.6302490234375 175.58108520507812 254.4054718017578 175.58108520507812 L239.2902374267578 175.58108520507812 C237.06546020507812 175.58108520507812 235.2619171142578 173.7775421142578 235.2619171142578 171.55276489257812 L235.2619171142578 163.49612426757812 C235.2619171142578 161.27134704589844 237.06546020507812 159.46780395507812 239.2902374267578 159.46780395507812 ZM182.6869659423828 182.196044921875 C184.9872589111328 182.196044921875 186.8520050048828 184.060791015625 186.8520050048828 186.361083984375 L186.8520050048828 194.691162109375 C186.8520050048828 196.99143981933594 184.9872589111328 198.856201171875 182.6869659423828 198.856201171875 L178.7045440673828 198.856201171875 C176.4042510986328 198.856201171875 174.5395050048828 196.99143981933594 174.5395050048828 194.691162109375 L174.5395050048828 186.361083984375 C174.5395050048828 184.060791015625 176.4042510986328 182.196044921875 178.7045440673828 182.196044921875 ZM222.92010498046875 200.56813049316406 C225.2203826904297 200.56813049316406 227.08514404296875 202.43287658691406 227.08514404296875 204.73316955566406 L227.08514404296875 213.06324768066406 C227.08514404296875 215.36354064941406 225.2203826904297 217.22828674316406 222.92010498046875 217.22828674316406 L221.00018310546875 217.22828674316406 C218.69989013671875 217.22828674316406 216.83514404296875 215.36354064941406 216.83514404296875 213.06324768066406 L216.83514404296875 204.73316955566406 C216.83514404296875 202.43287658691406 218.69989013671875 200.56813049316406 221.00018310546875 200.56813049316406 ZM265.2157287597656 218.94021606445312 C267.5160217285156 218.94021606445312 269.3807678222656 220.80496215820312 269.3807678222656 223.10525512695312 L269.3807678222656 231.43533325195312 C269.3807678222656 233.73562622070312 267.5160217285156 235.60037231445312 265.2157287597656 235.60037231445312 L261.2333068847656 235.60037231445312 C258.9330139160156 235.60037231445312 257.0682678222656 233.73562622070312 257.0682678222656 231.43533325195312 L257.0682678222656 223.10525512695312 C257.0682678222656 220.80496215820312 258.9330139160156 218.94021606445312 261.2333068847656 218.94021606445312 ZM149.51377868652344 365.78973388671875 C151.73855590820312 365.78973388671875 153.54209899902344 367.59326171875 153.54209899902344 369.81805419921875 L153.54209899902344 377.87469482421875 C153.54209899902344 380.0994567871094 151.73855590820312 381.90301513671875 149.51377868652344 381.90301513671875 L147.42979431152344 381.90301513671875 C145.20501708984375 381.90301513671875 143.40147399902344 380.0994567871094 143.40147399902344 377.87469482421875 L143.40147399902344 384.21746826171875 C143.40147399902344 386.4503173828125 141.5913848876953 388.26043701171875 139.35850524902344 388.26043701171875 L138.92770385742188 388.26043701171875 C136.69483947753906 388.26043701171875 134.88473510742188 386.4503173828125 134.88473510742188 384.21746826171875 L134.88473510742188 377.87469482421875 C134.88473510742188 380.0994567871094 133.08119201660156 381.90301513671875 130.85641479492188 381.90301513671875 L128.80368041992188 381.90301513671875 C126.57890319824219 381.90301513671875 124.77536010742188 380.0994567871094 124.77536010742188 377.87469482421875 L124.77536010742188 369.81805419921875 C124.77536010742188 367.59326171875 126.57890319824219 365.78973388671875 128.80368041992188 365.78973388671875 L130.85641479492188 365.78973388671875 C133.08119201660156 365.78973388671875 134.88473510742188 367.59326171875 134.88473510742188 369.81805419921875 L134.88473510742188 376.13153076171875 C134.88473510742188 373.8986511230469 136.69483947753906 372.08856201171875 138.92770385742188 372.08856201171875 L139.35850524902344 372.08856201171875 C141.5913848876953 372.08856201171875 143.40147399902344 373.8986511230469 143.40147399902344 376.13153076171875 L143.40147399902344 369.81805419921875 C143.40147399902344 367.59326171875 145.20501708984375 365.78973388671875 147.42979431152344 365.78973388671875 ZM0 0 L0 400 L400 400 L400 0 Z" />
      </clipPath>
      <clipPath clipPathUnits="userSpaceOnUse" id="153884925057-clipPath1">
        <path d="M0 0 L400 0 L400 400 L0 400 L0 0 Z" />
      </clipPath>
    </defs>
    <g font-size="18" transform="translate(233.84785150051525,155.5244491794638)" fill="rgb(51,51,153)" text-rendering="optimizeLegibility" font-family="sans-serif" shape-rendering="geometricPrecision" stroke="rgb(51,51,153)">
      <text xml:space="preserve" x="0" y="20" clip-path="url(#1538849250850-clipPath1)" stroke="none">NH
      </text>
    </g>
    <g font-size="18" transform="translate(215.96013909656932,196.78883310210887)" fill="rgb(102,102,0)" text-rendering="optimizeLegibility" font-family="sans-serif" shape-rendering="geometricPrecision" stroke="rgb(102,102,0)">
      <text xml:space="preserve" x="0" y="20" clip-path="url(#1538849250384-clipPath1)" stroke="none">S
      </text>
    </g>
    <g font-size="18" transform="translate(173.69575517392434,178.41674569816288)" fill="red" text-rendering="optimizeLegibility" font-family="sans-serif" shape-rendering="geometricPrecision" stroke="red">
      <text xml:space="preserve" x="0" y="20" clip-path="url(#1538849250844-clipPath1)" stroke="none">O
      </text>
    </g>
    <g font-size="18" transform="translate(256.22452301921436,215.1609205060547)" fill="red" text-rendering="optimizeLegibility" font-family="sans-serif" shape-rendering="geometricPrecision" stroke="red">
      <text xml:space="preserve" x="0" y="20" clip-path="url(#1538849250336-clipPath1)" stroke="none">O
      </text>
    </g>
    <g font-size="18" transform="translate(123.33004840935708,361.846368792689)" fill="rgb(51,51,153)" text-rendering="optimizeLegibility" font-family="sans-serif" shape-rendering="geometricPrecision" stroke="rgb(51,51,153)">
      <text xml:space="preserve" x="0" y="20" clip-path="url(#1538849250944-clipPath1)" stroke="none">H
      </text>
    </g>
    <g font-size="13" transform="translate(135.64310644507134,371.17449341899584)" fill="rgb(51,51,153)" text-rendering="optimizeLegibility" font-family="sans-serif" shape-rendering="geometricPrecision" stroke="rgb(51,51,153)">
      <text xml:space="preserve" x="0" y="15" clip-path="url(#1538849250432-clipPath1)" stroke="none">2
      </text>
    </g>
    <g font-size="18" transform="translate(141.97178948078565,361.846368792689)" fill="rgb(51,51,153)" text-rendering="optimizeLegibility" font-family="sans-serif" shape-rendering="geometricPrecision" stroke="rgb(51,51,153)">
      <text xml:space="preserve" x="0" y="20" clip-path="url(#1538849250658-clipPath1)" stroke="none">N
      </text>
    </g>
    <g font-size="18" transform="translate(162.1127738020346,118.98156280577606)" fill="rgb(51,51,153)" text-rendering="optimizeLegibility" font-family="sans-serif" shape-rendering="geometricPrecision" stroke="rgb(51,51,153)">
      <text xml:space="preserve" x="0" y="20" clip-path="url(#15388492505-clipPath1)" stroke="none">N
      </text>
    </g>
    <g font-size="18" transform="translate(147.65463325431125,76.02282343246955)" fill="red" text-rendering="optimizeLegibility" font-family="sans-serif" shape-rendering="geometricPrecision" stroke="red">
      <text xml:space="preserve" x="0" y="20" clip-path="url(#1538849250783-clipPath1)" stroke="none">O
      </text>
    </g>
    <g text-rendering="optimizeLegibility" font-size="18" shape-rendering="geometricPrecision" font-family="sans-serif">
      <path d="M190.25892639160156 16.30337142944336 L190.25892639160156 61.472862243652344 C190.25892639160156 61.9913330078125 190.67904663085938 62.41144943237305 191.19752502441406 62.41144943237305 C191.7159881591797 62.41144943237305 192.1361083984375 61.9913330078125 192.1361083984375 61.472862243652344 L192.1361083984375 16.30337142944336 C192.1361083984375 15.784900665283203 191.7159881591797 15.364784240722656 191.19752502441406 15.364784240722656 C190.67904663085938 15.364784240722656 190.25892639160156 15.784900665283203 190.25892639160156 16.30337142944336 Z" clip-path="url(#153884925062-clipPath1)" stroke="none" />
    </g>
    <g text-rendering="optimizeLegibility" font-size="18" shape-rendering="geometricPrecision" font-family="sans-serif">
      <path d="M191.74920654296875 60.713531494140625 C191.3297576904297 60.40877914428711 190.74293518066406 60.50172424316406 190.4381866455078 60.921173095703125 C190.13343811035156 61.34062576293945 190.22637939453125 61.92744445800781 190.6458282470703 62.23219680786133 L227.188720703125 88.78215789794922 C227.60816955566406 89.08690643310547 228.1949920654297 88.99396514892578 228.49974060058594 88.57450866699219 C228.8044891357422 88.15505981445312 228.7115478515625 87.5682373046875 228.29209899902344 87.26348876953125 ZM192.508544921875 71.31507873535156 C192.08909606933594 71.01033020019531 191.5022735595703 71.103271484375 191.19752502441406 71.52272033691406 C190.8927764892578 71.94217681884766 190.9857177734375 72.52899169921875 191.40516662597656 72.83374786376953 L216.87139892578125 91.33604431152344 C217.2908477783203 91.64080047607422 217.87767028808594 91.5478515625 218.1824188232422 91.12840270996094 C218.48716735839844 90.70895385742188 218.39422607421875 90.12213134765625 217.9747772216797 89.8173828125 Z" clip-path="url(#153884925062-clipPath1)" stroke="none" />
    </g>
    <g text-rendering="optimizeLegibility" font-size="18" shape-rendering="geometricPrecision" font-family="sans-serif">
      <path d="M226.84776306152344 87.73278045654297 L212.88961791992188 130.6915283203125 C212.72940063476562 131.1846160888672 212.99913024902344 131.7139892578125 213.4922332763672 131.87420654296875 C213.98532104492188 132.034423828125 214.5146942138672 131.7646942138672 214.67491149902344 131.2716064453125 L228.633056640625 88.3128662109375 C228.79327392578125 87.81977081298828 228.52354431152344 87.29039001464844 228.0304412841797 87.13017272949219 C227.537353515625 86.96995544433594 227.0079803466797 87.23969268798828 226.84776306152344 87.73278045654297 Z" clip-path="url(#153884925062-clipPath1)" stroke="none" />
    </g>
    <g font-size="18" fill="url(#1538849250127-linearGradient1)" text-rendering="optimizeLegibility" font-family="sans-serif" shape-rendering="geometricPrecision" stroke="url(#1538849250127-linearGradient1)">
      <path d="M213.02293395996094 131.5332489013672 L232.75283813476562 158.6891326904297 C233.05758666992188 159.10858154296875 233.6444091796875 159.20152282714844 234.06385803222656 158.8967742919922 C234.48330688476562 158.59202575683594 234.5762481689453 158.0052032470703 234.27149963378906 157.58575439453125 L214.54159545898438 130.42987060546875 C214.23684692382812 130.0104217529297 213.6500244140625 129.91748046875 213.23057556152344 130.22222900390625 C212.81112670898438 130.5269775390625 212.7181854248047 131.11380004882812 213.02293395996094 131.5332489013672 Z" clip-path="url(#153884925062-clipPath1)" stroke="none" />
    </g>
    <g font-size="18" fill="url(#153884925020-linearGradient1)" text-rendering="optimizeLegibility" font-family="sans-serif" shape-rendering="geometricPrecision" stroke="url(#153884925020-linearGradient1)">
      <path d="M234.6558380126953 177.96621704101562 L225.9818878173828 197.44821166992188 C225.77101135253906 197.92185974121094 225.9839324951172 198.47653198242188 226.45758056640625 198.6874237060547 C226.9312286376953 198.89830017089844 227.48590087890625 198.6853790283203 227.69677734375 198.21173095703125 L236.3707275390625 178.72972106933594 C236.58160400390625 178.25608825683594 236.36868286132812 177.701416015625 235.89503479003906 177.4905242919922 C235.42140197753906 177.27964782714844 234.86672973632812 177.49256896972656 234.6558380126953 177.96621704101562 Z" clip-path="url(#153884925062-clipPath1)" stroke="none" />
    </g>
    <g font-size="18" fill="url(#1538849250223-linearGradient1)" text-rendering="optimizeLegibility" font-family="sans-serif" shape-rendering="geometricPrecision" stroke="url(#1538849250223-linearGradient1)">
      <path d="M210.40379333496094 209.12100219726562 C210.87744140625 209.33189392089844 211.43211364746094 209.1189727783203 211.64300537109375 208.64532470703125 C211.8538818359375 208.1716766357422 211.64096069335938 207.61700439453125 211.1673126220703 207.4061279296875 L189.89112854003906 197.933349609375 C189.41748046875 197.72247314453125 188.86280822753906 197.93539428710938 188.6519317626953 198.40904235839844 C188.4410400390625 198.88267517089844 188.65396118164062 199.43734741210938 189.1276092529297 199.6482391357422 ZM213.7107696533203 201.69342041015625 C214.18441772460938 201.904296875 214.7390899658203 201.69137573242188 214.94998168945312 201.2177276611328 C215.16085815429688 200.74407958984375 214.94793701171875 200.1894073486328 214.4742889404297 199.97853088378906 L193.19810485839844 190.50576782226562 C192.72445678710938 190.2948760986328 192.16978454589844 190.50779724121094 191.9589080810547 190.9814453125 C191.74801635742188 191.45509338378906 191.9609375 192.009765625 192.43458557128906 192.22064208984375 Z" clip-path="url(#153884925062-clipPath1)" stroke="none" />
    </g>
    <g font-size="18" fill="url(#1538849250650-linearGradient1)" text-rendering="optimizeLegibility" font-family="sans-serif" shape-rendering="geometricPrecision" stroke="url(#1538849250650-linearGradient1)">
      <path d="M233.55699157714844 208.47470092773438 C233.08335876464844 208.26382446289062 232.5286865234375 208.47674560546875 232.3177947998047 208.95037841796875 C232.10691833496094 209.4240264892578 232.31983947753906 209.97869873046875 232.79348754882812 210.18959045410156 L254.14259338378906 219.69482421875 C254.61622619628906 219.90570068359375 255.1708984375 219.69277954101562 255.3817901611328 219.21913146972656 C255.59266662597656 218.7454833984375 255.37974548339844 218.19081115722656 254.90609741210938 217.9799346923828 ZM230.25001525878906 215.9022979736328 C229.77638244628906 215.69140625 229.22171020507812 215.90432739257812 229.0108184814453 216.3779754638672 C228.79994201660156 216.85162353515625 229.0128631591797 217.4062957763672 229.48651123046875 217.61717224121094 L250.8356170654297 227.12240600585938 C251.3092498779297 227.33328247070312 251.86392211914062 227.12037658691406 252.07481384277344 226.646728515625 C252.2856903076172 226.17308044433594 252.07276916503906 225.618408203125 251.59912109375 225.4075164794922 Z" clip-path="url(#153884925062-clipPath1)" stroke="none" />
    </g>
    <g font-size="18" fill="url(#1538849250749-linearGradient1)" text-rendering="optimizeLegibility" font-family="sans-serif" shape-rendering="geometricPrecision" stroke="url(#1538849250749-linearGradient1)">
      <path d="M216.13461303710938 219.56558227539062 L202.73060607910156 249.6714630126953 C202.5197296142578 250.14511108398438 202.73265075683594 250.6997833251953 203.206298828125 250.91065979003906 C203.67994689941406 251.1215362548828 204.234619140625 250.9086151123047 204.44549560546875 250.43496704101562 L217.8494873046875 220.3291015625 C218.0603790283203 219.85545349121094 217.8474578857422 219.30078125 217.37380981445312 219.08990478515625 C216.90016174316406 218.8790283203125 216.34548950195312 219.09193420410156 216.13461303710938 219.56558227539062 Z" clip-path="url(#153884925062-clipPath1)" stroke="none" />
    </g>
    <g text-rendering="optimizeLegibility" font-size="18" shape-rendering="geometricPrecision" font-family="sans-serif">
      <path d="M204.34738159179688 249.50152587890625 C204.04263305664062 249.0820770263672 203.455810546875 248.9891357421875 203.03636169433594 249.29388427734375 C202.61691284179688 249.5986328125 202.5239715576172 250.18545532226562 202.82872009277344 250.6049041748047 L229.37867736816406 287.1477966308594 C229.6834259033203 287.5672302246094 230.27024841308594 287.6601867675781 230.689697265625 287.3554382324219 C231.10914611816406 287.0506896972656 231.20208740234375 286.4638671875 230.8973388671875 286.0444030761719 ZM201.08050537109375 258.8374938964844 C200.7757568359375 258.4180603027344 200.18893432617188 258.3251037597656 199.7694854736328 258.6298522949219 C199.35003662109375 258.9346008300781 199.25709533691406 259.52142333984375 199.5618438720703 259.9408874511719 L219.49012756347656 287.36981201171875 C219.7948760986328 287.78924560546875 220.38168334960938 287.8822021484375 220.8011474609375 287.57745361328125 C221.22059631347656 287.272705078125 221.31353759765625 286.6858825683594 221.0087890625 286.26641845703125 Z" clip-path="url(#153884925062-clipPath1)" stroke="none" />
    </g>
    <g text-rendering="optimizeLegibility" font-size="18" shape-rendering="geometricPrecision" font-family="sans-serif">
      <path d="M229.2805633544922 286.21435546875 L210.90847778320312 327.4787292480469 C210.69760131835938 327.9523620605469 210.9105224609375 328.5070495605469 211.38417053222656 328.7179260253906 C211.85781860351562 328.9288024902344 212.41249084472656 328.71588134765625 212.6233673095703 328.24224853515625 L230.99545288085938 286.9778747558594 C231.20632934570312 286.50421142578125 230.99342346191406 285.9495544433594 230.519775390625 285.7386474609375 C230.04612731933594 285.52777099609375 229.491455078125 285.7406921386719 229.2805633544922 286.21435546875 Z" clip-path="url(#153884925062-clipPath1)" stroke="none" />
    </g>
    <g text-rendering="optimizeLegibility" font-size="18" shape-rendering="geometricPrecision" font-family="sans-serif">
      <path d="M211.86402893066406 328.7939453125 C212.37966918945312 328.73974609375 212.75357055664062 328.27801513671875 212.69937133789062 327.76239013671875 C212.64517211914062 327.2467346191406 212.18344116210938 326.8728332519531 211.66781616210938 326.9270324707031 L166.7457733154297 331.6485290527344 C166.23013305664062 331.7027282714844 165.85623168945312 332.1644592285156 165.91043090820312 332.6800842285156 C165.96463012695312 333.1957092285156 166.42636108398438 333.5696105957031 166.94198608398438 333.51544189453125 ZM205.4122772216797 321.2967529296875 C205.92791748046875 321.2425537109375 206.30181884765625 320.78082275390625 206.24761962890625 320.26519775390625 C206.19342041015625 319.74957275390625 205.731689453125 319.37567138671875 205.216064453125 319.4298400878906 L171.49777221679688 322.9737854003906 C170.98214721679688 323.0279846191406 170.60824584960938 323.4897155761719 170.66244506835938 324.0053405761719 C170.71664428710938 324.5209655761719 171.17835998535156 324.8948669433594 171.69400024414062 324.8406677246094 Z" clip-path="url(#153884925062-clipPath1)" stroke="none" />
    </g>
    <g font-size="18" fill="url(#1538849250353-linearGradient1)" text-rendering="optimizeLegibility" font-family="sans-serif" shape-rendering="geometricPrecision" stroke="url(#1538849250353-linearGradient1)">
      <path d="M165.98643493652344 332.2002258300781 L152.43328857421875 362.6410827636719 C152.222412109375 363.11474609375 152.43533325195312 363.6694030761719 152.9089813232422 363.8802795410156 C153.3826141357422 364.0911560058594 153.93728637695312 363.87823486328125 154.14817810058594 363.40460205078125 L167.70132446289062 332.9637451171875 C167.91220092773438 332.4900817871094 167.69927978515625 331.9354248046875 167.2256317138672 331.72454833984375 C166.75198364257812 331.513671875 166.1973114013672 331.7265930175781 165.98643493652344 332.2002258300781 Z" clip-path="url(#153884925062-clipPath1)" stroke="none" />
    </g>
    <g text-rendering="optimizeLegibility" font-size="18" shape-rendering="geometricPrecision" font-family="sans-serif">
      <path d="M167.60321044921875 332.0303039550781 L141.05325317382812 295.4874267578125 C140.74850463867188 295.0679626464844 140.16168212890625 294.9750061035156 139.7422332763672 295.2797546386719 C139.32278442382812 295.5845031738281 139.22982788085938 296.17132568359375 139.53457641601562 296.5907897949219 L166.0845489501953 333.1336669921875 C166.38929748535156 333.5531311035156 166.9761199951172 333.64605712890625 167.39556884765625 333.34130859375 C167.8150177001953 333.03656005859375 167.907958984375 332.4497375488281 167.60321044921875 332.0303039550781 Z" clip-path="url(#153884925062-clipPath1)" stroke="none" />
    </g>
    <g text-rendering="optimizeLegibility" font-size="18" shape-rendering="geometricPrecision" font-family="sans-serif">
      <path d="M139.4364776611328 295.6573486328125 C139.2255859375 296.1309814453125 139.43850708007812 296.6856689453125 139.9121551513672 296.89654541015625 C140.38580322265625 297.107421875 140.9404754638672 296.8945007324219 141.15135192871094 296.4208679199219 L159.5234375 255.15647888183594 C159.7343292236328 254.68283081054688 159.5214080810547 254.12815856933594 159.04776000976562 253.91726684570312 C158.57411193847656 253.70639038085938 158.01943969726562 253.9193115234375 157.80856323242188 254.39295959472656 ZM149.1551055908203 293.81854248046875 C148.94422912597656 294.2922058105469 149.15713500976562 294.84686279296875 149.6307830810547 295.0577392578125 C150.10443115234375 295.2686462402344 150.6591033935547 295.05572509765625 150.8699951171875 294.5820617675781 L164.6599884033203 263.6092224121094 C164.87088012695312 263.13555908203125 164.657958984375 262.5809020996094 164.18431091308594 262.3699951171875 C163.71066284179688 262.15911865234375 163.15599060058594 262.3720397949219 162.9451141357422 262.845703125 Z" clip-path="url(#153884925062-clipPath1)" stroke="none" />
    </g>
    <g text-rendering="optimizeLegibility" font-size="18" shape-rendering="geometricPrecision" font-family="sans-serif">
      <path d="M203.4899444580078 249.11976623535156 L158.56790161132812 253.8412628173828 C158.05226135253906 253.8954620361328 157.67835998535156 254.35719299316406 157.73255920410156 254.87281799316406 C157.78675842285156 255.38845825195312 158.2484893798828 255.76235961914062 158.7641143798828 255.70816040039062 L203.6861572265625 250.98666381835938 C204.20179748535156 250.93246459960938 204.57569885253906 250.47073364257812 204.52149963378906 249.95510864257812 C204.46730041503906 249.43948364257812 204.0055694580078 249.06558227539062 203.4899444580078 249.11976623535156 Z" clip-path="url(#153884925062-clipPath1)" stroke="none" />
    </g>
    <g font-size="18" fill="url(#1538849250874-linearGradient1)" text-rendering="optimizeLegibility" font-family="sans-serif" shape-rendering="geometricPrecision" stroke="url(#1538849250874-linearGradient1)">
      <path d="M213.7822723388672 131.92015075683594 C214.3007354736328 131.92015075683594 214.72085571289062 131.50003051757812 214.72085571289062 130.9815673828125 C214.72085571289062 130.4630889892578 214.3007354736328 130.04296875 213.7822723388672 130.04296875 L177.43743896484375 130.04296875 C176.91896057128906 130.04296875 176.49884033203125 130.4630889892578 176.49884033203125 130.9815673828125 C176.49884033203125 131.50003051757812 176.91896057128906 131.92015075683594 177.43743896484375 131.92015075683594 ZM206.9365234375 123.78964233398438 C207.45498657226562 123.78964233398438 207.87510681152344 123.36952209472656 207.87510681152344 122.8510513305664 C207.87510681152344 122.33258819580078 207.45498657226562 121.91246795654297 206.9365234375 121.91246795654297 L177.43743896484375 121.91246795654297 C176.91896057128906 121.91246795654297 176.49884033203125 122.33258819580078 176.49884033203125 122.8510513305664 C176.49884033203125 123.36952209472656 176.91896057128906 123.78964233398438 177.43743896484375 123.78964233398438 Z" clip-path="url(#153884925062-clipPath1)" stroke="none" />
    </g>
    <g font-size="18" fill="url(#153884925040-linearGradient1)" text-rendering="optimizeLegibility" font-family="sans-serif" shape-rendering="geometricPrecision" stroke="url(#153884925040-linearGradient1)">
      <path d="M165.8245086669922 119.36283874511719 L159.43563842773438 99.69989776611328 C159.27542114257812 99.20680236816406 158.74603271484375 98.93706512451172 158.25294494628906 99.09728240966797 C157.7598419189453 99.25749969482422 157.4901123046875 99.78688049316406 157.65032958984375 100.27997589111328 L164.03921508789062 119.94291687011719 C164.19943237304688 120.43600463867188 164.7288055419922 120.70574188232422 165.22189331054688 120.54552459716797 C165.71499633789062 120.38530731201172 165.98472595214844 119.85592651367188 165.8245086669922 119.36283874511719 Z" clip-path="url(#153884925062-clipPath1)" stroke="none" />
    </g>
    <g font-size="18" fill="url(#153884925045-linearGradient1)" text-rendering="optimizeLegibility" font-family="sans-serif" shape-rendering="geometricPrecision" stroke="url(#153884925045-linearGradient1)">
      <path d="M190.6458282470703 60.713531494140625 L163.5705108642578 80.38490295410156 C163.15106201171875 80.68965148925781 163.05812072753906 81.27647399902344 163.3628692626953 81.6959228515625 C163.66761779785156 82.11537170410156 164.2544403076172 82.20832061767578 164.67388916015625 81.903564453125 L191.74920654296875 62.23219680786133 C192.1686553955078 61.92744445800781 192.2615966796875 61.34062576293945 191.95684814453125 60.921173095703125 C191.652099609375 60.50172424316406 191.06527709960938 60.40877914428711 190.6458282470703 60.713531494140625 Z" clip-path="url(#153884925062-clipPath1)" stroke="none" />
    </g>
  </g>
</svg>