<svg xmlns="http://www.w3.org/2000/svg" viewBox="0 0 400 400">
  <defs id="genericDefs" />
  <g>
    <defs id="86690155371-defs1">
      <clipPath clipPathUnits="userSpaceOnUse" id="866901553323-clipPath1">
        <path d="M0 0 L0 400 L400 400 L400 0 Z" />
      </clipPath>
      <clipPath clipPathUnits="userSpaceOnUse" id="86690155333-clipPath1">
        <path d="M0 0 L400 0 L400 400 L0 400 L0 0 Z" />
      </clipPath>
    </defs>
    <g text-rendering="optimizeLegibility" shape-rendering="geometricPrecision">
      <path d="M237.42529296875 370.0607604980469 L161.57472229003906 370.0607604980469 C160.70408630371094 370.0607604980469 159.99859619140625 370.7662353515625 159.99859619140625 371.6368713378906 C159.99859619140625 372.50750732421875 160.70408630371094 373.2129821777344 161.57472229003906 373.2129821777344 L237.42529296875 373.2129821777344 C238.29592895507812 373.2129821777344 239.00140380859375 372.50750732421875 239.00140380859375 371.6368713378906 C239.00140380859375 370.7662353515625 238.29592895507812 370.0607604980469 237.42529296875 370.0607604980469 Z" clip-path="url(#866901553323-clipPath1)" stroke="none" />
    </g>
    <g text-rendering="optimizeLegibility" shape-rendering="geometricPrecision">
      <path d="M163.0736846923828 371.14984130859375 L139.6345672607422 299.01165771484375 C139.3655242919922 298.1836242675781 138.47657775878906 297.7306823730469 137.64854431152344 297.9997253417969 C136.82052612304688 298.2687683105469 136.36758422851562 299.15771484375 136.63662719726562 299.9857482910156 L160.07574462890625 372.1239318847656 C160.3447723388672 372.9519348144531 161.23373413085938 373.4048767089844 162.06175231933594 373.1358642578125 C162.88978576660156 372.8668212890625 163.3427276611328 371.97784423828125 163.0736846923828 371.14984130859375 Z" clip-path="url(#866901553323-clipPath1)" stroke="none" />
    </g>
    <g text-rendering="optimizeLegibility" shape-rendering="geometricPrecision">
      <path d="M139.06201171875 300.7738037109375 L200.42642211914062 256.18994140625 C201.13076782226562 255.67820739746094 201.28684997558594 254.6927947998047 200.7751007080078 253.98843383789062 C200.2633514404297 253.28407287597656 199.27793884277344 253.12799072265625 198.57357788085938 253.63973999023438 L137.2091827392578 298.2236022949219 C136.50482177734375 298.7353515625 136.34873962402344 299.72076416015625 136.86048889160156 300.42510986328125 C137.3722381591797 301.1294860839844 138.35765075683594 301.2855529785156 139.06201171875 300.7738037109375 Z" clip-path="url(#866901553323-clipPath1)" stroke="none" />
    </g>
    <g text-rendering="optimizeLegibility" shape-rendering="geometricPrecision">
      <path d="M198.57357788085938 256.18994140625 L259.93798828125 300.7738037109375 C260.642333984375 301.2855529785156 261.62774658203125 301.1294860839844 262.1394958496094 300.42510986328125 C262.6512451171875 299.72076416015625 262.49517822265625 298.7353210449219 261.79083251953125 298.2236022949219 L200.42642211914062 253.63973999023438 C199.72206115722656 253.12799072265625 198.7366485595703 253.28407287597656 198.2248992919922 253.98843383789062 C197.71315002441406 254.6927947998047 197.8692169189453 255.67820739746094 198.57357788085938 256.18994140625 Z" clip-path="url(#866901553323-clipPath1)" stroke="none" />
    </g>
    <g text-rendering="optimizeLegibility" shape-rendering="geometricPrecision">
      <path d="M238.92425537109375 372.1239318847656 L262.3633728027344 299.9857482910156 C262.6324157714844 299.15771484375 262.1794738769531 298.2687683105469 261.3514404296875 297.9997253417969 C260.5234375 297.7306823730469 259.63446044921875 298.1836242675781 259.36541748046875 299.01165771484375 L235.9263153076172 371.14984130859375 C235.6572723388672 371.97784423828125 236.11021423339844 372.8668212890625 236.938232421875 373.1358642578125 C237.76626586914062 373.4048767089844 238.65521240234375 372.9519348144531 238.92425537109375 372.1239318847656 Z" clip-path="url(#866901553323-clipPath1)" stroke="none" />
    </g>
    <g text-rendering="optimizeLegibility" shape-rendering="geometricPrecision">
      <path d="M201.07611083984375 254.9148406982422 L201.07611083984375 179.06427001953125 C201.07611083984375 178.19363403320312 200.37063598632812 177.4881591796875 199.5 177.4881591796875 C198.62936401367188 177.4881591796875 197.92388916015625 178.19363403320312 197.92388916015625 179.06427001953125 L197.92388916015625 254.9148406982422 C197.92388916015625 255.7854766845703 198.62936401367188 256.490966796875 199.5 256.490966796875 C200.37063598632812 256.490966796875 201.07611083984375 255.7854766845703 201.07611083984375 254.9148406982422 Z" clip-path="url(#866901553323-clipPath1)" stroke="none" />
    </g>
    <g text-rendering="optimizeLegibility" shape-rendering="geometricPrecision">
      <path d="M200.28805541992188 177.69931030273438 L134.5995330810547 139.77403259277344 C133.84555053710938 139.33871459960938 132.8818359375 139.59693908691406 132.44651794433594 140.35092163085938 C132.01119995117188 141.10491943359375 132.26942443847656 142.06861877441406 133.02342224121094 142.50393676757812 L198.71194458007812 180.42922973632812 C199.4659423828125 180.8645477294922 200.4296417236328 180.6063232421875 200.86495971679688 179.85232543945312 C201.30027770996094 179.09832763671875 201.04205322265625 178.13462829589844 200.28805541992188 177.69931030273438 Z" clip-path="url(#866901553323-clipPath1)" stroke="none" />
    </g>
    <g text-rendering="optimizeLegibility" shape-rendering="geometricPrecision">
      <path d="M135.38758850097656 141.1389923095703 L135.38758850097656 65.28841400146484 C135.38758850097656 64.41777801513672 134.68211364746094 63.71229553222656 133.8114776611328 63.71229553222656 C132.9408416748047 63.71229553222656 132.23536682128906 64.41777801513672 132.23536682128906 65.28841400146484 L132.23536682128906 141.1389923095703 C132.23536682128906 142.00962829589844 132.9408416748047 142.71510314941406 133.8114776611328 142.71510314941406 C134.68211364746094 142.71510314941406 135.38758850097656 142.00962829589844 135.38758850097656 141.1389923095703 Z" clip-path="url(#866901553323-clipPath1)" stroke="none" />
    </g>
    <g text-rendering="optimizeLegibility" shape-rendering="geometricPrecision">
      <path d="M134.5995330810547 66.65336608886719 L200.28805541992188 28.72808265686035 C201.04205322265625 28.29276466369629 201.30027770996094 27.32906150817871 200.86495971679688 26.5750675201416 C200.4296417236328 25.821073532104492 199.46592712402344 25.562850952148438 198.71194458007812 25.9981689453125 L133.02342224121094 63.92345428466797 C132.26942443847656 64.35877227783203 132.01119995117188 65.32247161865234 132.44651794433594 66.07646942138672 C132.8818359375 66.8304672241211 133.8455352783203 67.08868408203125 134.5995330810547 66.65336608886719 Z" clip-path="url(#866901553323-clipPath1)" stroke="none" />
    </g>
    <g text-rendering="optimizeLegibility" shape-rendering="geometricPrecision">
      <path d="M198.71194458007812 28.72808074951172 L264.40045166015625 66.65336608886719 C265.1544494628906 67.08868408203125 266.1181640625 66.8304672241211 266.553466796875 66.07646942138672 C266.9888000488281 65.32247161865234 266.7305603027344 64.35877227783203 265.9765930175781 63.92345428466797 L200.28805541992188 25.9981689453125 C199.5340576171875 25.562849044799805 198.5703582763672 25.821073532104492 198.13504028320312 26.5750675201416 C197.69972229003906 27.32906150817871 197.95794677734375 28.292762756347656 198.71194458007812 28.72808074951172 Z" clip-path="url(#866901553323-clipPath1)" stroke="none" />
    </g>
    <g text-rendering="optimizeLegibility" shape-rendering="geometricPrecision">
      <path d="M263.6123962402344 65.28841400146484 L263.6123962402344 141.13897705078125 C263.6123962402344 142.00961303710938 264.31787109375 142.71510314941406 265.18853759765625 142.71510314941406 C266.0591735839844 142.71510314941406 266.7646484375 142.00961303710938 266.7646484375 141.13897705078125 L266.7646484375 65.28841400146484 C266.7646484375 64.41777038574219 266.0591735839844 63.71229553222656 265.18853759765625 63.71229553222656 C264.31787109375 63.71229553222656 263.6123962402344 64.41777038574219 263.6123962402344 65.28841400146484 Z" clip-path="url(#866901553323-clipPath1)" stroke="none" />
    </g>
    <g text-rendering="optimizeLegibility" shape-rendering="geometricPrecision">
      <path d="M200.28805541992188 180.42922973632812 L265.9765930175781 142.50393676757812 C266.7305603027344 142.06861877441406 266.9888000488281 141.10491943359375 266.553466796875 140.35092163085938 C266.1181640625 139.59693908691406 265.1544494628906 139.33871459960938 264.40045166015625 139.77403259277344 L198.71194458007812 177.69931030273438 C197.95794677734375 178.13462829589844 197.69972229003906 179.09832763671875 198.13504028320312 179.85232543945312 C198.5703582763672 180.6063232421875 199.5340576171875 180.8645477294922 200.28805541992188 180.42922973632812 Z" clip-path="url(#866901553323-clipPath1)" stroke="none" />
    </g>
  </g>
</svg>