<svg xmlns="http://www.w3.org/2000/svg" viewBox="0 0 400 400">
  <defs id="genericDefs" />
  <g>
    <defs id="413550077480-defs1">
      <clipPath clipPathUnits="userSpaceOnUse" id="413550077723-clipPath1">
        <path d="M0 0 L0 400 L400 400 L400 0 Z" />
      </clipPath>
      <clipPath clipPathUnits="userSpaceOnUse" id="413550077990-clipPath1">
        <path d="M0 0 L400 0 L400 400 L0 400 L0 0 Z" />
      </clipPath>
    </defs>
    <g text-rendering="optimizeLegibility" shape-rendering="geometricPrecision">
      <path d="M257.2666320800781 354.920654296875 L141.73338317871094 354.920654296875 C140.40725708007812 354.920654296875 139.33270263671875 355.9952087402344 139.33270263671875 357.32135009765625 C139.33270263671875 358.6474609375 140.40725708007812 359.7220153808594 141.73338317871094 359.7220153808594 L257.2666320800781 359.7220153808594 C258.5927429199219 359.7220153808594 259.66729736328125 358.6474609375 259.66729736328125 357.32135009765625 C259.66729736328125 355.9952087402344 258.5927429199219 354.920654296875 257.2666320800781 354.920654296875 Z" clip-path="url(#413550077723-clipPath1)" stroke="none" />
    </g>
    <g text-rendering="optimizeLegibility" shape-rendering="geometricPrecision">
      <path d="M143.81243896484375 358.52166748046875 L201.5790557861328 258.46697998046875 C202.24212646484375 257.3185119628906 201.8488006591797 255.8506317138672 200.70034790039062 255.18756103515625 C199.5518798828125 254.52450561523438 198.08399963378906 254.91781616210938 197.4209442138672 256.0662841796875 L139.65432739257812 356.1210021972656 C138.9912567138672 357.2694396972656 139.38458251953125 358.7373352050781 140.5330352783203 359.400390625 C141.68150329589844 360.0634460449219 143.14938354492188 359.6701354980469 143.81243896484375 358.52166748046875 Z" clip-path="url(#413550077723-clipPath1)" stroke="none" />
    </g>
    <g text-rendering="optimizeLegibility" shape-rendering="geometricPrecision">
      <path d="M259.3456726074219 356.1210021972656 L201.5790557861328 256.0662841796875 C200.91600036621094 254.91781616210938 199.4481201171875 254.52450561523438 198.29965209960938 255.18756103515625 C197.1511993408203 255.8506317138672 196.75787353515625 257.3185119628906 197.4209442138672 258.46697998046875 L255.18756103515625 358.52166748046875 C255.85061645507812 359.6701354980469 257.3185119628906 360.0634460449219 258.4669494628906 359.400390625 C259.61541748046875 358.7373352050781 260.00872802734375 357.2694396972656 259.3456726074219 356.1210021972656 Z" clip-path="url(#413550077723-clipPath1)" stroke="none" />
    </g>
    <g text-rendering="optimizeLegibility" shape-rendering="geometricPrecision">
      <path d="M201.90069580078125 257.2666320800781 L201.90069580078125 141.73338317871094 C201.90069580078125 140.40725708007812 200.8261260986328 139.33270263671875 199.5 139.33270263671875 C198.1738739013672 139.33270263671875 197.09930419921875 140.40725708007812 197.09930419921875 141.73338317871094 L197.09930419921875 257.2666320800781 C197.09930419921875 258.5927429199219 198.1738739013672 259.66729736328125 199.5 259.66729736328125 C200.8261260986328 259.66729736328125 201.90069580078125 258.5927429199219 201.90069580078125 257.2666320800781 Z" clip-path="url(#413550077723-clipPath1)" stroke="none" />
    </g>
    <g text-rendering="optimizeLegibility" shape-rendering="geometricPrecision">
      <path d="M201.5790557861328 140.5330352783203 L143.81243896484375 40.47832107543945 C143.14938354492188 39.32986068725586 141.68150329589844 38.936546325683594 140.5330352783203 39.599609375 C139.38458251953125 40.262672424316406 138.9912567138672 41.730552673339844 139.65432739257812 42.87901306152344 L197.4209442138672 142.93373107910156 C198.08399963378906 144.08218383789062 199.5518798828125 144.4755096435547 200.70034790039062 143.81243896484375 C201.8488006591797 143.14938354492188 202.24212646484375 141.68150329589844 201.5790557861328 140.5330352783203 Z" clip-path="url(#413550077723-clipPath1)" stroke="none" />
    </g>
    <g text-rendering="optimizeLegibility" shape-rendering="geometricPrecision">
      <path d="M141.73338317871094 44.07935333251953 L257.2666015625 44.07935333251953 C258.5927429199219 44.07935333251953 259.66729736328125 43.004791259765625 259.66729736328125 41.67866134643555 C259.66729736328125 40.352535247802734 258.5927429199219 39.27797317504883 257.2666015625 39.27797317504883 L141.73338317871094 39.27797317504883 C140.40725708007812 39.27797317504883 139.3326873779297 40.352535247802734 139.3326873779297 41.67866134643555 C139.3326873779297 43.004791259765625 140.40725708007812 44.07935333251953 141.73338317871094 44.07935333251953 Z" clip-path="url(#413550077723-clipPath1)" stroke="none" />
    </g>
    <g text-rendering="optimizeLegibility" shape-rendering="geometricPrecision">
      <path d="M201.5790557861328 142.93373107910156 L259.3456726074219 42.87901306152344 C260.00872802734375 41.730552673339844 259.61541748046875 40.262672424316406 258.4669494628906 39.599609375 C257.3185119628906 38.936546325683594 255.85061645507812 39.32986068725586 255.18756103515625 40.47832107543945 L197.4209442138672 140.5330352783203 C196.75787353515625 141.68150329589844 197.1511993408203 143.14938354492188 198.29965209960938 143.81243896484375 C199.4481201171875 144.4755096435547 200.91600036621094 144.08218383789062 201.5790557861328 142.93373107910156 Z" clip-path="url(#413550077723-clipPath1)" stroke="none" />
    </g>
  </g>
</svg>