<svg xmlns="http://www.w3.org/2000/svg" viewBox="0 0 400 400">
  <defs id="genericDefs" />
  <g>
    <defs id="806588571602-defs1">
      <clipPath clipPathUnits="userSpaceOnUse" id="806588571968-clipPath1">
        <path d="M0 0 L0 400 L400 400 L400 0 Z" />
      </clipPath>
      <clipPath clipPathUnits="userSpaceOnUse" id="806588571559-clipPath1">
        <path d="M0 0 L400 0 L400 400 L0 400 L0 0 Z" />
      </clipPath>
    </defs>
    <g text-rendering="optimizeLegibility" shape-rendering="geometricPrecision">
      <path d="M227.35214233398438 226.80191040039062 L176.23892211914062 197.2916717529297 C175.6522216796875 196.9529571533203 174.90235900878906 197.15386962890625 174.56362915039062 197.74057006835938 C174.2248992919922 198.3272705078125 174.4258270263672 199.07713317871094 175.0125274658203 199.41586303710938 L226.125732421875 228.92608642578125 C226.71243286132812 229.2648162841797 227.46231079101562 229.0638885498047 227.801025390625 228.47720336914062 C228.13975524902344 227.8905029296875 227.93882751464844 227.14064025878906 227.35214233398438 226.80191040039062 Z" clip-path="url(#806588571968-clipPath1)" stroke="none" />
    </g>
    <g text-rendering="optimizeLegibility" shape-rendering="geometricPrecision">
      <path d="M176.8521270751953 198.35377502441406 L176.8521270751953 139.33331298828125 C176.8521270751953 138.65585327148438 176.3031768798828 138.10691833496094 175.62571716308594 138.10691833496094 C174.94827270507812 138.10691833496094 174.39932250976562 138.65585327148438 174.39932250976562 139.33331298828125 L174.39932250976562 198.35377502441406 C174.39932250976562 199.03121948242188 174.94827270507812 199.58016967773438 175.62571716308594 199.58016967773438 C176.3031768798828 199.58016967773438 176.8521270751953 199.03121948242188 176.8521270751953 198.35377502441406 Z" clip-path="url(#806588571968-clipPath1)" stroke="none" />
    </g>
    <g text-rendering="optimizeLegibility" shape-rendering="geometricPrecision">
      <path d="M176.23892211914062 138.27122497558594 L125.1257095336914 108.76099395751953 C124.53900909423828 108.4222640991211 123.78914642333984 108.6231918334961 123.4504165649414 109.20988464355469 C123.11168670654297 109.79657745361328 123.31261444091797 110.54644775390625 123.89930725097656 110.88517761230469 L175.0125274658203 140.39540100097656 C175.59921264648438 140.734130859375 176.34909057617188 140.533203125 176.6878204345703 139.94651794433594 C177.02655029296875 139.3598175048828 176.82562255859375 138.60995483398438 176.23892211914062 138.27122497558594 Z" clip-path="url(#806588571968-clipPath1)" stroke="none" />
    </g>
    <g text-rendering="optimizeLegibility" shape-rendering="geometricPrecision">
      <path d="M125.73890686035156 109.82308197021484 L125.73890686035156 50.8026237487793 C125.73890686035156 50.12516784667969 125.1899642944336 49.57622528076172 124.51250457763672 49.57622528076172 C123.83505249023438 49.57622528076172 123.2861099243164 50.12516784667969 123.2861099243164 50.8026237487793 L123.2861099243164 109.82308197021484 C123.2861099243164 110.50054168701172 123.83505249023438 111.04948425292969 124.51250457763672 111.04948425292969 C125.1899642944336 111.04948425292969 125.73890686035156 110.50054168701172 125.73890686035156 109.82308197021484 Z" clip-path="url(#806588571968-clipPath1)" stroke="none" />
    </g>
    <g text-rendering="optimizeLegibility" shape-rendering="geometricPrecision">
      <path d="M125.1257095336914 51.86471939086914 L176.23892211914062 22.354488372802734 C176.82562255859375 22.01576042175293 177.02655029296875 21.26589012145996 176.6878204345703 20.679197311401367 C176.34909057617188 20.09250259399414 175.59921264648438 19.89157485961914 175.0125274658203 20.230302810668945 L123.89930725097656 49.74053192138672 C123.31261444091797 50.079261779785156 123.11168670654297 50.829132080078125 123.4504165649414 51.41582489013672 C123.78913879394531 52.00251770019531 124.53900909423828 52.20344543457031 125.1257095336914 51.86471939086914 Z" clip-path="url(#806588571968-clipPath1)" stroke="none" />
    </g>
    <g text-rendering="optimizeLegibility" shape-rendering="geometricPrecision">
      <path d="M175.0125274658203 22.354488372802734 L226.125732421875 51.86471939086914 C226.71243286132812 52.20344543457031 227.46231079101562 52.00251770019531 227.801025390625 51.41582489013672 C228.13975524902344 50.82912826538086 227.93882751464844 50.079261779785156 227.35214233398438 49.74053192138672 L176.23892211914062 20.230302810668945 C175.6522216796875 19.89157485961914 174.90235900878906 20.09250259399414 174.56362915039062 20.679195404052734 C174.2248992919922 21.26589012145996 174.4258270263672 22.01576042175293 175.0125274658203 22.354488372802734 Z" clip-path="url(#806588571968-clipPath1)" stroke="none" />
    </g>
    <g text-rendering="optimizeLegibility" shape-rendering="geometricPrecision">
      <path d="M225.51254272460938 50.8026237487793 L225.51254272460938 109.82308197021484 C225.51254272460938 110.50054168701172 226.0614776611328 111.04948425292969 226.7389373779297 111.04948425292969 C227.41639709472656 111.04948425292969 227.96533203125 110.50054168701172 227.96533203125 109.82308197021484 L227.96533203125 50.8026237487793 C227.96533203125 50.12516784667969 227.41639709472656 49.57622528076172 226.7389373779297 49.57622528076172 C226.0614776611328 49.57622528076172 225.51254272460938 50.12516784667969 225.51254272460938 50.8026237487793 Z" clip-path="url(#806588571968-clipPath1)" stroke="none" />
    </g>
    <g text-rendering="optimizeLegibility" shape-rendering="geometricPrecision">
      <path d="M176.23892211914062 140.39540100097656 L227.35214233398438 110.88517761230469 C227.93882751464844 110.54644775390625 228.13975524902344 109.79657745361328 227.801025390625 109.20988464355469 C227.46231079101562 108.6231918334961 226.71243286132812 108.4222640991211 226.125732421875 108.76099395751953 L175.0125274658203 138.27122497558594 C174.4258270263672 138.60995483398438 174.2248992919922 139.3598175048828 174.56362915039062 139.94651794433594 C174.90235900878906 140.533203125 175.6522216796875 140.734130859375 176.23892211914062 140.39540100097656 Z" clip-path="url(#806588571968-clipPath1)" stroke="none" />
    </g>
    <g text-rendering="optimizeLegibility" shape-rendering="geometricPrecision">
      <path d="M225.51254272460938 227.86399841308594 L225.51254272460938 286.88446044921875 C225.51254272460938 287.5619201660156 226.0614776611328 288.1108703613281 226.7389373779297 288.1108703613281 C227.41639709472656 288.1108703613281 227.96533203125 287.5619201660156 227.96533203125 286.88446044921875 L227.96533203125 227.86399841308594 C227.96533203125 227.18653869628906 227.41639709472656 226.63760375976562 226.7389373779297 226.63760375976562 C226.0614776611328 226.63760375976562 225.51254272460938 227.18653869628906 225.51254272460938 227.86399841308594 Z" clip-path="url(#806588571968-clipPath1)" stroke="none" />
    </g>
    <g text-rendering="optimizeLegibility" shape-rendering="geometricPrecision">
      <path d="M226.01808166503906 287.87664794921875 L273.7666320800781 322.5679931640625 C274.314697265625 322.9661865234375 275.08148193359375 322.8447570800781 275.47967529296875 322.2966613769531 C275.87786865234375 321.74859619140625 275.7564392089844 320.9818420410156 275.2083435058594 320.5836486816406 L227.4597930908203 285.89227294921875 C226.91172790527344 285.49407958984375 226.14495849609375 285.61553955078125 225.74676513671875 286.1636047363281 C225.3485565185547 286.711669921875 225.47000122070312 287.4784240722656 226.01808166503906 287.87664794921875 Z" clip-path="url(#806588571968-clipPath1)" stroke="none" />
    </g>
    <g text-rendering="optimizeLegibility" shape-rendering="geometricPrecision">
      <path d="M273.32110595703125 321.19683837890625 L255.08279418945312 377.32861328125 C254.87344360351562 377.9729309082031 255.22589111328125 378.6646423339844 255.8701934814453 378.8739929199219 C256.5144958496094 379.08331298828125 257.2062072753906 378.73089599609375 257.4155578613281 378.0865783691406 L275.65386962890625 321.9548034667969 C275.86322021484375 321.31048583984375 275.5107727050781 320.6187744140625 274.8664855957031 320.409423828125 C274.22216796875 320.2001037597656 273.53045654296875 320.5525207519531 273.32110595703125 321.19683837890625 Z" clip-path="url(#806588571968-clipPath1)" stroke="none" />
    </g>
    <g text-rendering="optimizeLegibility" shape-rendering="geometricPrecision">
      <path d="M256.2491760253906 376.481201171875 L197.2287139892578 376.481201171875 C196.55125427246094 376.481201171875 196.00230407714844 377.0301513671875 196.00230407714844 377.7076110839844 C196.00230407714844 378.38507080078125 196.55125427246094 378.9339904785156 197.2287139892578 378.9339904785156 L256.2491760253906 378.9339904785156 C256.9266357421875 378.9339904785156 257.4755554199219 378.38507080078125 257.4755554199219 377.7076110839844 C257.4755554199219 377.0301513671875 256.9266357421875 376.481201171875 256.2491760253906 376.481201171875 Z" clip-path="url(#806588571968-clipPath1)" stroke="none" />
    </g>
    <g text-rendering="optimizeLegibility" shape-rendering="geometricPrecision">
      <path d="M198.39508056640625 377.32861328125 L180.15675354003906 321.19683837890625 C179.94741821289062 320.5525207519531 179.25570678710938 320.2001037597656 178.6114044189453 320.409423828125 C177.96710205078125 320.6187744140625 177.6146697998047 321.31048583984375 177.82400512695312 321.9548034667969 L196.0623321533203 378.0865783691406 C196.2716827392578 378.73089599609375 196.96339416503906 379.08331298828125 197.60768127441406 378.8739929199219 C198.25198364257812 378.6646423339844 198.60443115234375 377.9729309082031 198.39508056640625 377.32861328125 Z" clip-path="url(#806588571968-clipPath1)" stroke="none" />
    </g>
    <g text-rendering="optimizeLegibility" shape-rendering="geometricPrecision">
      <path d="M226.01808166503906 285.89227294921875 L178.26953125 320.5836486816406 C177.72145080566406 320.9818420410156 177.60000610351562 321.74859619140625 177.9982147216797 322.2966613769531 C178.3964080810547 322.8447570800781 179.16317749023438 322.9661865234375 179.71124267578125 322.5679931640625 L227.4597930908203 287.87664794921875 C228.00787353515625 287.4784240722656 228.1293182373047 286.711669921875 227.73110961914062 286.1636047363281 C227.33291625976562 285.61553955078125 226.56614685058594 285.49407958984375 226.01808166503906 285.89227294921875 Z" clip-path="url(#806588571968-clipPath1)" stroke="none" />
    </g>
  </g>
</svg>