<svg xmlns="http://www.w3.org/2000/svg" viewBox="0 0 400 400">
  <defs id="genericDefs" />
  <g>
    <defs id="1620301064167-defs1">
      <linearGradient x1="202.23867797851562" gradientUnits="userSpaceOnUse" x2="200.14614868164062" y1="210.55870056152344" y2="209.3505859375" id="1620301064840-linearGradient1" spreadMethod="pad">
        <stop stop-opacity="1" stop-color="rgb(51,51,153)" offset="0%" />
        <stop stop-opacity="1" stop-color="rgb(102,102,0)" offset="100%" />
      </linearGradient>
      <linearGradient x1="175.98159790039062" gradientUnits="userSpaceOnUse" x2="175.98159790039062" y1="159.8687744140625" y2="157.45252990722656" id="1620301064445-linearGradient1" spreadMethod="pad">
        <stop stop-opacity="1" stop-color="rgb(102,102,0)" offset="0%" />
        <stop stop-opacity="1" stop-color="black" offset="100%" />
      </linearGradient>
      <linearGradient x1="226.33290100097656" gradientUnits="userSpaceOnUse" x2="226.33290100097656" y1="259.8944396972656" y2="262.3106994628906" id="162030106459-linearGradient1" spreadMethod="pad">
        <stop stop-opacity="1" stop-color="rgb(51,51,153)" offset="0%" />
        <stop stop-opacity="1" stop-color="black" offset="100%" />
      </linearGradient>
      <linearGradient x1="233.89476013183594" gradientUnits="userSpaceOnUse" x2="231.478515625" y1="372.0794982910156" y2="372.0794982910156" id="1620301064345-linearGradient1" spreadMethod="pad">
        <stop stop-opacity="1" stop-color="black" offset="0%" />
        <stop stop-opacity="1" stop-color="red" offset="100%" />
      </linearGradient>
      <linearGradient x1="188.5615692138672" gradientUnits="userSpaceOnUse" x2="187.81491088867188" y1="345.3005676269531" y2="343.0025634765625" id="1620301064839-linearGradient1" spreadMethod="pad">
        <stop stop-opacity="1" stop-color="red" offset="0%" />
        <stop stop-opacity="1" stop-color="rgb(51,51,153)" offset="100%" />
      </linearGradient>
      <linearGradient x1="209.2507781982422" gradientUnits="userSpaceOnUse" x2="207.29600524902344" y1="295.0210876464844" y2="296.4413146972656" id="162030106483-linearGradient1" spreadMethod="pad">
        <stop stop-opacity="1" stop-color="black" offset="0%" />
        <stop stop-opacity="1" stop-color="rgb(51,51,153)" offset="100%" />
      </linearGradient>
      <clipPath clipPathUnits="userSpaceOnUse" id="1620301064350-clipPath1">
        <path d="M-217.84852600097656 -209.46951293945312 L182.15147399902344 -209.46951293945312 L182.15147399902344 190.53048706054688 L-217.84852600097656 190.53048706054688 L-217.84852600097656 -209.46951293945312 Z" />
      </clipPath>
      <clipPath clipPathUnits="userSpaceOnUse" id="1620301064692-clipPath1">
        <path d="M-168.48159790039062 -180.399169921875 L231.51840209960938 -180.399169921875 L231.51840209960938 219.600830078125 L-168.48159790039062 219.600830078125 L-168.48159790039062 -180.399169921875 Z" />
      </clipPath>
      <clipPath clipPathUnits="userSpaceOnUse" id="1620301064898-clipPath1">
        <path d="M-188.2625732421875 -357.0794982910156 L211.7374267578125 -357.0794982910156 L211.7374267578125 42.92051315307617 L-188.2625732421875 42.92051315307617 L-188.2625732421875 -357.0794982910156 Z" />
      </clipPath>
      <clipPath clipPathUnits="userSpaceOnUse" id="1620301064552-clipPath1">
        <path d="M-170.79611206054688 -301.784423828125 L229.20388793945312 -301.784423828125 L229.20388793945312 98.21558380126953 L-170.79611206054688 98.21558380126953 L-170.79611206054688 -301.784423828125 Z" />
      </clipPath>
      <clipPath clipPathUnits="userSpaceOnUse" id="1620301064266-clipPath1">
        <path d="M177.21401977539062 184.895263671875 C180.15342712402344 184.895263671875 182.53628540039062 187.27813720703125 182.53628540039062 190.217529296875 L182.53628540039062 200.862060546875 C182.53628540039062 203.8014678955078 180.15342712402344 206.184326171875 177.21401977539062 206.184326171875 L174.74917602539062 206.184326171875 C171.8097686767578 206.184326171875 169.42691040039062 203.8014678955078 169.42691040039062 200.862060546875 L169.42691040039062 190.217529296875 C169.42691040039062 187.27813720703125 171.8097686767578 184.895263671875 174.74917602539062 184.895263671875 ZM244.70204162597656 214.17654418945312 C247.54437255859375 214.17654418945312 249.84852600097656 216.48069763183594 249.84852600097656 219.32302856445312 L249.84852600097656 229.61599731445312 C249.84852600097656 232.4583282470703 247.54437255859375 234.76248168945312 244.70204162597656 234.76248168945312 L224.99501037597656 234.76248168945312 C222.15269470214844 234.76248168945312 219.84852600097656 232.4583282470703 219.84852600097656 229.61599731445312 L219.84852600097656 219.32302856445312 C219.84852600097656 216.48069763183594 222.15269470214844 214.17654418945312 224.99501037597656 214.17654418945312 ZM180.63400268554688 306.491455078125 C183.47633361816406 306.491455078125 185.78048706054688 308.7956237792969 185.78048706054688 311.637939453125 L185.78048706054688 321.930908203125 C185.78048706054688 324.7732238769531 183.47633361816406 327.077392578125 180.63400268554688 327.077392578125 L177.95822143554688 327.077392578125 C175.1158905029297 327.077392578125 172.81173706054688 324.7732238769531 172.81173706054688 321.930908203125 L172.81173706054688 311.637939453125 C172.81173706054688 308.7956237792969 175.1158905029297 306.491455078125 177.95822143554688 306.491455078125 ZM199.8153076171875 361.5755920410156 C202.7547149658203 361.5755920410156 205.1375732421875 363.95843505859375 205.1375732421875 366.8978576660156 L205.1375732421875 377.5423889160156 C205.1375732421875 380.4817810058594 202.7547149658203 382.8646545410156 199.8153076171875 382.8646545410156 L194.7098388671875 382.8646545410156 C191.7704315185547 382.8646545410156 189.3875732421875 380.4817810058594 189.3875732421875 377.5423889160156 L189.3875732421875 366.8978576660156 C189.3875732421875 363.95843505859375 191.7704315185547 361.5755920410156 194.7098388671875 361.5755920410156 ZM0 0 L0 400 L400 400 L400 0 Z" />
      </clipPath>
      <clipPath clipPathUnits="userSpaceOnUse" id="1620301064663-clipPath1">
        <path d="M0 0 L400 0 L400 400 L0 400 L0 0 Z" />
      </clipPath>
    </defs>
    <g font-size="23" transform="translate(217.8485290623114,209.46951406243087)" fill="rgb(51,51,153)" text-rendering="optimizeLegibility" font-family="sans-serif" shape-rendering="geometricPrecision" stroke="rgb(51,51,153)">
      <text xml:space="preserve" x="0" y="24" clip-path="url(#1620301064350-clipPath1)" stroke="none">NH
      </text>
    </g>
    <g font-size="23" transform="translate(168.4816032906463,180.3991770078622)" fill="rgb(102,102,0)" text-rendering="optimizeLegibility" font-family="sans-serif" shape-rendering="geometricPrecision" stroke="rgb(102,102,0)">
      <text xml:space="preserve" x="0" y="24" clip-path="url(#1620301064692-clipPath1)" stroke="none">S
      </text>
    </g>
    <g font-size="23" transform="translate(188.26256700774263,357.0794859445499)" fill="red" text-rendering="optimizeLegibility" font-family="sans-serif" shape-rendering="geometricPrecision" stroke="red">
      <text xml:space="preserve" x="0" y="24" clip-path="url(#1620301064898-clipPath1)" stroke="none">O
      </text>
    </g>
    <g font-size="23" transform="translate(170.7961106436037,301.78441897126186)" fill="rgb(51,51,153)" text-rendering="optimizeLegibility" font-family="sans-serif" shape-rendering="geometricPrecision" stroke="rgb(51,51,153)">
      <text xml:space="preserve" x="0" y="24" clip-path="url(#1620301064552-clipPath1)" stroke="none">N
      </text>
    </g>
    <g font-size="23" fill="url(#1620301064840-linearGradient1)" text-rendering="optimizeLegibility" font-family="sans-serif" shape-rendering="geometricPrecision" stroke="url(#1620301064840-linearGradient1)">
      <path d="M215.66348266601562 216.9145050048828 L187.92945861816406 200.90225219726562 C187.35150146484375 200.56857299804688 186.61280822753906 200.76651000976562 186.2791290283203 201.34445190429688 C185.94544982910156 201.9224090576172 186.1433868408203 202.66110229492188 186.72132873535156 202.99478149414062 L214.4553680419922 219.0070343017578 C215.03330993652344 219.34071350097656 215.77200317382812 219.1427764892578 216.10568237304688 218.56483459472656 C216.43936157226562 217.98687744140625 216.24143981933594 217.24818420410156 215.66348266601562 216.9145050048828 Z" clip-path="url(#1620301064266-clipPath1)" stroke="none" />
    </g>
    <g font-size="23" fill="url(#1620301064445-linearGradient1)" text-rendering="optimizeLegibility" font-family="sans-serif" shape-rendering="geometricPrecision" stroke="url(#1620301064445-linearGradient1)">
      <path d="M177.18972778320312 180.06280517578125 L177.18972778320312 137.2584991455078 C177.18972778320312 136.5911407470703 176.64895629882812 136.05038452148438 175.98159790039062 136.05038452148438 C175.31423950195312 136.05038452148438 174.7734832763672 136.5911407470703 174.7734832763672 137.2584991455078 L174.7734832763672 180.06280517578125 C174.7734832763672 180.73016357421875 175.31423950195312 181.2709197998047 175.98159790039062 181.2709197998047 C176.64895629882812 181.2709197998047 177.18972778320312 180.73016357421875 177.18972778320312 180.06280517578125 Z" clip-path="url(#1620301064266-clipPath1)" stroke="none" />
    </g>
    <g text-rendering="optimizeLegibility" font-size="23" shape-rendering="geometricPrecision" font-family="sans-serif">
      <path d="M175.37754821777344 138.3047637939453 C175.9554901123047 138.63844299316406 176.69418334960938 138.4405059814453 177.02786254882812 137.86256408691406 C177.36154174804688 137.28460693359375 177.16360473632812 136.54591369628906 176.58566284179688 136.2122344970703 L126.23435974121094 107.14190673828125 C125.65641021728516 106.8082275390625 124.91771697998047 107.00615692138672 124.58403778076172 107.5841064453125 C124.25035858154297 108.16205596923828 124.44829559326172 108.90074920654297 125.0262451171875 109.23442840576172 ZM174.33128356933594 125.61639404296875 C174.9092254638672 125.9500732421875 175.64791870117188 125.75213623046875 175.98159790039062 125.17418670654297 C176.31527709960938 124.59624481201172 176.1173553466797 123.85755157470703 175.53939819335938 123.52387237548828 L137.74594116210938 101.70381164550781 C137.16799926757812 101.37013244628906 136.42930603027344 101.56806182861328 136.0956268310547 102.14601135253906 C135.76194763183594 102.72396087646484 135.95986938476562 103.462646484375 136.53782653808594 103.79632568359375 Z" clip-path="url(#1620301064266-clipPath1)" stroke="none" />
    </g>
    <g text-rendering="optimizeLegibility" font-size="23" shape-rendering="geometricPrecision" font-family="sans-serif">
      <path d="M126.83841705322266 108.18816375732422 L126.83841705322266 50.04749298095703 C126.83841705322266 49.38013458251953 126.29766082763672 48.83937454223633 125.63030242919922 48.83937454223633 C124.96294403076172 48.83937454223633 124.42218780517578 49.38013458251953 124.42218780517578 50.04749298095703 L124.42218780517578 108.18816375732422 C124.42218780517578 108.85552215576172 124.96294403076172 109.39628601074219 125.63030242919922 109.39628601074219 C126.29766082763672 109.39628601074219 126.83841705322266 108.85552215576172 126.83841705322266 108.18816375732422 Z" clip-path="url(#1620301064266-clipPath1)" stroke="none" />
    </g>
    <g text-rendering="optimizeLegibility" font-size="23" shape-rendering="geometricPrecision" font-family="sans-serif">
      <path d="M125.0262451171875 49.0012321472168 C124.44829559326172 49.33491134643555 124.2503662109375 50.07360076904297 124.58404541015625 50.65155029296875 C124.91771697998047 51.22949981689453 125.65641021728516 51.427433013916016 126.23435974121094 51.093753814697266 L176.58566284179688 22.023414611816406 C177.16360473632812 21.689735412597656 177.36154174804688 20.9510440826416 177.02786254882812 20.37309455871582 C176.69418334960938 19.795146942138672 175.9554901123047 19.597213745117188 175.37754821777344 19.930892944335938 ZM136.53782653808594 54.439327239990234 C135.9598846435547 54.773006439208984 135.76194763183594 55.51169967651367 136.0956268310547 56.08964920043945 C136.42930603027344 56.66759490966797 137.16799926757812 56.86552810668945 137.74594116210938 56.5318489074707 L175.53939819335938 34.711788177490234 C176.1173553466797 34.378108978271484 176.31527709960938 33.6394157409668 175.98159790039062 33.061466217041016 C175.64791870117188 32.483516693115234 174.9092254638672 32.285587310791016 174.33128356933594 32.619266510009766 Z" clip-path="url(#1620301064266-clipPath1)" stroke="none" />
    </g>
    <g text-rendering="optimizeLegibility" font-size="23" shape-rendering="geometricPrecision" font-family="sans-serif">
      <path d="M175.37754821777344 22.023414611816406 L225.72885131835938 51.093753814697266 C226.30679321289062 51.427433013916016 227.0454864501953 51.22949981689453 227.37916564941406 50.65155029296875 C227.7128448486328 50.07360076904297 227.51490783691406 49.33491134643555 226.9369659423828 49.0012321472168 L176.58566284179688 19.930892944335938 C176.00772094726562 19.59721565246582 175.26902770996094 19.795146942138672 174.9353485107422 20.373096466064453 C174.60166931152344 20.9510440826416 174.79959106445312 21.68973731994629 175.37754821777344 22.023414611816406 Z" clip-path="url(#1620301064266-clipPath1)" stroke="none" />
    </g>
    <g text-rendering="optimizeLegibility" font-size="23" shape-rendering="geometricPrecision" font-family="sans-serif">
      <path d="M227.541015625 50.04749298095703 C227.541015625 49.38013458251953 227.00025939941406 48.83937454223633 226.33290100097656 48.83937454223633 C225.66554260253906 48.83937454223633 225.12478637695312 49.38013458251953 225.12478637695312 50.04749298095703 L225.12478637695312 108.18816375732422 C225.12478637695312 108.85552215576172 225.66554260253906 109.39628601074219 226.33290100097656 109.39628601074219 C227.00025939941406 109.39628601074219 227.541015625 108.85552215576172 227.541015625 108.18816375732422 ZM217.07569885253906 57.297767639160156 C217.07569885253906 56.630409240722656 216.53494262695312 56.08964920043945 215.86758422851562 56.08964920043945 C215.20022583007812 56.08964920043945 214.6594696044922 56.630409240722656 214.6594696044922 57.297767639160156 L214.6594696044922 100.9378890991211 C214.6594696044922 101.6052474975586 215.20022583007812 102.14601135253906 215.86758422851562 102.14601135253906 C216.53494262695312 102.14601135253906 217.07569885253906 101.6052474975586 217.07569885253906 100.9378890991211 Z" clip-path="url(#1620301064266-clipPath1)" stroke="none" />
    </g>
    <g text-rendering="optimizeLegibility" font-size="23" shape-rendering="geometricPrecision" font-family="sans-serif">
      <path d="M176.58566284179688 138.3047637939453 L226.9369659423828 109.23442840576172 C227.51490783691406 108.90074920654297 227.7128448486328 108.16205596923828 227.37916564941406 107.5841064453125 C227.0454864501953 107.00615692138672 226.30679321289062 106.8082275390625 225.72885131835938 107.14190673828125 L175.37754821777344 136.2122344970703 C174.79959106445312 136.54591369628906 174.60166931152344 137.28460693359375 174.9353485107422 137.86256408691406 C175.26902770996094 138.4405059814453 176.00772094726562 138.63844299316406 176.58566284179688 138.3047637939453 Z" clip-path="url(#1620301064266-clipPath1)" stroke="none" />
    </g>
    <g font-size="23" fill="url(#162030106459-linearGradient1)" text-rendering="optimizeLegibility" font-family="sans-serif" shape-rendering="geometricPrecision" stroke="url(#162030106459-linearGradient1)">
      <path d="M225.12478637695312 239.59495544433594 L225.12478637695312 282.6101989746094 C225.12478637695312 283.2775573730469 225.66554260253906 283.81829833984375 226.33290100097656 283.81829833984375 C227.00025939941406 283.81829833984375 227.541015625 283.2775573730469 227.541015625 282.6101989746094 L227.541015625 239.59495544433594 C227.541015625 238.92759704589844 227.00025939941406 238.3868408203125 226.33290100097656 238.3868408203125 C225.66554260253906 238.3868408203125 225.12478637695312 238.92759704589844 225.12478637695312 239.59495544433594 Z" clip-path="url(#1620301064266-clipPath1)" stroke="none" />
    </g>
    <g text-rendering="optimizeLegibility" font-size="23" shape-rendering="geometricPrecision" font-family="sans-serif">
      <path d="M225.62278747558594 283.58758544921875 L272.6595764160156 317.7618103027344 C273.1994934082031 318.1540832519531 273.954833984375 318.034423828125 274.3470764160156 317.4945373535156 C274.7393493652344 316.9546203613281 274.6197204589844 316.19927978515625 274.0798034667969 315.8070373535156 L227.0430145263672 281.6328125 C226.50311279296875 281.24053955078125 225.74777221679688 281.36016845703125 225.3555145263672 281.90008544921875 C224.9632568359375 282.4399719238281 225.0828857421875 283.1953125 225.62278747558594 283.58758544921875 Z" clip-path="url(#1620301064266-clipPath1)" stroke="none" />
    </g>
    <g text-rendering="optimizeLegibility" font-size="23" shape-rendering="geometricPrecision" font-family="sans-serif">
      <path d="M274.5186767578125 317.1577453613281 C274.72491455078125 316.5230407714844 274.3777160644531 315.8416442871094 273.7430114746094 315.63543701171875 C273.10833740234375 315.42919921875 272.42694091796875 315.7763977050781 272.220703125 316.4111022949219 L254.25425720214844 371.7061462402344 C254.04803466796875 372.3408508300781 254.3952178955078 373.0222473144531 255.0299072265625 373.2284851074219 C255.66461181640625 373.4346923828125 256.34600830078125 373.0875244140625 256.5522155761719 372.45281982421875 ZM261.8426208496094 322.30413818359375 C262.0488586425781 321.66943359375 261.70166015625 320.988037109375 261.0669860839844 320.7818298339844 C260.4322814941406 320.5755920410156 259.7508850097656 320.92279052734375 259.5446472167969 321.5574645996094 L247.02407836914062 360.09185791015625 C246.81785583496094 360.7265319824219 247.1650390625 361.4079284667969 247.79974365234375 361.6141662597656 C248.43443298339844 361.8204040527344 249.11582946777344 361.47320556640625 249.32205200195312 360.8385009765625 Z" clip-path="url(#1620301064266-clipPath1)" stroke="none" />
    </g>
    <g font-size="23" fill="url(#1620301064345-linearGradient1)" text-rendering="optimizeLegibility" font-family="sans-serif" shape-rendering="geometricPrecision" stroke="url(#1620301064345-linearGradient1)">
      <path d="M255.4032440185547 370.8713684082031 L209.9700469970703 370.8713684082031 C209.3026885986328 370.8713684082031 208.7619171142578 371.4121398925781 208.7619171142578 372.0794982910156 C208.7619171142578 372.7468566894531 209.3026885986328 373.28759765625 209.9700469970703 373.28759765625 L255.4032440185547 373.28759765625 C256.0705871582031 373.28759765625 256.6113586425781 372.7468566894531 256.6113586425781 372.0794982910156 C256.6113586425781 371.4121398925781 256.0705871582031 370.8713684082031 255.4032440185547 370.8713684082031 Z" clip-path="url(#1620301064266-clipPath1)" stroke="none" />
    </g>
    <g font-size="23" fill="url(#1620301064839-linearGradient1)" text-rendering="optimizeLegibility" font-family="sans-serif" shape-rendering="geometricPrecision" stroke="url(#1620301064839-linearGradient1)">
      <path d="M193.51516723632812 356.6366271972656 L185.15928649902344 330.91986083984375 C184.95306396484375 330.28515625 184.27166748046875 329.93798828125 183.636962890625 330.1441955566406 C183.0022735595703 330.3504333496094 182.6550750732422 331.0318298339844 182.86131286621094 331.66650390625 L191.21719360351562 357.3832702636719 C191.4234161376953 358.0179748535156 192.1048126220703 358.3651428222656 192.739501953125 358.158935546875 C193.37420654296875 357.95269775390625 193.7213897705078 357.27130126953125 193.51516723632812 356.6366271972656 Z" clip-path="url(#1620301064266-clipPath1)" stroke="none" />
    </g>
    <g font-size="23" fill="url(#162030106483-linearGradient1)" text-rendering="optimizeLegibility" font-family="sans-serif" shape-rendering="geometricPrecision" stroke="url(#162030106483-linearGradient1)">
      <path d="M226.0656280517578 297.2335510253906 C226.60552978515625 296.8412780761719 226.7251739501953 296.0859375 226.33290100097656 295.5460510253906 C225.94064331054688 295.0061340332031 225.185302734375 294.8865051269531 224.64540100097656 295.2787780761719 L195.65512084960938 316.3414306640625 C195.11521911621094 316.73370361328125 194.99559020996094 317.4890441894531 195.38784790039062 318.0289306640625 C195.7801055908203 318.56884765625 196.5354461669922 318.6884765625 197.07534790039062 318.29620361328125 ZM227.0430145263672 283.58758544921875 C227.58291625976562 283.1953125 227.7025604248047 282.4399719238281 227.31028747558594 281.90008544921875 C226.91802978515625 281.36016845703125 226.16268920898438 281.24053955078125 225.62278747558594 281.6328125 L189.50375366210938 307.87481689453125 C188.96385192871094 308.26708984375 188.84422302246094 309.02239990234375 189.23648071289062 309.56231689453125 C189.62875366210938 310.1022033691406 190.3840789794922 310.22186279296875 190.92398071289062 309.82958984375 Z" clip-path="url(#1620301064266-clipPath1)" stroke="none" />
    </g>
  </g>
</svg>