<?xml version="1.0"?>

<!DOCTYPE svg PUBLIC '-//W3C//DTD SVG 1.0//EN' 'http://www.w3.org/TR/2001/REC-SVG-20010904/DTD/svg10.dtd'>
<svg fill-opacity="1" xmlns:xlink="http://www.w3.org/1999/xlink" color-rendering="auto" color-interpolation="auto" text-rendering="auto" stroke="black" stroke-linecap="square" width="328" stroke-miterlimit="10" shape-rendering="auto" stroke-opacity="1" fill="black" stroke-dasharray="none" font-weight="normal" stroke-width="1" height="176" xmlns="http://www.w3.org/2000/svg" font-family="&apos;Dialog&apos;" font-style="normal" stroke-linejoin="miter" font-size="12" stroke-dashoffset="0" image-rendering="auto">
  <!--Generated by Marvin with Batik SVG Generator
MolSource:
<?xml version="1.0" encoding="windows-1250"?><cml xmlns="http://www.chemaxon.com" xmlns:xsi="http://www.w3.org/2001/XMLSchema-instance" xsi:schemaLocation="http://www.chemaxon.com/marvin/schema/mrvSchema_14_12_01.xsd" version="ChemAxon file format v14.12.01, generated by v16.1.4.0">
<MDocument atomSetRGB="0:D" bondSetRGB="0:N,1:#ff0033" bondSetLineThickness="1:0.06678571428571428"><MPolyline id="o1" headLength="0.6" headWidth="0.4"><MPoint x="1.4231620353752306" y="2.5896959682717338"></MPoint><MPoint x="4.202123577640486" y="3.8269693622574756"></MPoint></MPolyline><MPolyline id="o2" headFlags="64" headLength="0.6" headWidth="0.4"><MPoint x="1.9451133767316113" y="-0.43767722531952247"></MPoint><MPoint x="4.888219400291703" y="-1.0206561924537219"></MPoint></MPolyline><MChemicalStruct><molecule molID="m1"><atomArray atomID="a1 a2 a3 a4 a5 a6 a7 a8 a9 a10 a11 a12 a13 a14 a15 a16 a17 a18 a19 a20" elementType="C C C C C C C C C C C C C C C C C C C C" x2="-4.833333492279053 -6.167002833327311 -6.167002833327311 -4.833333492279053 -3.499664151230794 -3.499664151230794 -4.833333492279053 -3.499664151230794 -2.1659948101825357 -2.1659948101825357 -0.8323254691342772 -0.8323254691342772 0.5013438719139813 0.5013438719139813 10.688843798181454 7.751255078593573 6.320800685229305 10.268543626288567 7.330954906700688 5.900500513336418" y2="3.040033881118081 2.2700169405590405 0.7299830594409595 -0.04003388111808093 0.7299830594409595 2.2700169405590405 -1.5800677622361619 -2.3500847027952023 -1.5800677622361619 -0.04003388111808093 0.7299830594409595 -2.3500847027952023 -1.5800677622361619 -0.04003388111808093 -2.940329213535608 -2.8846872864186057 -0.13125305529600612 2.6700939715478254 2.7257358986648277 5.479170129787427"></atomArray><bondArray><bond id="b1" atomRefs2="a1 a2" order="1"></bond><bond id="b2" atomRefs2="a1 a6" order="1"></bond><bond id="b3" atomRefs2="a2 a3" order="1"></bond><bond id="b4" atomRefs2="a3 a4" order="1"></bond><bond id="b5" atomRefs2="a4 a5" order="1"></bond><bond id="b6" atomRefs2="a5 a6" order="1"></bond><bond id="b7" atomRefs2="a7 a8" order="1"></bond><bond id="b8" atomRefs2="a8 a9" order="1"></bond><bond id="b9" atomRefs2="a9 a10" order="1"></bond><bond id="b10" atomRefs2="a4 a7" order="1"></bond><bond id="b11" atomRefs2="a5 a10" order="1" mrvSetSeq="1"></bond><bond id="b12" atomRefs2="a12 a13" order="1"></bond><bond id="b13" atomRefs2="a13 a14" order="1"></bond><bond id="b14" atomRefs2="a11 a14" order="1"></bond><bond id="b15" atomRefs2="a9 a12" order="1"></bond><bond id="b16" atomRefs2="a11 a10" order="1"></bond><bond id="b17" atomRefs2="a15 a16" order="1" mrvBold="true"></bond><bond id="b18" atomRefs2="a16 a17" order="1" mrvBold="true"></bond><bond id="b19" atomRefs2="a17 a15" order="1"></bond><bond id="b20" atomRefs2="a18 a19" order="1" mrvBold="true"></bond><bond id="b21" atomRefs2="a19 a20" order="1" mrvBold="true"></bond></bondArray></molecule></MChemicalStruct></MDocument>
</cml>
-->
  <defs id="genericDefs" />
  <g>
    <defs id="718142800950-defs1">
      <clipPath clipPathUnits="userSpaceOnUse" id="718142800138-clipPath1">
        <path d="M0 0 L328 0 L328 176 L0 176 L0 0 Z" />
      </clipPath>
    </defs>
    <g text-rendering="optimizeLegibility" shape-rendering="geometricPrecision">
      <path d="M35.2698974609375 55.050254821777344 L11.220052719116211 68.93585205078125 C10.932500839233398 69.10187530517578 10.834025382995605 69.46940612792969 11.000048637390137 69.7569580078125 C11.166070938110352 70.04450225830078 11.533601760864258 70.14298248291016 11.821154594421387 69.97695922851562 L35.871002197265625 56.091365814208984 C36.15855026245117 55.92534255981445 36.25702667236328 55.55781173706055 36.09100341796875 55.270259857177734 C35.92498016357422 54.98270797729492 35.55744934082031 54.88423538208008 35.2698974609375 55.050254821777344 Z" clip-path="url(#718142800138-clipPath1)" stroke="none" />
    </g>
    <g text-rendering="optimizeLegibility" shape-rendering="geometricPrecision">
      <path d="M35.2698974609375 56.091365814208984 L59.31974411010742 69.97695922851562 C59.607295989990234 70.14298248291016 59.974830627441406 70.04450225830078 60.14085006713867 69.7569580078125 C60.3068733215332 69.46940612792969 60.20840072631836 69.10187530517578 59.92084884643555 68.93585205078125 L35.871002197265625 55.050254821777344 C35.58345031738281 54.88423538208008 35.215919494628906 54.98270797729492 35.049896240234375 55.270259857177734 C34.883872985839844 55.55781173706055 34.98234939575195 55.92534255981445 35.2698974609375 56.091365814208984 Z" clip-path="url(#718142800138-clipPath1)" stroke="none" />
    </g>
    <g text-rendering="optimizeLegibility" shape-rendering="geometricPrecision">
      <path d="M10.919514656066895 69.45640563964844 L10.919514656066895 97.22758483886719 C10.919514656066895 97.55962371826172 11.188565254211426 97.82867431640625 11.52060317993164 97.82867431640625 C11.852641105651855 97.82867431640625 12.121692657470703 97.55962371826172 12.121692657470703 97.22758483886719 L12.121692657470703 69.45640563964844 C12.121692657470703 69.1243667602539 11.852641105651855 68.85531616210938 11.52060317993164 68.85531616210938 C11.188565254211426 68.85531616210938 10.919514656066895 69.1243667602539 10.919514656066895 69.45640563964844 Z" clip-path="url(#718142800138-clipPath1)" stroke="none" />
    </g>
    <g text-rendering="optimizeLegibility" shape-rendering="geometricPrecision">
      <path d="M11.220052719116211 97.7481460571289 L35.2698974609375 111.63373565673828 C35.55745315551758 111.79975891113281 35.924983978271484 111.70128631591797 36.09100341796875 111.41373443603516 C36.25702667236328 111.12618255615234 36.15855407714844 110.75865173339844 35.871002197265625 110.5926284790039 L11.821154594421387 96.70703125 C11.53360366821289 96.54100799560547 11.166071891784668 96.63948822021484 11.000049591064453 96.92704010009766 C10.834026336669922 97.21459197998047 10.932501792907715 97.58212280273438 11.220052719116211 97.7481460571289 Z" clip-path="url(#718142800138-clipPath1)" stroke="none" />
    </g>
    <g text-rendering="optimizeLegibility" shape-rendering="geometricPrecision">
      <path d="M35.871002197265625 111.63373565673828 L59.92084884643555 97.7481460571289 C60.20840072631836 97.58212280273438 60.3068733215332 97.21459197998047 60.14085006713867 96.92704010009766 C59.974830627441406 96.63948822021484 59.607295989990234 96.54100799560547 59.31974411010742 96.70703125 L35.2698974609375 110.5926284790039 C34.98234939575195 110.75865173339844 34.883872985839844 111.12618255615234 35.049896240234375 111.41373443603516 C35.215919494628906 111.70128631591797 35.58345031738281 111.79975891113281 35.871002197265625 111.63373565673828 Z" clip-path="url(#718142800138-clipPath1)" stroke="none" />
    </g>
    <g text-rendering="optimizeLegibility" shape-rendering="geometricPrecision">
      <path d="M60.22138595581055 97.22758483886719 L60.22138595581055 69.45640563964844 C60.22138595581055 69.1243667602539 59.952335357666016 68.85531616210938 59.620296478271484 68.85531616210938 C59.28825759887695 68.85531616210938 59.01920700073242 69.1243667602539 59.01920700073242 69.45640563964844 L59.01920700073242 97.22758483886719 C59.01920700073242 97.55962371826172 59.28825759887695 97.82867431640625 59.620296478271484 97.82867431640625 C59.952335357666016 97.82867431640625 60.22138595581055 97.55962371826172 60.22138595581055 97.22758483886719 Z" clip-path="url(#718142800138-clipPath1)" stroke="none" />
    </g>
    <g text-rendering="optimizeLegibility" shape-rendering="geometricPrecision">
      <path d="M35.2698974609375 139.40492248535156 L59.31974411010742 153.29051208496094 C59.607295989990234 153.45654296875 59.974830627441406 153.35806274414062 60.14085006713867 153.0705108642578 C60.3068733215332 152.782958984375 60.20840072631836 152.41542053222656 59.92084884643555 152.24940490722656 L35.871002197265625 138.3638153076172 C35.58345031738281 138.19778442382812 35.215919494628906 138.2962646484375 35.049896240234375 138.5838165283203 C34.883872985839844 138.87136840820312 34.98234939575195 139.2388916015625 35.2698974609375 139.40492248535156 Z" clip-path="url(#718142800138-clipPath1)" stroke="none" />
    </g>
    <g text-rendering="optimizeLegibility" shape-rendering="geometricPrecision">
      <path d="M59.92084884643555 153.29051208496094 L83.97069549560547 139.40492248535156 C84.25824737548828 139.2388916015625 84.35671997070312 138.87136840820312 84.1906967163086 138.5838165283203 C84.02467346191406 138.2962646484375 83.65714263916016 138.19778442382812 83.36959075927734 138.3638153076172 L59.31974411010742 152.24940490722656 C59.032196044921875 152.41542053222656 58.933719635009766 152.782958984375 59.0997428894043 153.0705108642578 C59.26576614379883 153.35806274414062 59.633296966552734 153.45654296875 59.92084884643555 153.29051208496094 Z" clip-path="url(#718142800138-clipPath1)" stroke="none" />
    </g>
    <g text-rendering="optimizeLegibility" shape-rendering="geometricPrecision">
      <path d="M84.27123260498047 138.88436889648438 L84.27123260498047 111.1131820678711 C84.27123260498047 110.78114318847656 84.00218200683594 110.51209259033203 83.6701431274414 110.51209259033203 C83.33810424804688 110.51209259033203 83.06905364990234 110.78114318847656 83.06905364990234 111.1131820678711 L83.06905364990234 138.88436889648438 C83.06905364990234 139.21640014648438 83.33810424804688 139.48545837402344 83.6701431274414 139.48545837402344 C84.00218200683594 139.48545837402344 84.27123260498047 139.21640014648438 84.27123260498047 138.88436889648438 Z" clip-path="url(#718142800138-clipPath1)" stroke="none" />
    </g>
    <g text-rendering="optimizeLegibility" shape-rendering="geometricPrecision">
      <path d="M34.9693603515625 111.1131820678711 L34.9693603515625 138.88436889648438 C34.9693603515625 139.21640014648438 35.23841094970703 139.48545837402344 35.57044982910156 139.48545837402344 C35.902488708496094 139.48545837402344 36.171539306640625 139.21640014648438 36.171539306640625 138.88436889648438 L36.171539306640625 111.1131820678711 C36.171539306640625 110.78114318847656 35.902488708496094 110.51209259033203 35.57044982910156 110.51209259033203 C35.23841094970703 110.51209259033203 34.9693603515625 110.78114318847656 34.9693603515625 111.1131820678711 Z" clip-path="url(#718142800138-clipPath1)" stroke="none" />
    </g>
    <g fill="rgb(255,0,51)" text-rendering="optimizeLegibility" shape-rendering="geometricPrecision" stroke="rgb(255,0,51)">
      <path d="M59.31920623779297 97.74907684326172 L83.36904907226562 111.63467407226562 C83.65711975097656 111.80098724365234 84.02530670166016 111.70233917236328 84.1916275024414 111.41426849365234 C84.35794830322266 111.12620544433594 84.2593002319336 110.75801086425781 83.97123718261719 110.59169006347656 L59.92138671875 96.70610046386719 C59.63331985473633 96.53977966308594 59.26512908935547 96.638427734375 59.09880828857422 96.92649841308594 C58.93248748779297 97.21456909179688 59.0311393737793 97.58275604248047 59.31920623779297 97.74907684326172 Z" clip-path="url(#718142800138-clipPath1)" stroke="none" />
    </g>
    <g text-rendering="optimizeLegibility" shape-rendering="geometricPrecision">
      <path d="M108.02053833007812 153.29051208496094 L132.0703887939453 139.40492248535156 C132.35794067382812 139.2388916015625 132.4564208984375 138.87136840820312 132.29039001464844 138.5838165283203 C132.12437438964844 138.2962646484375 131.7568359375 138.19778442382812 131.4692840576172 138.3638153076172 L107.41944122314453 152.24940490722656 C107.13188934326172 152.41542053222656 107.03340911865234 152.782958984375 107.19943237304688 153.0705108642578 C107.3654556274414 153.35806274414062 107.73298645019531 153.45654296875 108.02053833007812 153.29051208496094 Z" clip-path="url(#718142800138-clipPath1)" stroke="none" />
    </g>
    <g text-rendering="optimizeLegibility" shape-rendering="geometricPrecision">
      <path d="M132.3709259033203 138.88436889648438 L132.3709259033203 111.1131820678711 C132.3709259033203 110.78114318847656 132.10186767578125 110.51209259033203 131.76983642578125 110.51209259033203 C131.43780517578125 110.51209259033203 131.1687469482422 110.78114318847656 131.1687469482422 111.1131820678711 L131.1687469482422 138.88436889648438 C131.1687469482422 139.21640014648438 131.43780517578125 139.48545837402344 131.76983642578125 139.48545837402344 C132.10186767578125 139.48545837402344 132.3709259033203 139.21640014648438 132.3709259033203 138.88436889648438 Z" clip-path="url(#718142800138-clipPath1)" stroke="none" />
    </g>
    <g text-rendering="optimizeLegibility" shape-rendering="geometricPrecision">
      <path d="M107.41944122314453 97.7481460571289 L131.4692840576172 111.63373565673828 C131.7568359375 111.79975891113281 132.12437438964844 111.70128631591797 132.29039001464844 111.41373443603516 C132.4564208984375 111.12618255615234 132.35794067382812 110.75865173339844 132.0703887939453 110.5926284790039 L108.02053833007812 96.70703125 C107.73298645019531 96.54100799560547 107.3654556274414 96.63948822021484 107.19943237304688 96.92704010009766 C107.03340911865234 97.21459197998047 107.13188934326172 97.58212280273438 107.41944122314453 97.7481460571289 Z" clip-path="url(#718142800138-clipPath1)" stroke="none" />
    </g>
    <g text-rendering="optimizeLegibility" shape-rendering="geometricPrecision">
      <path d="M83.36959075927734 139.40492248535156 L107.41944122314453 153.29051208496094 C107.70699310302734 153.45654296875 108.07452392578125 153.35806274414062 108.24054718017578 153.0705108642578 C108.40657043457031 152.782958984375 108.30809020996094 152.41542053222656 108.02053833007812 152.24940490722656 L83.97069549560547 138.3638153076172 C83.68314361572266 138.19778442382812 83.31561279296875 138.2962646484375 83.14958953857422 138.5838165283203 C82.98356628417969 138.87136840820312 83.08203887939453 139.2388916015625 83.36959075927734 139.40492248535156 Z" clip-path="url(#718142800138-clipPath1)" stroke="none" />
    </g>
    <g text-rendering="optimizeLegibility" shape-rendering="geometricPrecision">
      <path d="M107.41944122314453 96.70703125 L83.36959075927734 110.5926284790039 C83.08203887939453 110.75865173339844 82.98356628417969 111.12618255615234 83.14958953857422 111.41373443603516 C83.31561279296875 111.70128631591797 83.68314361572266 111.79975891113281 83.97069549560547 111.63373565673828 L108.02053833007812 97.7481460571289 C108.30809020996094 97.58212280273438 108.40656280517578 97.21459197998047 108.24054718017578 96.92704010009766 C108.07452392578125 96.63948822021484 107.70699310302734 96.54100799560547 107.41944122314453 96.70703125 Z" clip-path="url(#718142800138-clipPath1)" stroke="none" />
    </g>
    <g text-rendering="optimizeLegibility" shape-rendering="geometricPrecision">
      <path d="M316.6243896484375 163.4354248046875 L320.6378173828125 166.01646423339844 L260.97021484375 164.8862762451172 L262.5063171386719 162.4103546142578 L264.04241943359375 159.9344482421875 L312.6109619140625 160.85440063476562 Z" clip-path="url(#718142800138-clipPath1)" stroke="none" />
    </g>
    <g text-rendering="optimizeLegibility" shape-rendering="geometricPrecision">
      <path d="M262.5063171386719 162.4103546142578 L260.97021484375 164.8862762451172 L231.91517639160156 108.95916748046875 L236.1536102294922 111.68490600585938 L240.39205932617188 114.41063690185547 L264.04241943359375 159.9344482421875 Z" clip-path="url(#718142800138-clipPath1)" stroke="none" />
    </g>
    <g text-rendering="optimizeLegibility" shape-rendering="geometricPrecision">
      <path d="M236.38604736328125 113.26368713378906 L315.1542663574219 163.9193115234375 C315.43353271484375 164.09890747070312 315.80535888671875 164.0181427001953 315.9849548339844 163.73887634277344 C316.1645812988281 163.4595947265625 316.08380126953125 163.08778381347656 315.8045349121094 162.90817260742188 L237.0363006591797 112.25255584716797 C236.7570343017578 112.07295227050781 236.3852081298828 112.15371704101562 236.20559692382812 112.43299102783203 C236.0260009765625 112.71226501464844 236.1067657470703 113.08409118652344 236.38604736328125 113.26368713378906 Z" clip-path="url(#718142800138-clipPath1)" stroke="none" />
    </g>
    <g text-rendering="optimizeLegibility" shape-rendering="geometricPrecision">
      <path d="M307.9001770019531 62.241878509521484 L307.8527526855469 64.74598693847656 L253.39102172851562 63.71440887451172 L254.9271240234375 61.238494873046875 L256.4632263183594 58.76258087158203 L307.9476318359375 59.73776626586914 Z" clip-path="url(#718142800138-clipPath1)" stroke="none" />
    </g>
    <g text-rendering="optimizeLegibility" shape-rendering="geometricPrecision">
      <path d="M254.9271240234375 61.238494873046875 L253.39102172851562 63.71440887451172 L226.90943908691406 12.740896224975586 L229.13197326660156 11.58625602722168 L231.3544921875 10.431615829467773 L256.4632263183594 58.76258087158203 Z" clip-path="url(#718142800138-clipPath1)" stroke="none" />
    </g>
    <g text-rendering="optimizeLegibility" stroke-width="1.1270525455474854" shape-rendering="geometricPrecision" stroke-linecap="butt">
      <path d="M198.50540161132812 41.380126953125 L187.15419006347656 42.48613357543945 L190.08804321289062 49.07566452026367" clip-path="url(#718142800138-clipPath1)" stroke="none" />
      <path fill="none" d="M198.50540161132812 41.380126953125 L187.15419006347656 42.48613357543945 L190.08804321289062 49.07566452026367 L198.50540161132812 41.380126953125 Z" clip-path="url(#718142800138-clipPath1)" />
      <line clip-path="url(#718142800138-clipPath1)" fill="none" x1="148.39283559022644" x2="188.62111400555403" y1="63.691682377943984" y2="45.7808988668619" />
      <path d="M210.87765502929688 128.7965850830078 L200.96495056152344 123.15641021728516 L199.56338500976562 130.23207092285156" clip-path="url(#718142800138-clipPath1)" stroke="none" />
      <path fill="none" d="M210.87765502929688 128.7965850830078 L200.96495056152344 123.15641021728516 L199.56338500976562 130.23207092285156 L210.87765502929688 128.7965850830078 Z" clip-path="url(#718142800138-clipPath1)" />
      <line clip-path="url(#718142800138-clipPath1)" fill="none" x1="195.58178568395792" x2="173.10097736208778" y1="116.01662365444899" y2="131.06378335445467" />
      <line clip-path="url(#718142800138-clipPath1)" fill="none" x1="191.8649613730257" x2="176.81780167302" y1="134.7806076653869" y2="112.29979934351678" />
      <line clip-path="url(#718142800138-clipPath1)" fill="none" x1="157.80510085060257" x2="210.87766219544315" y1="118.28382015497345" y2="128.79658685393022" />
    </g>
  </g>
</svg>
