<svg xmlns="http://www.w3.org/2000/svg" viewBox="0 0 400 400">
  <defs id="genericDefs" />
  <g>
    <defs id="1548271808468-defs1">
      <linearGradient x1="179.63319396972656" gradientUnits="userSpaceOnUse" x2="179.63319396972656" y1="342.31103515625" y2="344.4314880371094" id="1548271808802-linearGradient1" spreadMethod="pad">
        <stop stop-opacity="1" stop-color="black" offset="0%" />
        <stop stop-opacity="1" stop-color="red" offset="100%" />
      </linearGradient>
      <linearGradient x1="164.1116943359375" gradientUnits="userSpaceOnUse" x2="162.2753143310547" y1="315.5898742675781" y2="314.5296325683594" id="1548271808247-linearGradient1" spreadMethod="pad">
        <stop stop-opacity="1" stop-color="black" offset="0%" />
        <stop stop-opacity="1" stop-color="red" offset="100%" />
      </linearGradient>
      <clipPath clipPathUnits="userSpaceOnUse" id="154827180850-clipPath1">
        <path d="M-172.21913146972656 -362.5748291015625 L227.78086853027344 -362.5748291015625 L227.78086853027344 37.42518615722656 L-172.21913146972656 37.42518615722656 L-172.21913146972656 -362.5748291015625 Z" />
      </clipPath>
      <clipPath clipPathUnits="userSpaceOnUse" id="1548271808551-clipPath1">
        <path d="M-127.44544982910156 -286.0393981933594 L272.5545349121094 -286.0393981933594 L272.5545349121094 113.9605941772461 L-127.44544982910156 113.9605941772461 L-127.44544982910156 -286.0393981933594 Z" />
      </clipPath>
      <clipPath clipPathUnits="userSpaceOnUse" id="1548271808118-clipPath1">
        <path d="M137.65541076660156 289.8968200683594 C140.21458435058594 289.8968200683594 142.28919982910156 291.971435546875 142.28919982910156 294.5306091308594 L142.28919982910156 303.7981872558594 C142.28919982910156 306.35736083984375 140.21458435058594 308.4319763183594 137.65541076660156 308.4319763183594 L133.23548889160156 308.4319763183594 C130.6763153076172 308.4319763183594 128.60169982910156 306.35736083984375 128.60169982910156 303.7981872558594 L128.60169982910156 294.5306091308594 C128.60169982910156 291.971435546875 130.6763153076172 289.8968200683594 133.23548889160156 289.8968200683594 ZM196.01502990722656 366.4322509765625 C198.57420349121094 366.4322509765625 200.64881896972656 368.5068664550781 200.64881896972656 371.0660400390625 L200.64881896972656 380.3336181640625 C200.64881896972656 382.89276123046875 198.57420349121094 384.9674072265625 196.01502990722656 384.9674072265625 L177.42323303222656 384.9674072265625 C174.8640594482422 384.9674072265625 172.78944396972656 382.89276123046875 172.78944396972656 380.3336181640625 L172.78944396972656 371.0660400390625 C172.78944396972656 368.5068664550781 174.8640594482422 366.4322509765625 177.42323303222656 366.4322509765625 ZM0 0 L0 400 L400 400 L400 0 Z" />
      </clipPath>
      <clipPath clipPathUnits="userSpaceOnUse" id="1548271808754-clipPath1">
        <path d="M0 0 L400 0 L400 400 L0 400 L0 0 Z" />
      </clipPath>
    </defs>
    <g font-size="20" transform="translate(172.2191297216312,362.57481483719437)" fill="red" text-rendering="optimizeLegibility" font-family="sans-serif" shape-rendering="geometricPrecision" stroke="red">
      <text xml:space="preserve" x="0" y="21" clip-path="url(#154827180850-clipPath1)" stroke="none">OH
      </text>
    </g>
    <g font-size="20" transform="translate(127.44545166489434,286.0394031212538)" fill="red" text-rendering="optimizeLegibility" font-family="sans-serif" shape-rendering="geometricPrecision" stroke="red">
      <text xml:space="preserve" x="0" y="21" clip-path="url(#1548271808551-clipPath1)" stroke="none">O
      </text>
    </g>
    <g text-rendering="optimizeLegibility" font-size="20" shape-rendering="geometricPrecision" font-family="sans-serif">
      <path d="M178.57296752929688 18.40955924987793 L178.57296752929688 69.43316650390625 C178.57296752929688 70.01883697509766 179.0475311279297 70.49340057373047 179.63319396972656 70.49340057373047 C180.21885681152344 70.49340057373047 180.69342041015625 70.01883697509766 180.69342041015625 69.43316650390625 L180.69342041015625 18.40955924987793 C180.69342041015625 17.823894500732422 180.21885681152344 17.349328994750977 179.63319396972656 17.349328994750977 C179.0475311279297 17.349328994750977 178.57296752929688 17.823894500732422 178.57296752929688 18.40955924987793 Z" clip-path="url(#1548271808118-clipPath1)" stroke="none" />
    </g>
    <g text-rendering="optimizeLegibility" font-size="20" shape-rendering="geometricPrecision" font-family="sans-serif">
      <path d="M179.1030731201172 68.51498413085938 L134.9153289794922 94.02678680419922 C134.4081268310547 94.31961822509766 134.23443603515625 94.96788787841797 134.5272674560547 95.47509002685547 C134.82009887695312 95.98229217529297 135.46836853027344 96.15599060058594 135.97557067871094 95.8631591796875 L180.16331481933594 70.35135650634766 C180.67050170898438 70.05852508544922 180.84420776367188 69.4102554321289 180.55137634277344 68.9030532836914 C180.258544921875 68.3958511352539 179.6102752685547 68.2221450805664 179.1030731201172 68.51498413085938 Z" clip-path="url(#1548271808118-clipPath1)" stroke="none" />
    </g>
    <g text-rendering="optimizeLegibility" font-size="20" shape-rendering="geometricPrecision" font-family="sans-serif">
      <path d="M179.1030731201172 70.35135650634766 L223.2908172607422 95.8631591796875 C223.7980194091797 96.15599060058594 224.4462890625 95.98229217529297 224.73912048339844 95.47509002685547 C225.03195190429688 94.96788787841797 224.85824584960938 94.31961822509766 224.35104370117188 94.02678680419922 L180.16331481933594 68.51498413085938 C179.65611267089844 68.2221450805664 179.00784301757812 68.3958511352539 178.7150115966797 68.9030532836914 C178.42218017578125 69.4102554321289 178.5958709716797 70.05852508544922 179.1030731201172 70.35135650634766 Z" clip-path="url(#1548271808118-clipPath1)" stroke="none" />
    </g>
    <g text-rendering="optimizeLegibility" font-size="20" shape-rendering="geometricPrecision" font-family="sans-serif">
      <path d="M222.7606964111328 94.9449691772461 L222.7606964111328 145.9685821533203 C222.7606964111328 146.5542449951172 223.23526000976562 147.02880859375 223.82093811035156 147.02880859375 C224.40660095214844 147.02880859375 224.88116455078125 146.5542449951172 224.88116455078125 145.9685821533203 L224.88116455078125 94.9449691772461 C224.88116455078125 94.35930633544922 224.40660095214844 93.8847427368164 223.82093811035156 93.8847427368164 C223.23526000976562 93.8847427368164 222.7606964111328 94.35930633544922 222.7606964111328 94.9449691772461 Z" clip-path="url(#1548271808118-clipPath1)" stroke="none" />
    </g>
    <g text-rendering="optimizeLegibility" font-size="20" shape-rendering="geometricPrecision" font-family="sans-serif">
      <path d="M224.35104370117188 145.05039978027344 C223.84384155273438 144.75755310058594 223.19557189941406 144.93125915527344 222.90274047851562 145.43846130371094 C222.6099090576172 145.94566345214844 222.7836151123047 146.59393310546875 223.2908172607422 146.8867645263672 L267.4785461425781 172.39857482910156 C267.9857482910156 172.69140625 268.634033203125 172.5177001953125 268.9268493652344 172.010498046875 C269.2196960449219 171.5032958984375 269.0459899902344 170.8550262451172 268.5387878417969 170.56219482421875 ZM225.2692413330078 156.18556213378906 C224.7620391845703 155.89273071289062 224.11376953125 156.06643676757812 223.82093811035156 156.57363891601562 C223.52810668945312 157.08084106445312 223.70179748535156 157.72911071777344 224.20899963378906 158.02194213867188 L257.3761291503906 177.17098999023438 C257.8833312988281 177.4638214111328 258.5315856933594 177.2901153564453 258.8244323730469 176.7829132080078 C259.11724853515625 176.2757110595703 258.94354248046875 175.62744140625 258.43634033203125 175.33460998535156 Z" clip-path="url(#1548271808118-clipPath1)" stroke="none" />
    </g>
    <g text-rendering="optimizeLegibility" font-size="20" shape-rendering="geometricPrecision" font-family="sans-serif">
      <path d="M266.9484558105469 171.48037719726562 L266.9484558105469 222.50399780273438 C266.9484558105469 223.08966064453125 267.4230041503906 223.56422424316406 268.0086669921875 223.56422424316406 C268.5943298339844 223.56422424316406 269.06890869140625 223.08966064453125 269.06890869140625 222.50399780273438 L269.06890869140625 171.48037719726562 C269.06890869140625 170.89471435546875 268.5943298339844 170.42015075683594 268.0086669921875 170.42015075683594 C267.4230041503906 170.42015075683594 266.9484558105469 170.89471435546875 266.9484558105469 171.48037719726562 Z" clip-path="url(#1548271808118-clipPath1)" stroke="none" />
    </g>
    <g text-rendering="optimizeLegibility" font-size="20" shape-rendering="geometricPrecision" font-family="sans-serif">
      <path d="M268.5387878417969 223.42218017578125 C269.0459899902344 223.1293487548828 269.2196960449219 222.4810791015625 268.9268493652344 221.973876953125 C268.634033203125 221.4666748046875 267.9857482910156 221.29296875 267.4785461425781 221.58580017089844 L223.2908172607422 247.0976104736328 C222.7836151123047 247.39044189453125 222.6099090576172 248.03871154785156 222.90274047851562 248.54591369628906 C223.19557189941406 249.05311584472656 223.84384155273438 249.22682189941406 224.35104370117188 248.93399047851562 ZM258.43634033203125 218.64976501464844 C258.94354248046875 218.35693359375 259.11724853515625 217.7086639404297 258.8244323730469 217.2014617919922 C258.5315856933594 216.6942596435547 257.8833312988281 216.5205535888672 257.3761291503906 216.81338500976562 L224.20899963378906 235.96243286132812 C223.70179748535156 236.25526428222656 223.52810668945312 236.90353393554688 223.82093811035156 237.41073608398438 C224.11376953125 237.91793823242188 224.7620391845703 238.09164428710938 225.2692413330078 237.79881286621094 Z" clip-path="url(#1548271808118-clipPath1)" stroke="none" />
    </g>
    <g text-rendering="optimizeLegibility" font-size="20" shape-rendering="geometricPrecision" font-family="sans-serif">
      <path d="M224.35104370117188 247.0976104736328 L180.16329956054688 221.58580017089844 C179.65609741210938 221.29296875 179.00784301757812 221.4666748046875 178.7150115966797 221.973876953125 C178.4221649169922 222.4810791015625 178.5958709716797 223.1293487548828 179.1030731201172 223.42218017578125 L223.2908172607422 248.93397521972656 C223.7980194091797 249.22682189941406 224.4462890625 249.05311584472656 224.73912048339844 248.54591369628906 C225.03195190429688 248.03871154785156 224.85824584960938 247.39044189453125 224.35104370117188 247.0976104736328 Z" clip-path="url(#1548271808118-clipPath1)" stroke="none" />
    </g>
    <g text-rendering="optimizeLegibility" font-size="20" shape-rendering="geometricPrecision" font-family="sans-serif">
      <path d="M178.57296752929688 222.50399780273438 C178.57296752929688 223.08966064453125 179.0475311279297 223.56422424316406 179.63319396972656 223.56422424316406 C180.21885681152344 223.56422424316406 180.69342041015625 223.08966064453125 180.69342041015625 222.50399780273438 L180.69342041015625 171.48037719726562 C180.69342041015625 170.89471435546875 180.21885681152344 170.42015075683594 179.63319396972656 170.42015075683594 C179.0475311279297 170.42015075683594 178.57296752929688 170.89471435546875 178.57296752929688 171.48037719726562 ZM187.75721740722656 216.1412353515625 C187.75721740722656 216.72689819335938 188.23178100585938 217.2014617919922 188.81744384765625 217.2014617919922 C189.40310668945312 217.2014617919922 189.87767028808594 216.72689819335938 189.87767028808594 216.1412353515625 L189.87767028808594 177.8431396484375 C189.87767028808594 177.25747680664062 189.40310668945312 176.7829132080078 188.81744384765625 176.7829132080078 C188.23178100585938 176.7829132080078 187.75721740722656 177.25747680664062 187.75721740722656 177.8431396484375 Z" clip-path="url(#1548271808118-clipPath1)" stroke="none" />
    </g>
    <g text-rendering="optimizeLegibility" font-size="20" shape-rendering="geometricPrecision" font-family="sans-serif">
      <path d="M223.2908172607422 145.05039978027344 L179.1030731201172 170.56219482421875 C178.5958709716797 170.8550262451172 178.4221649169922 171.5032958984375 178.7150115966797 172.010498046875 C179.00784301757812 172.5177001953125 179.65609741210938 172.69140625 180.16329956054688 172.39857482910156 L224.35104370117188 146.8867645263672 C224.85824584960938 146.59393310546875 225.03195190429688 145.94566345214844 224.73912048339844 145.43846130371094 C224.4462890625 144.93125915527344 223.7980194091797 144.75755310058594 223.2908172607422 145.05039978027344 Z" clip-path="url(#1548271808118-clipPath1)" stroke="none" />
    </g>
    <g text-rendering="optimizeLegibility" font-size="20" shape-rendering="geometricPrecision" font-family="sans-serif">
      <path d="M222.7606964111328 248.0157928466797 L222.7606964111328 299.0393981933594 C222.7606964111328 299.62506103515625 223.23526000976562 300.0996398925781 223.82093811035156 300.0996398925781 C224.40660095214844 300.0996398925781 224.88116455078125 299.62506103515625 224.88116455078125 299.0393981933594 L224.88116455078125 248.0157928466797 C224.88116455078125 247.4301300048828 224.40660095214844 246.95556640625 223.82093811035156 246.95556640625 C223.23526000976562 246.95556640625 222.7606964111328 247.4301300048828 222.7606964111328 248.0157928466797 Z" clip-path="url(#1548271808118-clipPath1)" stroke="none" />
    </g>
    <g text-rendering="optimizeLegibility" font-size="20" shape-rendering="geometricPrecision" font-family="sans-serif">
      <path d="M223.2908172607422 299.95758056640625 L267.4785461425781 325.4693908691406 C267.9857482910156 325.7622375488281 268.634033203125 325.5885314941406 268.9268493652344 325.0813293457031 C269.2196960449219 324.5741271972656 269.0459899902344 323.92584228515625 268.5387878417969 323.6330261230469 L224.35104370117188 298.1212158203125 C223.84384155273438 297.828369140625 223.19557189941406 298.0020751953125 222.90274047851562 298.50927734375 C222.6099090576172 299.0164794921875 222.7836151123047 299.6647644042969 223.2908172607422 299.95758056640625 Z" clip-path="url(#1548271808118-clipPath1)" stroke="none" />
    </g>
    <g text-rendering="optimizeLegibility" font-size="20" shape-rendering="geometricPrecision" font-family="sans-serif">
      <path d="M223.2908172607422 298.1212158203125 L179.1030731201172 323.6330261230469 C178.5958709716797 323.92584228515625 178.4221649169922 324.5741271972656 178.7150115966797 325.0813293457031 C179.00784301757812 325.5885314941406 179.65609741210938 325.7622375488281 180.16329956054688 325.4693908691406 L224.35104370117188 299.95758056640625 C224.85824584960938 299.6647644042969 225.03195190429688 299.0164794921875 224.73912048339844 298.50927734375 C224.4462890625 298.0020751953125 223.7980194091797 297.828369140625 223.2908172607422 298.1212158203125 Z" clip-path="url(#1548271808118-clipPath1)" stroke="none" />
    </g>
    <g font-size="20" fill="url(#1548271808802-linearGradient1)" text-rendering="optimizeLegibility" font-family="sans-serif" shape-rendering="geometricPrecision" stroke="url(#1548271808802-linearGradient1)">
      <path d="M178.57296752929688 324.55120849609375 L178.57296752929688 362.1913146972656 C178.57296752929688 362.7769775390625 179.0475311279297 363.2515563964844 179.63319396972656 363.2515563964844 C180.21885681152344 363.2515563964844 180.69342041015625 362.7769775390625 180.69342041015625 362.1913146972656 L180.69342041015625 324.55120849609375 C180.69342041015625 323.9655456542969 180.21885681152344 323.490966796875 179.63319396972656 323.490966796875 C179.0475311279297 323.490966796875 178.57296752929688 323.9655456542969 178.57296752929688 324.55120849609375 Z" clip-path="url(#1548271808118-clipPath1)" stroke="none" />
    </g>
    <g font-size="20" fill="url(#1548271808247-linearGradient1)" text-rendering="optimizeLegibility" font-family="sans-serif" shape-rendering="geometricPrecision" stroke="url(#1548271808247-linearGradient1)">
      <path d="M179.1030731201172 330.77191162109375 C179.6102752685547 331.06475830078125 180.258544921875 330.89105224609375 180.55137634277344 330.38385009765625 C180.84420776367188 329.87664794921875 180.67050170898438 329.2283935546875 180.16331481933594 328.935546875 L144.9878692626953 308.6269836425781 C144.4806671142578 308.33416748046875 143.8323974609375 308.50787353515625 143.53956604003906 309.01507568359375 C143.24673461914062 309.52227783203125 143.42042541503906 310.1705322265625 143.92762756347656 310.46337890625 ZM183.69520568847656 322.818115234375 C184.20240783691406 323.1109619140625 184.85067749023438 322.937255859375 185.1435089111328 322.4300537109375 C185.43634033203125 321.9228515625 185.26263427734375 321.27459716796875 184.75543212890625 320.98175048828125 L149.57998657226562 300.6732177734375 C149.07278442382812 300.38037109375 148.4245147705078 300.5540771484375 148.13168334960938 301.061279296875 C147.83885192871094 301.5684814453125 148.01255798339844 302.21673583984375 148.51976013183594 302.50958251953125 Z" clip-path="url(#1548271808118-clipPath1)" stroke="none" />
    </g>
  </g>
</svg>