<svg xmlns="http://www.w3.org/2000/svg" viewBox="0 0 400 400">
  <defs id="genericDefs" />
  <g>
    <defs id="903268937103-defs1">
      <clipPath clipPathUnits="userSpaceOnUse" id="903268937556-clipPath1">
        <path d="M0 0 L0 400 L400 400 L400 0 Z" />
      </clipPath>
      <clipPath clipPathUnits="userSpaceOnUse" id="903268937395-clipPath1">
        <path d="M0 0 L400 0 L400 400 L0 400 L0 0 Z" />
      </clipPath>
    </defs>
    <g text-rendering="optimizeLegibility" shape-rendering="geometricPrecision">
      <path d="M195.3291473388672 101.54674530029297 L311.2164001464844 302.26934814453125 C312.5466003417969 304.57330322265625 315.4913330078125 305.36236572265625 317.7953186035156 304.03216552734375 C320.0992736816406 302.7019958496094 320.8883056640625 299.7572326660156 319.55810546875 297.4532470703125 L203.6708526611328 96.73065185546875 C202.34066772460938 94.42668914794922 199.3959197998047 93.63764953613281 197.09194946289062 94.96784210205078 C194.78799438476562 96.29803466796875 193.9989471435547 99.24278259277344 195.3291473388672 101.54674530029297 Z" clip-path="url(#903268937556-clipPath1)" stroke="none" />
    </g>
    <g text-rendering="optimizeLegibility" shape-rendering="geometricPrecision">
      <path d="M315.3872375488281 295.0451965332031 L83.61274719238281 295.0451965332031 C80.95236206054688 295.0451965332031 78.79664611816406 297.200927734375 78.79664611816406 299.8612976074219 C78.79664611816406 302.5216979980469 80.95236206054688 304.6773986816406 83.61274719238281 304.6773986816406 L315.3872375488281 304.6773986816406 C318.0476379394531 304.6773986816406 320.2033386230469 302.5216979980469 320.2033386230469 299.8612976074219 C320.2033386230469 297.200927734375 318.0476379394531 295.0451965332031 315.3872375488281 295.0451965332031 Z" clip-path="url(#903268937556-clipPath1)" stroke="none" />
    </g>
    <g text-rendering="optimizeLegibility" shape-rendering="geometricPrecision">
      <path d="M195.3291473388672 96.73065185546875 L79.44188690185547 297.4532470703125 C78.1116943359375 299.7572326660156 78.9007339477539 302.7019958496094 81.20469665527344 304.03216552734375 C83.50865936279297 305.36236572265625 86.45341491699219 304.57330322265625 87.78360748291016 302.26934814453125 L203.6708526611328 101.54674530029297 C205.0010528564453 99.24278259277344 204.21200561523438 96.29803466796875 201.90805053710938 94.96784210205078 C199.6040802001953 93.63764953613281 196.65933227539062 94.42668914794922 195.3291473388672 96.73065185546875 Z" clip-path="url(#903268937556-clipPath1)" stroke="none" />
    </g>
  </g>
</svg>