<svg xmlns="http://www.w3.org/2000/svg" viewBox="0 0 400 400">
  <defs id="genericDefs" />
  <g>
    <defs id="1174881426419-defs1">
      <clipPath clipPathUnits="userSpaceOnUse" id="1174881426109-clipPath1">
        <path d="M0 0 L0 400 L400 400 L400 0 Z" />
      </clipPath>
      <clipPath clipPathUnits="userSpaceOnUse" id="117488142626-clipPath1">
        <path d="M0 0 L400 0 L400 400 L0 400 L0 0 Z" />
      </clipPath>
    </defs>
    <g text-rendering="optimizeLegibility" shape-rendering="geometricPrecision">
      <path d="M197.97677612304688 55.52802276611328 L324.94500732421875 128.83316040039062 C326.4023742675781 129.67457580566406 328.2651062011719 129.1754608154297 329.1065368652344 127.71807861328125 C329.94793701171875 126.26069641113281 329.4488220214844 124.39797973632812 327.991455078125 123.55655670166016 L201.02322387695312 50.25141906738281 C199.5658416748047 49.40999984741211 197.703125 49.909114837646484 196.8616943359375 51.36649703979492 C196.02027893066406 52.82387924194336 196.51939392089844 54.68659973144531 197.97677612304688 55.52802276611328 Z" clip-path="url(#1174881426109-clipPath1)" stroke="none" />
    </g>
    <g text-rendering="optimizeLegibility" shape-rendering="geometricPrecision">
      <path d="M323.4217834472656 126.19486236572266 L323.4217834472656 272.8051452636719 C323.4217834472656 274.48797607421875 324.785400390625 275.8515930175781 326.4682312011719 275.8515930175781 C328.15106201171875 275.8515930175781 329.5146789550781 274.48797607421875 329.5146789550781 272.8051452636719 L329.5146789550781 126.19486236572266 C329.5146789550781 124.51201629638672 328.15106201171875 123.1484146118164 326.4682312011719 123.1484146118164 C324.785400390625 123.1484146118164 323.4217834472656 124.51201629638672 323.4217834472656 126.19486236572266 Z" clip-path="url(#1174881426109-clipPath1)" stroke="none" />
    </g>
    <g text-rendering="optimizeLegibility" shape-rendering="geometricPrecision">
      <path d="M324.94500732421875 270.1668395996094 L197.97677612304688 343.47198486328125 C196.51939392089844 344.3133850097656 196.02027893066406 346.1761169433594 196.86170959472656 347.6335144042969 C197.703125 349.09088134765625 199.5658416748047 349.5899963378906 201.02322387695312 348.7485656738281 L327.991455078125 275.4434509277344 C329.4488220214844 274.6020202636719 329.94793701171875 272.7392883300781 329.1065368652344 271.28192138671875 C328.2651062011719 269.82452392578125 326.4023742675781 269.3254089355469 324.94500732421875 270.1668395996094 Z" clip-path="url(#1174881426109-clipPath1)" stroke="none" />
    </g>
    <g text-rendering="optimizeLegibility" shape-rendering="geometricPrecision">
      <path d="M201.02322387695312 343.47198486328125 L74.05500030517578 270.1668395996094 C72.59761047363281 269.3254089355469 70.73489379882812 269.82452392578125 69.89347839355469 271.28192138671875 C69.05205535888672 272.7392883300781 69.55116271972656 274.6020202636719 71.00855255126953 275.4434509277344 L197.97677612304688 348.7485656738281 C199.4341583251953 349.5899963378906 201.296875 349.09088134765625 202.1383056640625 347.6335144042969 C202.97972106933594 346.1761169433594 202.48060607910156 344.3133850097656 201.02322387695312 343.47198486328125 Z" clip-path="url(#1174881426109-clipPath1)" stroke="none" />
    </g>
    <g text-rendering="optimizeLegibility" shape-rendering="geometricPrecision">
      <path d="M75.5782241821289 272.8051452636719 L75.5782241821289 126.19486236572266 C75.5782241821289 124.51201629638672 74.21461486816406 123.1484146118164 72.53177642822266 123.1484146118164 C70.84893035888672 123.1484146118164 69.4853286743164 124.51201629638672 69.4853286743164 126.19486236572266 L69.4853286743164 272.8051452636719 C69.4853286743164 274.48797607421875 70.84893035888672 275.8515930175781 72.53177642822266 275.8515930175781 C74.21461486816406 275.8515930175781 75.5782241821289 274.48797607421875 75.5782241821289 272.8051452636719 Z" clip-path="url(#1174881426109-clipPath1)" stroke="none" />
    </g>
    <g text-rendering="optimizeLegibility" shape-rendering="geometricPrecision">
      <path d="M197.97677612304688 50.25141906738281 L71.00855255126953 123.55655670166016 C69.55116271972656 124.39797973632812 69.05205535888672 126.26069641113281 69.89347839355469 127.71807861328125 C70.73489379882812 129.1754608154297 72.59761047363281 129.67457580566406 74.05500030517578 128.83316040039062 L201.02322387695312 55.52802276611328 C202.48060607910156 54.68659973144531 202.97972106933594 52.82387924194336 202.1383056640625 51.36649703979492 C201.296875 49.909114837646484 199.4341583251953 49.40999984741211 197.97677612304688 50.25141906738281 Z" clip-path="url(#1174881426109-clipPath1)" stroke="none" />
    </g>
  </g>
</svg>