<svg xmlns="http://www.w3.org/2000/svg" viewBox="0 0 400 400">
  <defs id="genericDefs" />
  <g>
    <defs id="454160179580-defs1">
      <clipPath clipPathUnits="userSpaceOnUse" id="454160179734-clipPath1">
        <path d="M0 0 L0 400 L400 400 L400 0 Z" />
      </clipPath>
      <clipPath clipPathUnits="userSpaceOnUse" id="45416017955-clipPath1">
        <path d="M0 0 L400 0 L400 400 L0 400 L0 0 Z" />
      </clipPath>
    </defs>
    <g text-rendering="optimizeLegibility" shape-rendering="geometricPrecision">
      <path d="M201.02322387695312 50.25141906738281 C199.5658416748047 49.40999984741211 197.703125 49.909114837646484 196.8616943359375 51.36649703979492 C196.02027893066406 52.82387924194336 196.51939392089844 54.68659973144531 197.97677612304688 55.52802276611328 L324.94500732421875 128.83316040039062 C326.4023742675781 129.67457580566406 328.2651062011719 129.1754608154297 329.1065368652344 127.71807861328125 C329.94793701171875 126.26069641113281 329.4488220214844 124.39797973632812 327.991455078125 123.55655670166016 ZM203.66152954101562 82.24701690673828 C202.2041473388672 81.40559387207031 200.34141540527344 81.90470886230469 199.5 83.36209869384766 C198.65858459472656 84.8194808959961 199.15769958496094 86.68219757080078 200.61508178710938 87.52362060546875 L295.9168701171875 142.54612731933594 C297.3742370605469 143.38755798339844 299.2369689941406 142.888427734375 300.078369140625 141.43104553222656 C300.9197998046875 139.97366333007812 300.4206848144531 138.11094665527344 298.96331787109375 137.26953125 Z" clip-path="url(#454160179734-clipPath1)" stroke="none" />
    </g>
    <g text-rendering="optimizeLegibility" shape-rendering="geometricPrecision">
      <path d="M323.4217834472656 126.19486236572266 L323.4217834472656 272.8051452636719 C323.4217834472656 274.48797607421875 324.785400390625 275.8515930175781 326.4682312011719 275.8515930175781 C328.15106201171875 275.8515930175781 329.5146789550781 274.48797607421875 329.5146789550781 272.8051452636719 L329.5146789550781 126.19486236572266 C329.5146789550781 124.51201629638672 328.15106201171875 123.1484146118164 326.4682312011719 123.1484146118164 C324.785400390625 123.1484146118164 323.4217834472656 124.51201629638672 323.4217834472656 126.19486236572266 Z" clip-path="url(#454160179734-clipPath1)" stroke="none" />
    </g>
    <g text-rendering="optimizeLegibility" shape-rendering="geometricPrecision">
      <path d="M327.991455078125 275.4434509277344 C329.4488220214844 274.6020202636719 329.94793701171875 272.7392883300781 329.1065368652344 271.28192138671875 C328.2651062011719 269.82452392578125 326.4023742675781 269.3254089355469 324.94500732421875 270.1668395996094 L197.97677612304688 343.47198486328125 C196.51939392089844 344.3133850097656 196.02027893066406 346.1761169433594 196.86170959472656 347.6335144042969 C197.703125 349.09088134765625 199.5658416748047 349.5899963378906 201.02322387695312 348.7485656738281 ZM298.9632873535156 261.73046875 C300.4206848144531 260.8890686035156 300.9197998046875 259.0263366699219 300.078369140625 257.5689392089844 C299.2369689941406 256.111572265625 297.3742370605469 255.61245727539062 295.9168395996094 256.4538879394531 L200.6150665283203 311.47637939453125 C199.15768432617188 312.31781005859375 198.6585693359375 314.1805114746094 199.5 315.6379089355469 C200.34141540527344 317.0953063964844 202.20413208007812 317.59442138671875 203.66151428222656 316.75299072265625 Z" clip-path="url(#454160179734-clipPath1)" stroke="none" />
    </g>
    <g text-rendering="optimizeLegibility" shape-rendering="geometricPrecision">
      <path d="M201.02322387695312 343.47198486328125 L74.05500030517578 270.1668395996094 C72.59761047363281 269.3254089355469 70.73489379882812 269.82452392578125 69.89347839355469 271.28192138671875 C69.05205535888672 272.7392883300781 69.55116271972656 274.6020202636719 71.00855255126953 275.4434509277344 L197.97677612304688 348.7485656738281 C199.4341583251953 349.5899963378906 201.296875 349.09088134765625 202.1383056640625 347.6335144042969 C202.97972106933594 346.1761169433594 202.48060607910156 344.3133850097656 201.02322387695312 343.47198486328125 Z" clip-path="url(#454160179734-clipPath1)" stroke="none" />
    </g>
    <g text-rendering="optimizeLegibility" shape-rendering="geometricPrecision">
      <path d="M69.4853286743164 272.8051452636719 C69.4853286743164 274.48797607421875 70.84893035888672 275.8515930175781 72.53177642822266 275.8515930175781 C74.21461486816406 275.8515930175781 75.5782241821289 274.48797607421875 75.5782241821289 272.8051452636719 L75.5782241821289 126.19486236572266 C75.5782241821289 124.51201629638672 74.21461486816406 123.1484146118164 72.53177642822266 123.1484146118164 C70.84893035888672 123.1484146118164 69.4853286743164 124.51201629638672 69.4853286743164 126.19486236572266 ZM95.87517547607422 254.5225067138672 C95.87517547607422 256.2053527832031 97.23878479003906 257.5689392089844 98.92162322998047 257.5689392089844 C100.60446166992188 257.5689392089844 101.96807098388672 256.2053527832031 101.96807098388672 254.5225067138672 L101.96807098388672 144.4774932861328 C101.96807098388672 142.79464721679688 100.60446166992188 141.43104553222656 98.92162322998047 141.43104553222656 C97.23878479003906 141.43104553222656 95.87517547607422 142.79464721679688 95.87517547607422 144.4774932861328 Z" clip-path="url(#454160179734-clipPath1)" stroke="none" />
    </g>
    <g text-rendering="optimizeLegibility" shape-rendering="geometricPrecision">
      <path d="M197.97677612304688 50.25141906738281 L71.00855255126953 123.55655670166016 C69.55116271972656 124.39797973632812 69.05205535888672 126.26069641113281 69.89347839355469 127.71807861328125 C70.73489379882812 129.1754608154297 72.59761047363281 129.67457580566406 74.05500030517578 128.83316040039062 L201.02322387695312 55.52802276611328 C202.48060607910156 54.68659973144531 202.97972106933594 52.82387924194336 202.1383056640625 51.36649703979492 C201.296875 49.909114837646484 199.4341583251953 49.40999984741211 197.97677612304688 50.25141906738281 Z" clip-path="url(#454160179734-clipPath1)" stroke="none" />
    </g>
  </g>
</svg>