<svg xmlns="http://www.w3.org/2000/svg" viewBox="0 0 400 400">
  <defs id="genericDefs" />
  <g>
    <defs id="1156210828975-defs1">
      <linearGradient x1="243.88790893554688" gradientUnits="userSpaceOnUse" x2="244.42514038085938" y1="358.30291748046875" y2="355.94915771484375" id="1156210828826-linearGradient1" spreadMethod="pad">
        <stop stop-opacity="1" stop-color="black" offset="0%" />
        <stop stop-opacity="1" stop-color="rgb(51,51,153)" offset="100%" />
      </linearGradient>
      <linearGradient x1="225.1740264892578" gradientUnits="userSpaceOnUse" x2="223.2864532470703" y1="299.7648620605469" y2="298.25958251953125" id="1156210828648-linearGradient1" spreadMethod="pad">
        <stop stop-opacity="1" stop-color="rgb(51,51,153)" offset="0%" />
        <stop stop-opacity="1" stop-color="black" offset="100%" />
      </linearGradient>
      <linearGradient x1="89.25416564941406" gradientUnits="userSpaceOnUse" x2="87.16333770751953" y1="217.26681518554688" y2="216.05966186523438" id="1156210828797-linearGradient1" spreadMethod="pad">
        <stop stop-opacity="1" stop-color="black" offset="0%" />
        <stop stop-opacity="1" stop-color="rgb(0,153,0)" offset="100%" />
      </linearGradient>
      <linearGradient x1="273.7210998535156" gradientUnits="userSpaceOnUse" x2="276.0748596191406" y1="195.7565155029297" y2="196.2937469482422" id="1156210828340-linearGradient1" spreadMethod="pad">
        <stop stop-opacity="1" stop-color="black" offset="0%" />
        <stop stop-opacity="1" stop-color="rgb(51,51,153)" offset="100%" />
      </linearGradient>
      <linearGradient x1="324.3185119628906" gradientUnits="userSpaceOnUse" x2="325.36602783203125" y1="235.71620178222656" y2="237.89138793945312" id="1156210828995-linearGradient1" spreadMethod="pad">
        <stop stop-opacity="1" stop-color="rgb(51,51,153)" offset="0%" />
        <stop stop-opacity="1" stop-color="black" offset="100%" />
      </linearGradient>
      <linearGradient x1="285.1816101074219" gradientUnits="userSpaceOnUse" x2="287.5353698730469" y1="313.9020080566406" y2="313.3647766113281" id="1156210828976-linearGradient1" spreadMethod="pad">
        <stop stop-opacity="1" stop-color="rgb(51,51,153)" offset="0%" />
        <stop stop-opacity="1" stop-color="black" offset="100%" />
      </linearGradient>
      <linearGradient x1="321.4540100097656" gradientUnits="userSpaceOnUse" x2="322.95928955078125" y1="324.1612854003906" y2="326.0488586425781" id="1156210828692-linearGradient1" spreadMethod="pad">
        <stop stop-opacity="1" stop-color="black" offset="0%" />
        <stop stop-opacity="1" stop-color="red" offset="100%" />
      </linearGradient>
      <clipPath clipPathUnits="userSpaceOnUse" id="1156210828261-clipPath1">
        <path d="M-243.80966186523438 -306.4048156738281 L156.19033813476562 -306.4048156738281 L156.19033813476562 93.59518432617188 L-243.80966186523438 93.59518432617188 L-243.80966186523438 -306.4048156738281 Z" />
      </clipPath>
      <clipPath clipPathUnits="userSpaceOnUse" id="1156210828794-clipPath1">
        <path d="M-45.458370208740234 -183.04347229003906 L354.5416259765625 -183.04347229003906 L354.5416259765625 216.95652770996094 L-45.458370208740234 216.95652770996094 L-45.458370208740234 -183.04347229003906 Z" />
      </clipPath>
      <clipPath clipPathUnits="userSpaceOnUse" id="1156210828501-clipPath1">
        <path d="M-300.4468078613281 -188.7965545654297 L99.55318450927734 -188.7965545654297 L99.55318450927734 211.2034454345703 L-300.4468078613281 211.2034454345703 L-300.4468078613281 -188.7965545654297 Z" />
      </clipPath>
      <clipPath clipPathUnits="userSpaceOnUse" id="1156210828466-clipPath1">
        <path d="M-336.1676330566406 -338.897216796875 L63.832366943359375 -338.897216796875 L63.832366943359375 61.10277557373047 L-336.1676330566406 61.10277557373047 L-336.1676330566406 -338.897216796875 Z" />
      </clipPath>
      <clipPath clipPathUnits="userSpaceOnUse" id="1156210828163-clipPath1">
        <path d="M60.315792083740234 187.53956604003906 C63.25519561767578 187.53956604003906 65.63805389404297 189.92242431640625 65.63805389404297 192.86183166503906 L65.63805389404297 203.50636291503906 C65.63805389404297 206.44577026367188 63.25519561767578 208.82862854003906 60.315792083740234 208.82862854003906 L51.600948333740234 208.82862854003906 C48.66154098510742 208.82862854003906 46.278682708740234 206.44577026367188 46.278682708740234 203.50636291503906 L46.278682708740234 192.86183166503906 C46.278682708740234 189.92242431640625 48.66154098510742 187.53956604003906 51.600948333740234 187.53956604003906 ZM310.2846984863281 193.5035858154297 C313.12701416015625 193.5035858154297 315.4311828613281 195.8077392578125 315.4311828613281 198.6500701904297 L315.4311828613281 208.9430389404297 C315.4311828613281 211.78536987304688 313.12701416015625 214.0895233154297 310.2846984863281 214.0895233154297 L307.6089172363281 214.0895233154297 C304.7666015625 214.0895233154297 302.4624328613281 211.78536987304688 302.4624328613281 208.9430389404297 L302.4624328613281 198.6500701904297 C302.4624328613281 195.8077392578125 304.7666015625 193.5035858154297 307.6089172363281 193.5035858154297 ZM253.64755249023438 311.1118469238281 C256.4898681640625 311.1118469238281 258.7940368652344 313.416015625 258.7940368652344 316.2583312988281 L258.7940368652344 326.5513000488281 C258.7940368652344 329.39361572265625 256.4898681640625 331.6977844238281 253.64755249023438 331.6977844238281 L250.97177124023438 331.6977844238281 C248.1294403076172 331.6977844238281 245.82528686523438 329.39361572265625 245.82528686523438 326.5513000488281 L245.82528686523438 316.2583312988281 C245.82528686523438 313.416015625 248.1294403076172 311.1118469238281 250.97177124023438 311.1118469238281 ZM347.7203674316406 343.393310546875 C350.6597595214844 343.393310546875 353.0426330566406 345.77618408203125 353.0426330566406 348.715576171875 L353.0426330566406 359.360107421875 C353.0426330566406 362.2995300292969 350.6597595214844 364.682373046875 347.7203674316406 364.682373046875 L342.6148986816406 364.682373046875 C339.67547607421875 364.682373046875 337.2926330566406 362.2995300292969 337.2926330566406 359.360107421875 L337.2926330566406 348.715576171875 C337.2926330566406 345.77618408203125 339.67547607421875 343.393310546875 342.6148986816406 343.393310546875 ZM0 0 L0 400 L400 400 L400 0 Z" />
      </clipPath>
      <clipPath clipPathUnits="userSpaceOnUse" id="1156210828744-clipPath1">
        <path d="M0 0 L400 0 L400 400 L0 400 L0 0 Z" />
      </clipPath>
    </defs>
    <g font-size="23" transform="translate(243.80965795198293,306.4048155434476)" fill="rgb(51,51,153)" text-rendering="optimizeLegibility" font-family="sans-serif" shape-rendering="geometricPrecision" stroke="rgb(51,51,153)">
      <text xml:space="preserve" x="0" y="24" clip-path="url(#1156210828261-clipPath1)" stroke="none">N
      </text>
    </g>
    <g font-size="23" transform="translate(45.458368495985184,183.04347005350112)" fill="rgb(0,153,0)" text-rendering="optimizeLegibility" font-family="sans-serif" shape-rendering="geometricPrecision" stroke="rgb(0,153,0)">
      <text xml:space="preserve" x="0" y="24" clip-path="url(#1156210828794-clipPath1)" stroke="none">Cl
      </text>
    </g>
    <g font-size="23" transform="translate(300.44681198831535,188.79655334603996)" fill="rgb(51,51,153)" text-rendering="optimizeLegibility" font-family="sans-serif" shape-rendering="geometricPrecision" stroke="rgb(51,51,153)">
      <text xml:space="preserve" x="0" y="24" clip-path="url(#1156210828501-clipPath1)" stroke="none">N
      </text>
    </g>
    <g font-size="23" transform="translate(336.1676315040148,338.89722579695126)" fill="red" text-rendering="optimizeLegibility" font-family="sans-serif" shape-rendering="geometricPrecision" stroke="red">
      <text xml:space="preserve" x="0" y="24" clip-path="url(#1156210828466-clipPath1)" stroke="none">O
      </text>
    </g>
    <g font-size="23" fill="url(#1156210828826-linearGradient1)" text-rendering="optimizeLegibility" font-family="sans-serif" shape-rendering="geometricPrecision" stroke="url(#1156210828826-linearGradient1)">
      <path d="M240.55947875976562 378.3105773925781 L250.10733032226562 336.47869873046875 C250.25570678710938 335.82861328125 249.8491668701172 335.18157958984375 249.19906616210938 335.033203125 C248.54896545410156 334.88482666015625 247.90196228027344 335.2913818359375 247.75357055664062 335.94146728515625 L238.20571899414062 377.7733459472656 C238.05734252929688 378.4234619140625 238.46388244628906 379.0704650878906 239.11398315429688 379.2188415527344 C239.7640838623047 379.3672180175781 240.4110870361328 378.960693359375 240.55947875976562 378.3105773925781 Z" clip-path="url(#1156210828163-clipPath1)" stroke="none" />
    </g>
    <g font-size="23" fill="url(#1156210828648-linearGradient1)" text-rendering="optimizeLegibility" font-family="sans-serif" shape-rendering="geometricPrecision" stroke="url(#1156210828648-linearGradient1)">
      <path d="M242.32293701171875 311.89666748046875 L207.642822265625 284.2402038574219 C207.12149047851562 283.824462890625 206.36216735839844 283.9100036621094 205.9464111328125 284.4313659667969 C205.53065490722656 284.95269775390625 205.6162109375 285.7120361328125 206.13754272460938 286.1277770996094 L240.81765747070312 313.78424072265625 C241.3389892578125 314.1999816894531 242.0983123779297 314.11444091796875 242.51406860351562 313.5931091308594 C242.92982482910156 313.0717468261719 242.84426879882812 312.31243896484375 242.32293701171875 311.89666748046875 Z" clip-path="url(#1156210828163-clipPath1)" stroke="none" />
    </g>
    <g text-rendering="optimizeLegibility" font-size="23" shape-rendering="geometricPrecision" font-family="sans-serif">
      <path d="M195.22618103027344 277.9395751953125 C195.22618103027344 278.6064147949219 195.76651000976562 279.146728515625 196.43331909179688 279.146728515625 C197.1001434326172 279.146728515625 197.64047241210938 278.6064147949219 197.64047241210938 277.9395751953125 L197.64047241210938 234.33473205566406 C197.64047241210938 233.66790771484375 197.1001434326172 233.12757873535156 196.43331909179688 233.12757873535156 C195.76651000976562 233.12757873535156 195.22618103027344 233.66790771484375 195.22618103027344 234.33473205566406 ZM205.68304443359375 285.1839904785156 C205.68304443359375 285.8507995605469 206.22337341308594 286.3911437988281 206.8901824951172 286.3911437988281 C207.5570068359375 286.3911437988281 208.0973358154297 285.8507995605469 208.0973358154297 285.1839904785156 L208.0973358154297 227.09031677246094 C208.0973358154297 226.42349243164062 207.5570068359375 225.88316345214844 206.8901824951172 225.88316345214844 C206.22337341308594 225.88316345214844 205.68304443359375 226.42349243164062 205.68304443359375 227.09031677246094 Z" clip-path="url(#1156210828163-clipPath1)" stroke="none" />
    </g>
    <g text-rendering="optimizeLegibility" font-size="23" shape-rendering="geometricPrecision" font-family="sans-serif">
      <path d="M207.49375915527344 226.04489135742188 L157.1831512451172 196.998046875 C156.6056671142578 196.66464233398438 155.86756896972656 196.86241149902344 155.53416442871094 197.4398956298828 C155.2007598876953 198.0173797607422 155.39852905273438 198.75547790527344 155.97601318359375 199.08888244628906 L206.28662109375 228.13572692871094 C206.86410522460938 228.46913146972656 207.60218811035156 228.2713623046875 207.93560791015625 227.69387817382812 C208.26901245117188 227.11639404296875 208.0712432861328 226.37831115722656 207.49375915527344 226.04489135742188 Z" clip-path="url(#1156210828163-clipPath1)" stroke="none" />
    </g>
    <g text-rendering="optimizeLegibility" font-size="23" shape-rendering="geometricPrecision" font-family="sans-serif">
      <path d="M156.1377410888672 211.76699829101562 C156.71522521972656 211.43359375 156.91299438476562 210.69549560546875 156.57957458496094 210.11801147460938 C156.2461700439453 209.54052734375 155.50807189941406 209.34275817871094 154.9305877685547 209.67617797851562 L117.16767883300781 231.4785919189453 C116.59020233154297 231.81201171875 116.39242553710938 232.55010986328125 116.72583770751953 233.12757873535156 C117.05924987792969 233.70506286621094 117.7973403930664 233.90283203125 118.37482452392578 233.56942749023438 ZM157.1831512451172 199.08888244628906 C157.76063537597656 198.75547790527344 157.95840454101562 198.0173797607422 157.625 197.4398956298828 C157.2915802001953 196.86241149902344 156.55349731445312 196.66464233398438 155.97601318359375 196.99806213378906 L105.6654052734375 226.04489135742188 C105.08792114257812 226.37831115722656 104.89015197753906 227.1164093017578 105.22355651855469 227.69387817382812 C105.55696868896484 228.2713623046875 106.2950668334961 228.46913146972656 106.87254333496094 228.13572692871094 Z" clip-path="url(#1156210828163-clipPath1)" stroke="none" />
    </g>
    <g font-size="23" fill="url(#1156210828797-linearGradient1)" text-rendering="optimizeLegibility" font-family="sans-serif" shape-rendering="geometricPrecision" stroke="url(#1156210828797-linearGradient1)">
      <path d="M106.87254333496094 226.04489135742188 L70.7520980834961 205.1907501220703 C70.17461395263672 204.85733032226562 69.43651580810547 205.05511474609375 69.10311126708984 205.63258361816406 C68.76969909667969 206.21006774902344 68.96747589111328 206.9481658935547 69.54495239257812 207.2815704345703 L105.6654052734375 228.13572692871094 C106.24288177490234 228.46913146972656 106.9809799194336 228.2713623046875 107.31439208984375 227.69387817382812 C107.64779663085938 227.11639404296875 107.45002746582031 226.37831115722656 106.87254333496094 226.04489135742188 Z" clip-path="url(#1156210828163-clipPath1)" stroke="none" />
    </g>
    <g text-rendering="optimizeLegibility" font-size="23" shape-rendering="geometricPrecision" font-family="sans-serif">
      <path d="M105.06183624267578 227.09031677246094 L105.06183624267578 285.1839904785156 C105.06183624267578 285.8507995605469 105.60215759277344 286.3911437988281 106.26897430419922 286.3911437988281 C106.935791015625 286.3911437988281 107.47611236572266 285.8507995605469 107.47611999511719 285.1839904785156 L107.47611999511719 227.09031677246094 C107.47611236572266 226.42349243164062 106.935791015625 225.88316345214844 106.26897430419922 225.88316345214844 C105.60215759277344 225.88316345214844 105.06183624267578 226.42349243164062 105.06183624267578 227.09031677246094 Z" clip-path="url(#1156210828163-clipPath1)" stroke="none" />
    </g>
    <g text-rendering="optimizeLegibility" font-size="23" shape-rendering="geometricPrecision" font-family="sans-serif">
      <path d="M118.37482452392578 278.7048645019531 C117.7973403930664 278.3714599609375 117.05924987792969 278.5692443847656 116.72583770751953 279.146728515625 C116.39242553710938 279.7242126464844 116.59020233154297 280.4623107910156 117.16767883300781 280.79571533203125 L154.9305877685547 302.59814453125 C155.50807189941406 302.9315490722656 156.2461700439453 302.7337646484375 156.57957458496094 302.1562805175781 C156.91299438476562 301.57879638671875 156.7152099609375 300.8407287597656 156.1377410888672 300.5072937011719 ZM106.87254333496094 284.1385803222656 C106.2950668334961 283.80517578125 105.55696868896484 284.0029296875 105.22355651855469 284.5804138183594 C104.89015197753906 285.15789794921875 105.08792114257812 285.89599609375 105.6654052734375 286.2294006347656 L155.97601318359375 315.2762451171875 C156.55349731445312 315.6096496582031 157.29159545898438 315.4118957519531 157.625 314.83441162109375 C157.95840454101562 314.2569274902344 157.76063537597656 313.5188293457031 157.1831512451172 313.1854248046875 Z" clip-path="url(#1156210828163-clipPath1)" stroke="none" />
    </g>
    <g text-rendering="optimizeLegibility" font-size="23" shape-rendering="geometricPrecision" font-family="sans-serif">
      <path d="M206.28662109375 284.1385803222656 L155.97601318359375 313.1854248046875 C155.39852905273438 313.5188293457031 155.2007598876953 314.2569274902344 155.53416442871094 314.83441162109375 C155.86756896972656 315.4118957519531 156.6056671142578 315.6096496582031 157.1831512451172 315.2762451171875 L207.49375915527344 286.2294006347656 C208.0712432861328 285.89599609375 208.26901245117188 285.15789794921875 207.93560791015625 284.5804138183594 C207.60218811035156 284.0029296875 206.86410522460938 283.80517578125 206.28662109375 284.1385803222656 Z" clip-path="url(#1156210828163-clipPath1)" stroke="none" />
    </g>
    <g text-rendering="optimizeLegibility" font-size="23" shape-rendering="geometricPrecision" font-family="sans-serif">
      <path d="M207.642822265625 228.03408813476562 L253.0623016357422 191.8132781982422 C253.58363342285156 191.39752197265625 253.669189453125 190.63818359375 253.25343322753906 190.11685180664062 C252.8376922607422 189.5955047607422 252.07835388183594 189.5099639892578 251.55702209472656 189.9257049560547 L206.13754272460938 226.1465301513672 C205.6162109375 226.56228637695312 205.53065490722656 227.3216094970703 205.9464111328125 227.84295654296875 C206.36216735839844 228.36428833007812 207.12149047851562 228.44984436035156 207.642822265625 228.03408813476562 Z" clip-path="url(#1156210828163-clipPath1)" stroke="none" />
    </g>
    <g font-size="23" fill="url(#1156210828340-linearGradient1)" text-rendering="optimizeLegibility" font-family="sans-serif" shape-rendering="geometricPrecision" stroke="url(#1156210828340-linearGradient1)">
      <path d="M252.57827758789062 189.69261169433594 C251.9281768798828 189.5442352294922 251.28115844726562 189.95077514648438 251.13278198242188 190.6008758544922 C250.98440551757812 191.2509765625 251.3909454345703 191.8979949951172 252.04104614257812 192.04637145996094 L297.21771240234375 202.35765075683594 C297.8677978515625 202.5060272216797 298.5148010253906 202.0994873046875 298.6632080078125 201.4493865966797 C298.81158447265625 200.79928588867188 298.405029296875 200.15228271484375 297.75494384765625 200.00389099121094 ZM256.3377685546875 201.27647399902344 C255.68768310546875 201.1280975341797 255.04066467285156 201.53463745117188 254.8922882080078 202.1847381591797 C254.74391174316406 202.8348388671875 255.15045166015625 203.4818572998047 255.80055236816406 203.63023376464844 L294.8908386230469 212.55233764648438 C295.5409240722656 212.70071411132812 296.1879577636719 212.29417419433594 296.3363342285156 211.64407348632812 C296.4847106933594 210.9939727783203 296.0781555175781 210.3469696044922 295.4280700683594 210.19857788085938 Z" clip-path="url(#1156210828163-clipPath1)" stroke="none" />
    </g>
    <g font-size="23" fill="url(#1156210828995-linearGradient1)" text-rendering="optimizeLegibility" font-family="sans-serif" shape-rendering="geometricPrecision" stroke="url(#1156210828995-linearGradient1)">
      <path d="M314.4442138671875 217.9941864013672 L333.06512451171875 256.6609191894531 C333.35443115234375 257.2616882324219 334.07568359375 257.5140686035156 334.6764831542969 257.2247619628906 C335.2772521972656 256.9354248046875 335.5296325683594 256.21417236328125 335.2403259277344 255.61338806152344 L316.6194152832031 216.94667053222656 C316.330078125 216.34588623046875 315.60882568359375 216.09352111816406 315.008056640625 216.38284301757812 C314.4072570800781 216.6721649169922 314.1548767089844 217.39341735839844 314.4442138671875 217.9941864013672 Z" clip-path="url(#1156210828163-clipPath1)" stroke="none" />
    </g>
    <g text-rendering="optimizeLegibility" font-size="23" shape-rendering="geometricPrecision" font-family="sans-serif">
      <path d="M333.06512451171875 255.61338806152344 L307.8592224121094 307.9540100097656 C307.56988525390625 308.5547790527344 307.822265625 309.2760314941406 308.4230651855469 309.5653381347656 C309.0238342285156 309.85467529296875 309.7450866699219 309.602294921875 310.0343933105469 309.00152587890625 L335.2403259277344 256.6609191894531 C335.5296325683594 256.06011962890625 335.2772521972656 255.33888244628906 334.6764831542969 255.049560546875 C334.07568359375 254.76023864746094 333.35443115234375 255.0126190185547 333.06512451171875 255.61338806152344 Z" clip-path="url(#1156210828163-clipPath1)" stroke="none" />
    </g>
    <g font-size="23" fill="url(#1156210828976-linearGradient1)" text-rendering="optimizeLegibility" font-family="sans-serif" shape-rendering="geometricPrecision" stroke="url(#1156210828976-linearGradient1)">
      <path d="M264.03875732421875 319.9659118652344 L309.2154235839844 309.6546325683594 C309.8655090332031 309.5062561035156 310.2720642089844 308.8592529296875 310.1236877441406 308.2091369628906 C309.9753112792969 307.5590515136719 309.32830810546875 307.1524963378906 308.6781921386719 307.3008728027344 L263.50152587890625 317.6121520996094 C262.8514404296875 317.7605285644531 262.44488525390625 318.4075622558594 262.59326171875 319.0576477050781 C262.7416687011719 319.7077331542969 263.388671875 320.1142883300781 264.03875732421875 319.9659118652344 Z" clip-path="url(#1156210828163-clipPath1)" stroke="none" />
    </g>
    <g font-size="23" fill="url(#1156210828692-linearGradient1)" text-rendering="optimizeLegibility" font-family="sans-serif" shape-rendering="geometricPrecision" stroke="url(#1156210828692-linearGradient1)">
      <path d="M312.4084777832031 302.4966735839844 C311.9927062988281 301.975341796875 311.2333984375 301.8898010253906 310.7120666503906 302.3055419921875 C310.1907043457031 302.7212829589844 310.10516357421875 303.4806213378906 310.5209045410156 304.001953125 L338.6104736328125 339.22515869140625 C339.0262145996094 339.7464904785156 339.7855529785156 339.8320617675781 340.306884765625 339.4162902832031 C340.8282470703125 339.00054931640625 340.9137878417969 338.2412109375 340.498046875 337.7198791503906 ZM304.23297119140625 309.01641845703125 C303.81719970703125 308.4950866699219 303.0578918457031 308.4095458984375 302.53656005859375 308.8252868652344 C302.01519775390625 309.2410583496094 301.9296569824219 310.0003662109375 302.34539794921875 310.5216979980469 L330.4349670410156 345.7449035644531 C330.8507080078125 346.2662353515625 331.61004638671875 346.351806640625 332.1313781738281 345.93603515625 C332.6527404785156 345.5202941894531 332.73828125 344.7609558105469 332.3225402832031 344.2396240234375 Z" clip-path="url(#1156210828163-clipPath1)" stroke="none" />
    </g>
    <g text-rendering="optimizeLegibility" font-size="23" shape-rendering="geometricPrecision" font-family="sans-serif">
      <path d="M253.4865264892578 190.6008758544922 L240.55947875976562 133.96372985839844 C240.4110870361328 133.31362915039062 239.7640838623047 132.90707397460938 239.11398315429688 133.0554656982422 C238.46388244628906 133.20384216308594 238.05734252929688 133.85086059570312 238.20571899414062 134.50094604492188 L251.13278198242188 191.1381072998047 C251.28115844726562 191.7882080078125 251.9281768798828 192.1947479248047 252.57827758789062 192.04637145996094 C253.22837829589844 191.8979949951172 253.63491821289062 191.2509765625 253.4865264892578 190.6008758544922 Z" clip-path="url(#1156210828163-clipPath1)" stroke="none" />
    </g>
    <g text-rendering="optimizeLegibility" font-size="23" shape-rendering="geometricPrecision" font-family="sans-serif">
      <path d="M239.0267791748047 135.38584899902344 C239.6639862060547 135.5823974609375 240.3395538330078 135.225341796875 240.53610229492188 134.58815002441406 C240.73265075683594 133.95095825195312 240.37559509277344 133.27537536621094 239.7384033203125 133.07882690429688 L184.2256622314453 115.95541381835938 C183.58847045898438 115.75886535644531 182.9128875732422 116.11592102050781 182.71633911132812 116.75311279296875 C182.51979064941406 117.39030456542969 182.87684631347656 118.06588745117188 183.5140380859375 118.26243591308594 ZM235.18643188476562 123.25822448730469 C235.82362365722656 123.45477294921875 236.49920654296875 123.09771728515625 236.6957550048828 122.46052551269531 C236.89230346679688 121.82333374023438 236.53524780273438 121.14775085449219 235.89805603027344 120.95120239257812 L194.23043823242188 108.09844970703125 C193.59324645996094 107.90190124511719 192.91766357421875 108.25895690917969 192.7211151123047 108.89614868164062 C192.52456665039062 109.53334045410156 192.88162231445312 110.20892333984375 193.51881408691406 110.40547180175781 Z" clip-path="url(#1156210828163-clipPath1)" stroke="none" />
    </g>
    <g text-rendering="optimizeLegibility" font-size="23" shape-rendering="geometricPrecision" font-family="sans-serif">
      <path d="M185.04672241210938 116.8403091430664 L172.1196746826172 60.203155517578125 C171.97128295898438 59.55305862426758 171.32427978515625 59.14651107788086 170.67417907714844 59.294891357421875 C170.02407836914062 59.443275451660156 169.61753845214844 60.09028625488281 169.7659149169922 60.74038314819336 L182.69297790527344 117.3775405883789 C182.8413543701172 118.02764129638672 183.48837280273438 118.4341812133789 184.1384735107422 118.28579711914062 C184.78855895996094 118.13742065429688 185.1951141357422 117.49040985107422 185.04672241210938 116.8403091430664 Z" clip-path="url(#1156210828163-clipPath1)" stroke="none" />
    </g>
    <g text-rendering="optimizeLegibility" font-size="23" shape-rendering="geometricPrecision" font-family="sans-serif">
      <path d="M170.12173461914062 59.58687210083008 C169.63291931152344 60.04042434692383 169.60433959960938 60.80402374267578 170.05789184570312 61.2928352355957 C170.51144409179688 61.781646728515625 171.27503967285156 61.810218811035156 171.76385498046875 61.356666564941406 L214.34954833984375 21.842926025390625 C214.83834838867188 21.389375686645508 214.86692810058594 20.625776290893555 214.4133758544922 20.136964797973633 C213.95982360839844 19.648151397705078 213.19622802734375 19.61958122253418 212.70741271972656 20.073131561279297 ZM182.54473876953125 62.32484436035156 C182.05592346191406 62.77839279174805 182.02734375 63.5419921875 182.48089599609375 64.03080749511719 C182.9344482421875 64.51961517333984 183.6980438232422 64.54818725585938 184.18685913085938 64.09463500976562 L216.1514892578125 34.4358024597168 C216.64028930664062 33.98225402832031 216.6688690185547 33.21865463256836 216.21531677246094 32.72984313964844 C215.7617645263672 32.24102783203125 214.9981689453125 32.212459564208984 214.5093536376953 32.66600799560547 Z" clip-path="url(#1156210828163-clipPath1)" stroke="none" />
    </g>
    <g text-rendering="optimizeLegibility" font-size="23" shape-rendering="geometricPrecision" font-family="sans-serif">
      <path d="M213.17266845703125 22.111541748046875 L268.6854248046875 39.234954833984375 C269.3226013183594 39.43150329589844 269.9981994628906 39.07444763183594 270.1947326660156 38.437255859375 C270.39129638671875 37.80006408691406 270.0342102050781 37.124481201171875 269.39703369140625 36.92793273925781 L213.88429260253906 19.804519653320312 C213.24710083007812 19.60797119140625 212.57151794433594 19.965024948120117 212.37496948242188 20.602218627929688 C212.1784210205078 21.239412307739258 212.5354766845703 21.914993286132812 213.17266845703125 22.111541748046875 Z" clip-path="url(#1156210828163-clipPath1)" stroke="none" />
    </g>
    <g text-rendering="optimizeLegibility" font-size="23" shape-rendering="geometricPrecision" font-family="sans-serif">
      <path d="M270.2181091308594 37.81283187866211 C270.0697021484375 37.1627311706543 269.4226989746094 36.756187438964844 268.7726135253906 36.90456771850586 C268.12249755859375 37.052947998046875 267.7159729003906 37.69995880126953 267.8643493652344 38.350059509277344 L280.7914123535156 94.98721313476562 C280.9397888183594 95.63731384277344 281.5867919921875 96.04385375976562 282.2369079589844 95.89547729492188 C282.8869934082031 95.7470932006836 283.2935485839844 95.10008239746094 283.1451721191406 94.44998168945312 ZM261.63543701171875 47.202484130859375 C261.487060546875 46.55238342285156 260.8400573730469 46.14583969116211 260.18994140625 46.294219970703125 C259.53985595703125 46.442604064941406 259.13330078125 47.0896110534668 259.28167724609375 47.73971176147461 L268.98468017578125 90.25130462646484 C269.133056640625 90.90139770507812 269.7800598144531 91.30794525146484 270.43017578125 91.15956115722656 C271.08026123046875 91.01118469238281 271.48681640625 90.36417388916016 271.33843994140625 89.71407318115234 Z" clip-path="url(#1156210828163-clipPath1)" stroke="none" />
    </g>
    <g text-rendering="optimizeLegibility" font-size="23" shape-rendering="geometricPrecision" font-family="sans-serif">
      <path d="M240.2036590576172 135.1172332763672 L282.7893371582031 95.6034927368164 C283.2781677246094 95.14994812011719 283.3067321777344 94.38634490966797 282.8531799316406 93.89752960205078 C282.3996276855469 93.40872192382812 281.6360168457031 93.3801498413086 281.147216796875 93.83370208740234 L238.56153869628906 133.34744262695312 C238.07272338867188 133.80099487304688 238.0441436767578 134.56459045410156 238.49769592285156 135.05340576171875 C238.9512481689453 135.54222106933594 239.71484375 135.57078552246094 240.2036590576172 135.1172332763672 Z" clip-path="url(#1156210828163-clipPath1)" stroke="none" />
    </g>
  </g>
</svg>