<svg xmlns="http://www.w3.org/2000/svg" viewBox="0 0 400 400">
  <defs id="genericDefs" />
  <g>
    <defs id="1933077874117-defs1">
      <clipPath clipPathUnits="userSpaceOnUse" id="1933077874744-clipPath1">
        <path d="M0 0 L0 400 L400 400 L400 0 Z" />
      </clipPath>
      <clipPath clipPathUnits="userSpaceOnUse" id="1933077874381-clipPath1">
        <path d="M0 0 L400 0 L400 400 L0 400 L0 0 Z" />
      </clipPath>
    </defs>
    <g text-rendering="optimizeLegibility" shape-rendering="geometricPrecision">
      <path d="M56.976165771484375 161.7710723876953 L197.8104248046875 243.08177185058594 C199.42697143554688 244.0150909423828 201.4931182861328 243.4614715576172 202.4264373779297 241.8449249267578 C203.3597412109375 240.22837829589844 202.80612182617188 238.1622314453125 201.1895751953125 237.2289276123047 L60.35531234741211 155.91822814941406 C58.73876953125 154.9849090576172 56.67262268066406 155.5385284423828 55.73931121826172 157.1550750732422 C54.805999755859375 158.77162170410156 55.359622955322266 160.8377685546875 56.976165771484375 161.7710723876953 Z" clip-path="url(#1933077874744-clipPath1)" stroke="none" />
    </g>
    <g text-rendering="optimizeLegibility" shape-rendering="geometricPrecision">
      <path d="M201.1895751953125 243.08177185058594 L342.0238342285156 161.7710723876953 C343.640380859375 160.8377685546875 344.1940002441406 158.77162170410156 343.26068115234375 157.1550750732422 C342.327392578125 155.5385284423828 340.26123046875 154.9849090576172 338.6446838378906 155.91822814941406 L197.8104248046875 237.2289276123047 C196.19387817382812 238.1622314453125 195.6402587890625 240.22837829589844 196.57357788085938 241.8449249267578 C197.5068817138672 243.46145629882812 199.57302856445312 244.0150909423828 201.1895751953125 243.08177185058594 Z" clip-path="url(#1933077874744-clipPath1)" stroke="none" />
    </g>
  </g>
</svg>