<svg xmlns="http://www.w3.org/2000/svg" viewBox="0 0 400 400">
  <defs id="genericDefs" />
  <g>
    <defs id="1442077586586-defs1">
      <clipPath clipPathUnits="userSpaceOnUse" id="1442077586337-clipPath1">
        <path d="M0 0 L0 400 L400 400 L400 0 Z" />
      </clipPath>
      <clipPath clipPathUnits="userSpaceOnUse" id="1442077586240-clipPath1">
        <path d="M0 0 L400 0 L400 400 L0 400 L0 0 Z" />
      </clipPath>
    </defs>
    <g text-rendering="optimizeLegibility" shape-rendering="geometricPrecision">
      <path d="M35.24195098876953 245.68507385253906 L35.24195098876953 153.31492614746094 C35.24195098876953 152.25466918945312 34.38282775878906 151.39553833007812 33.32257080078125 151.39553833007812 C32.2623176574707 151.39553833007812 31.4031925201416 152.25466918945312 31.4031925201416 153.31492614746094 L31.4031925201416 245.68507385253906 C31.4031925201416 246.74533081054688 32.2623176574707 247.60446166992188 33.32257080078125 247.60446166992188 C34.38282775878906 247.60446166992188 35.24195098876953 246.74533081054688 35.24195098876953 245.68507385253906 Z" clip-path="url(#1442077586337-clipPath1)" stroke="none" />
    </g>
    <g text-rendering="optimizeLegibility" shape-rendering="geometricPrecision">
      <path d="M32.36288070678711 154.97715759277344 L112.35778045654297 201.1622314453125 C113.27599334716797 201.69236755371094 114.44957733154297 201.37789916992188 114.97970581054688 200.45968627929688 C115.50983428955078 199.54148864746094 115.19537353515625 198.36790466308594 114.27716064453125 197.8377685546875 L34.28226089477539 151.65269470214844 C33.36405563354492 151.12255859375 32.190467834472656 151.43702697753906 31.66033935546875 152.35523986816406 C31.130212783813477 153.2734375 31.444673538208008 154.447021484375 32.36288070678711 154.97715759277344 Z" clip-path="url(#1442077586337-clipPath1)" stroke="none" />
    </g>
    <g text-rendering="optimizeLegibility" shape-rendering="geometricPrecision">
      <path d="M34.28226089477539 247.34730529785156 L114.27716064453125 201.1622314453125 C115.19537353515625 200.63209533691406 115.50983428955078 199.45851135253906 114.97970581054688 198.54031372070312 C114.44957733154297 197.62210083007812 113.27599334716797 197.30763244628906 112.35778045654297 197.8377685546875 L32.36288070678711 244.02284240722656 C31.444673538208008 244.552978515625 31.130212783813477 245.7265625 31.66033935546875 246.64476013183594 C32.190467834472656 247.56297302246094 33.36405563354492 247.87744140625 34.28226089477539 247.34730529785156 Z" clip-path="url(#1442077586337-clipPath1)" stroke="none" />
    </g>
    <g text-rendering="optimizeLegibility" shape-rendering="geometricPrecision">
      <path d="M113.31747436523438 201.41937255859375 L205.6876220703125 201.41937255859375 C206.7478790283203 201.41937255859375 207.6070098876953 200.5602569580078 207.6070098876953 199.5 C207.6070098876953 198.4397430419922 206.7478790283203 197.58062744140625 205.6876220703125 197.58062744140625 L113.31747436523438 197.58062744140625 C112.25721740722656 197.58062744140625 111.3980941772461 198.4397430419922 111.3980941772461 199.5 C111.3980941772461 200.5602569580078 112.25721740722656 201.41937255859375 113.31747436523438 201.41937255859375 Z" clip-path="url(#1442077586337-clipPath1)" stroke="none" />
    </g>
    <g text-rendering="optimizeLegibility" shape-rendering="geometricPrecision">
      <path d="M206.64732360839844 201.1622314453125 L286.6422119140625 154.97715759277344 C287.5604248046875 154.447021484375 287.8748779296875 153.2734375 287.3447570800781 152.355224609375 C286.81463623046875 151.43702697753906 285.64105224609375 151.12255859375 284.72283935546875 151.65269470214844 L204.72793579101562 197.8377685546875 C203.80972290039062 198.36788940429688 203.49526977539062 199.54148864746094 204.025390625 200.45968627929688 C204.55552673339844 201.37789916992188 205.72911071777344 201.69235229492188 206.64732360839844 201.1622314453125 Z" clip-path="url(#1442077586337-clipPath1)" stroke="none" />
    </g>
    <g text-rendering="optimizeLegibility" shape-rendering="geometricPrecision">
      <path d="M284.72283935546875 154.97715759277344 L364.7177429199219 201.1622314453125 C365.6359558105469 201.69236755371094 366.8095397949219 201.37789916992188 367.33966064453125 200.45968627929688 C367.8697814941406 199.54148864746094 367.5553283691406 198.36790466308594 366.6371154785156 197.8377685546875 L286.6422119140625 151.65269470214844 C285.7239990234375 151.12255859375 284.5504150390625 151.43702697753906 284.0202941894531 152.35523986816406 C283.49017333984375 153.2734375 283.80462646484375 154.447021484375 284.72283935546875 154.97715759277344 Z" clip-path="url(#1442077586337-clipPath1)" stroke="none" />
    </g>
    <g text-rendering="optimizeLegibility" shape-rendering="geometricPrecision">
      <path d="M364.7177429199219 197.8377685546875 L284.72283935546875 244.02284240722656 C283.80462646484375 244.552978515625 283.49017333984375 245.7265625 284.0202941894531 246.644775390625 C284.5504150390625 247.56297302246094 285.7239990234375 247.87744140625 286.6422119140625 247.34730529785156 L366.6371154785156 201.1622314453125 C367.5553283691406 200.63211059570312 367.8697814941406 199.45851135253906 367.33966064453125 198.54031372070312 C366.8095397949219 197.62210083007812 365.6359558105469 197.30764770507812 364.7177429199219 197.8377685546875 Z" clip-path="url(#1442077586337-clipPath1)" stroke="none" />
    </g>
    <g text-rendering="optimizeLegibility" shape-rendering="geometricPrecision">
      <path d="M204.72793579101562 201.1622314453125 L284.72283935546875 247.34730529785156 C285.64105224609375 247.87744140625 286.81463623046875 247.56297302246094 287.3447570800781 246.644775390625 C287.8748779296875 245.7265625 287.5604248046875 244.552978515625 286.6422119140625 244.02284240722656 L206.64732360839844 197.8377685546875 C205.72911071777344 197.30764770507812 204.55552673339844 197.62210083007812 204.025390625 198.54031372070312 C203.49526977539062 199.45851135253906 203.80972290039062 200.63211059570312 204.72793579101562 201.1622314453125 Z" clip-path="url(#1442077586337-clipPath1)" stroke="none" />
    </g>
    <g text-rendering="optimizeLegibility" shape-rendering="geometricPrecision">
      <path d="M283.7631530761719 153.31492614746094 L283.7631530761719 245.68507385253906 C283.7631530761719 246.74533081054688 284.6222839355469 247.60446166992188 285.6825256347656 247.60446166992188 C286.7427673339844 247.60446166992188 287.6018981933594 246.74533081054688 287.6018981933594 245.68507385253906 L287.6018981933594 153.31492614746094 C287.6018981933594 152.25466918945312 286.7427673339844 151.39553833007812 285.6825256347656 151.39553833007812 C284.6222839355469 151.39553833007812 283.7631530761719 152.25466918945312 283.7631530761719 153.31492614746094 Z" clip-path="url(#1442077586337-clipPath1)" stroke="none" />
    </g>
  </g>
</svg>