<svg xmlns="http://www.w3.org/2000/svg" viewBox="0 0 400 400">
  <defs id="genericDefs" />
  <g>
    <defs id="715289224207-defs1">
      <clipPath clipPathUnits="userSpaceOnUse" id="715289224261-clipPath1">
        <path d="M0 0 L0 400 L400 400 L400 0 Z" />
      </clipPath>
      <clipPath clipPathUnits="userSpaceOnUse" id="715289224531-clipPath1">
        <path d="M0 0 L400 0 L400 400 L0 400 L0 0 Z" />
      </clipPath>
    </defs>
    <g text-rendering="optimizeLegibility" shape-rendering="geometricPrecision">
      <path d="M56.976165771484375 161.7710723876953 L197.8104248046875 243.08177185058594 C199.42697143554688 244.0150909423828 201.4931182861328 243.4614715576172 202.4264373779297 241.8449249267578 C203.3597412109375 240.22837829589844 202.80612182617188 238.1622314453125 201.1895751953125 237.2289276123047 L60.35531234741211 155.91822814941406 C58.73876953125 154.9849090576172 56.67262268066406 155.5385284423828 55.73931121826172 157.1550750732422 C54.805999755859375 158.77162170410156 55.359622955322266 160.8377685546875 56.976165771484375 161.7710723876953 Z" clip-path="url(#715289224261-clipPath1)" stroke="none" />
    </g>
    <g text-rendering="optimizeLegibility" shape-rendering="geometricPrecision">
      <path d="M196.120849609375 242.10629272460938 L181.4544219970703 233.6386260986328 L333.00103759765625 146.1431427001953 L340.3342590332031 158.8446502685547 L347.66748046875 171.54615783691406 L210.78729248046875 250.573974609375 Z" clip-path="url(#715289224261-clipPath1)" stroke="none" />
    </g>
  </g>
</svg>