<svg xmlns="http://www.w3.org/2000/svg" viewBox="0 0 400 400">
  <defs id="genericDefs" />
  <g>
    <defs id="64358743339-defs1">
      <clipPath clipPathUnits="userSpaceOnUse" id="643587433195-clipPath1">
        <path d="M0 0 L0 400 L400 400 L400 0 Z" />
      </clipPath>
      <clipPath clipPathUnits="userSpaceOnUse" id="643587433378-clipPath1">
        <path d="M0 0 L400 0 L400 400 L0 400 L0 0 Z" />
      </clipPath>
    </defs>
    <g text-rendering="optimizeLegibility" shape-rendering="geometricPrecision">
      <path d="M191.29750061035156 25.769638061523438 L255.99366760253906 45.72576141357422 C256.73626708984375 45.9548225402832 257.52362060546875 45.538700103759766 257.7526550292969 44.79609680175781 C257.9817199707031 44.05349349975586 257.56561279296875 43.266151428222656 256.822998046875 43.03709030151367 L192.12684631347656 23.08096694946289 C191.38424682617188 22.851903915405273 190.59689331054688 23.26802635192871 190.3678436279297 24.010629653930664 C190.13877868652344 24.753232955932617 190.55490112304688 25.54057502746582 191.29750061035156 25.769638061523438 Z" clip-path="url(#643587433195-clipPath1)" stroke="none" />
    </g>
    <g text-rendering="optimizeLegibility" shape-rendering="geometricPrecision">
      <path d="M255.03677368164062 44.69447708129883 L270.1023254394531 110.70105743408203 C270.2752685546875 111.45870208740234 271.029296875 111.93250274658203 271.7869567871094 111.75957489013672 C272.5445861816406 111.5866470336914 273.0184020996094 110.83260345458984 272.845458984375 110.07495880126953 L257.7799072265625 44.06837463378906 C257.6069641113281 43.31072998046875 256.8529357910156 42.83693313598633 256.09527587890625 43.00986099243164 C255.33763122558594 43.18278884887695 254.8638458251953 43.936832427978516 255.03677368164062 44.69447708129883 Z" clip-path="url(#643587433195-clipPath1)" stroke="none" />
    </g>
    <g text-rendering="optimizeLegibility" shape-rendering="geometricPrecision">
      <path d="M270.5169982910156 109.35671997070312 L220.8864288330078 155.4071807861328 C220.31674194335938 155.93576049804688 220.283447265625 156.82568359375 220.81202697753906 157.39535522460938 C221.34060668945312 157.96502685546875 222.23052978515625 157.9983367919922 222.80020141601562 157.46975708007812 L272.4307861328125 111.4192886352539 C273.00048828125 110.89070892333984 273.0337829589844 110.00079345703125 272.50518798828125 109.43111419677734 C271.9765930175781 108.86143493652344 271.0867004394531 108.82814025878906 270.5169982910156 109.35671997070312 Z" clip-path="url(#643587433195-clipPath1)" stroke="none" />
    </g>
    <g text-rendering="optimizeLegibility" shape-rendering="geometricPrecision">
      <path d="M222.2579803466797 155.09413146972656 L157.56182861328125 135.13800048828125 C156.8192138671875 134.90895080566406 156.03187561035156 135.3250732421875 155.8028106689453 136.0676727294922 C155.57376098632812 136.81027221679688 155.98988342285156 137.5976104736328 156.73248291015625 137.82667541503906 L221.4286346435547 157.78280639648438 C222.17124938964844 158.01187133789062 222.95858764648438 157.5957489013672 223.18765258789062 156.85313415527344 C223.41671752929688 156.11053466796875 223.00059509277344 155.3231964111328 222.2579803466797 155.09413146972656 Z" clip-path="url(#643587433195-clipPath1)" stroke="none" />
    </g>
    <g text-rendering="optimizeLegibility" shape-rendering="geometricPrecision">
      <path d="M158.5187225341797 136.16929626464844 L143.45314025878906 70.16271209716797 C143.28021240234375 69.40506744384766 142.5261688232422 68.93126678466797 141.76852416992188 69.10419464111328 C141.01087951660156 69.2771224975586 140.53709411621094 70.03116607666016 140.71002197265625 70.78881072998047 L155.7755889892578 136.79539489746094 C155.94851684570312 137.55303955078125 156.7025604248047 138.02684020996094 157.460205078125 137.85391235351562 C158.2178497314453 137.6809844970703 158.691650390625 136.92694091796875 158.5187225341797 136.16929626464844 Z" clip-path="url(#643587433195-clipPath1)" stroke="none" />
    </g>
    <g text-rendering="optimizeLegibility" shape-rendering="geometricPrecision">
      <path d="M190.75527954101562 23.394018173217773 L141.12469482421875 69.44447326660156 C140.5550079345703 69.97306060791016 140.52171325683594 70.86297607421875 141.05029296875 71.43265533447266 C141.57887268066406 72.00232696533203 142.4687957763672 72.03562927246094 143.03846740722656 71.50704193115234 L192.6690673828125 25.456586837768555 C193.23873901367188 24.92800521850586 193.27203369140625 24.0380859375 192.7434539794922 23.46841049194336 C192.21487426757812 22.898733139038086 191.324951171875 22.865434646606445 190.75527954101562 23.394018173217773 Z" clip-path="url(#643587433195-clipPath1)" stroke="none" />
    </g>
    <g text-rendering="optimizeLegibility" shape-rendering="geometricPrecision">
      <path d="M220.4717559814453 156.7515106201172 L235.53732299804688 222.7581024169922 C235.7102508544922 223.5157470703125 236.46429443359375 223.98953247070312 237.22193908691406 223.8166046142578 C237.97958374023438 223.6436767578125 238.45338439941406 222.8896484375 238.28045654296875 222.13198852539062 L223.21487426757812 156.1254119873047 C223.0419464111328 155.36776733398438 222.28790283203125 154.8939666748047 221.53025817871094 155.06689453125 C220.77261352539062 155.2398223876953 220.298828125 155.99386596679688 220.4717559814453 156.7515106201172 Z" clip-path="url(#643587433195-clipPath1)" stroke="none" />
    </g>
    <g text-rendering="optimizeLegibility" shape-rendering="geometricPrecision">
      <path d="M236.59584045410156 223.81661987304688 L302.6024169921875 238.88218688964844 C303.3600769042969 239.05511474609375 304.1141052246094 238.58131408691406 304.2870178222656 237.82366943359375 C304.4599609375 237.06602478027344 303.9861755371094 236.31198120117188 303.228515625 236.13905334472656 L237.22193908691406 221.073486328125 C236.46429443359375 220.9005584716797 235.7102508544922 221.3743438720703 235.53732299804688 222.1320037841797 C235.36439514160156 222.8896484375 235.83819580078125 223.64369201660156 236.59584045410156 223.81661987304688 Z" clip-path="url(#643587433195-clipPath1)" stroke="none" />
    </g>
    <g text-rendering="optimizeLegibility" shape-rendering="geometricPrecision">
      <path d="M301.64794921875 238.1210174560547 L331.0236511230469 299.1202697753906 C331.36083984375 299.8204345703125 332.2013854980469 300.11456298828125 332.90155029296875 299.7773742675781 C333.60174560546875 299.4402160644531 333.8958740234375 298.5996398925781 333.5586853027344 297.89947509765625 L304.1829833984375 236.90020751953125 C303.8457946777344 236.20004272460938 303.0052185058594 235.90591430664062 302.3050537109375 236.24310302734375 C301.6048889160156 236.58029174804688 301.3107604980469 237.4208526611328 301.64794921875 238.1210174560547 Z" clip-path="url(#643587433195-clipPath1)" stroke="none" />
    </g>
    <g text-rendering="optimizeLegibility" shape-rendering="geometricPrecision">
      <path d="M331.0236511230469 297.89947509765625 L301.64794921875 358.8987121582031 C301.3107604980469 359.598876953125 301.6048889160156 360.439453125 302.3050537109375 360.7766418457031 C303.0052185058594 361.11383056640625 303.8457946777344 360.8197021484375 304.1829833984375 360.1195373535156 L333.5586853027344 299.1202697753906 C333.8958740234375 298.42010498046875 333.60174560546875 297.57952880859375 332.90155029296875 297.2423400878906 C332.2013854980469 296.9051818847656 331.36083984375 297.1993103027344 331.0236511230469 297.89947509765625 Z" clip-path="url(#643587433195-clipPath1)" stroke="none" />
    </g>
    <g text-rendering="optimizeLegibility" shape-rendering="geometricPrecision">
      <path d="M302.6024169921875 358.1375732421875 L236.59584045410156 373.203125 C235.83819580078125 373.3760681152344 235.36439514160156 374.1300964355469 235.53732299804688 374.88775634765625 C235.7102508544922 375.6453857421875 236.46429443359375 376.11920166015625 237.22193908691406 375.9462585449219 L303.228515625 360.88067626953125 C303.9861755371094 360.707763671875 304.4599609375 359.9537353515625 304.28704833984375 359.1960754394531 C304.1141052246094 358.43841552734375 303.3600769042969 357.9646301269531 302.6024169921875 358.1375732421875 Z" clip-path="url(#643587433195-clipPath1)" stroke="none" />
    </g>
    <g text-rendering="optimizeLegibility" shape-rendering="geometricPrecision">
      <path d="M237.78604125976562 373.47479248046875 L184.85287475585938 331.2619934082031 C184.2452850341797 330.7774658203125 183.36033630371094 330.8771667480469 182.8758087158203 331.4847412109375 C182.3912811279297 332.09234619140625 182.49098205566406 332.977294921875 183.09857177734375 333.4618225097656 L236.03173828125 375.67462158203125 C236.6393280029297 376.1591491699219 237.52426147460938 376.0594177246094 238.0087890625 375.45184326171875 C238.4933319091797 374.8442687988281 238.39361572265625 373.9593200683594 237.78604125976562 373.47479248046875 Z" clip-path="url(#643587433195-clipPath1)" stroke="none" />
    </g>
    <g text-rendering="optimizeLegibility" shape-rendering="geometricPrecision">
      <path d="M183.2722930908203 331.1435546875 L124.63886260986328 364.9955749511719 C123.9658432006836 365.3841552734375 123.73535919189453 366.2443542480469 124.1239242553711 366.9173583984375 C124.51248931884766 367.5903625488281 125.3726806640625 367.82086181640625 126.04570007324219 367.4322814941406 L184.67913818359375 333.58026123046875 C185.35215759277344 333.19171142578125 185.5826416015625 332.3315124511719 185.19407653808594 331.6584777832031 C184.80551147460938 330.9854736328125 183.9453125 330.7549743652344 183.2722930908203 331.1435546875 Z" clip-path="url(#643587433195-clipPath1)" stroke="none" />
    </g>
    <g text-rendering="optimizeLegibility" shape-rendering="geometricPrecision">
      <path d="M126.04570007324219 364.9955749511719 L67.41226196289062 331.1435546875 C66.73924255371094 330.7549743652344 65.8790512084961 330.9854736328125 65.49048614501953 331.6584777832031 C65.10192108154297 332.3315124511719 65.33240509033203 333.19171142578125 66.00542449951172 333.58026123046875 L124.63886260986328 367.4322814941406 C125.31187438964844 367.82086181640625 126.17207336425781 367.5903625488281 126.56063842773438 366.9173583984375 C126.94920349121094 366.2443542480469 126.71871185302734 365.3841552734375 126.04570007324219 364.9955749511719 Z" clip-path="url(#643587433195-clipPath1)" stroke="none" />
    </g>
    <g text-rendering="optimizeLegibility" shape-rendering="geometricPrecision">
      <path d="M68.11567687988281 332.3619079589844 L68.11567687988281 264.6578369140625 C68.11567687988281 263.8807067871094 67.48596954345703 263.2510070800781 66.7088394165039 263.2510070800781 C65.93170928955078 263.2510070800781 65.302001953125 263.8807067871094 65.302001953125 264.6578369140625 L65.302001953125 332.3619079589844 C65.302001953125 333.1390380859375 65.93170928955078 333.76873779296875 66.7088394165039 333.76873779296875 C67.48596954345703 333.76873779296875 68.11567687988281 333.1390380859375 68.11567687988281 332.3619079589844 Z" clip-path="url(#643587433195-clipPath1)" stroke="none" />
    </g>
    <g text-rendering="optimizeLegibility" shape-rendering="geometricPrecision">
      <path d="M67.41226196289062 265.8761901855469 L126.04570007324219 232.024169921875 C126.71871185302734 231.63560485839844 126.94920349121094 230.77540588378906 126.56063842773438 230.10238647460938 C126.17207336425781 229.42938232421875 125.31187438964844 229.19888305664062 124.63886260986328 229.5874481201172 L66.00542449951172 263.4394836425781 C65.33240509033203 263.8280334472656 65.10192108154297 264.688232421875 65.49048614501953 265.36126708984375 C65.87904357910156 266.0342712402344 66.73924255371094 266.2647705078125 67.41226196289062 265.8761901855469 Z" clip-path="url(#643587433195-clipPath1)" stroke="none" />
    </g>
    <g text-rendering="optimizeLegibility" shape-rendering="geometricPrecision">
      <path d="M124.63886260986328 232.024169921875 L183.2722930908203 265.8761901855469 C183.9453125 266.2647705078125 184.80551147460938 266.0342712402344 185.19407653808594 265.36126708984375 C185.5826416015625 264.688232421875 185.35215759277344 263.8280334472656 184.67913818359375 263.4394836425781 L126.04570007324219 229.5874481201172 C125.3726806640625 229.19888305664062 124.51248931884766 229.42938232421875 124.1239242553711 230.10238647460938 C123.73535919189453 230.77540588378906 123.9658432006836 231.63560485839844 124.63886260986328 232.024169921875 Z" clip-path="url(#643587433195-clipPath1)" stroke="none" />
    </g>
    <g text-rendering="optimizeLegibility" shape-rendering="geometricPrecision">
      <path d="M236.03173828125 221.3451385498047 L183.09857177734375 263.55792236328125 C182.49098205566406 264.0424499511719 182.3912811279297 264.9273986816406 182.8758087158203 265.5350036621094 C183.36033630371094 266.142578125 184.2452850341797 266.2422790527344 184.8528594970703 265.75775146484375 L237.78604125976562 223.54495239257812 C238.39361572265625 223.0604248046875 238.4933319091797 222.17547607421875 238.0087890625 221.56790161132812 C237.52426147460938 220.96031188964844 236.6393280029297 220.86061096191406 236.03173828125 221.3451385498047 Z" clip-path="url(#643587433195-clipPath1)" stroke="none" />
    </g>
    <g text-rendering="optimizeLegibility" shape-rendering="geometricPrecision">
      <path d="M185.38255310058594 332.3619079589844 L185.38255310058594 264.6578369140625 C185.38255310058594 263.8807067871094 184.7528533935547 263.2510070800781 183.97572326660156 263.2510070800781 C183.19859313964844 263.2510070800781 182.56887817382812 263.8807067871094 182.56887817382812 264.6578369140625 L182.56887817382812 332.3619079589844 C182.56887817382812 333.1390380859375 183.19859313964844 333.76873779296875 183.97572326660156 333.76873779296875 C184.7528533935547 333.76873779296875 185.38255310058594 333.1390380859375 185.38255310058594 332.3619079589844 Z" clip-path="url(#643587433195-clipPath1)" stroke="none" />
    </g>
  </g>
</svg>