<svg xmlns="http://www.w3.org/2000/svg" viewBox="0 0 400 400">
  <defs id="genericDefs" />
  <g>
    <defs id="310212872773-defs1">
      <linearGradient x1="313.96533203125" gradientUnits="userSpaceOnUse" x2="312.82501220703125" y1="140.0458984375" y2="142.4137725830078" id="310212872776-linearGradient1" spreadMethod="pad">
        <stop stop-opacity="1" stop-color="black" offset="0%" />
        <stop stop-opacity="1" stop-color="rgb(51,51,153)" offset="100%" />
      </linearGradient>
      <linearGradient x1="260.010498046875" gradientUnits="userSpaceOnUse" x2="257.4482421875" y1="185.3876495361328" y2="185.97247314453125" id="310212872464-linearGradient1" spreadMethod="pad">
        <stop stop-opacity="1" stop-color="rgb(51,51,153)" offset="0%" />
        <stop stop-opacity="1" stop-color="black" offset="100%" />
      </linearGradient>
      <linearGradient x1="202.85418701171875" gradientUnits="userSpaceOnUse" x2="204.90895080566406" y1="74.31572723388672" y2="72.6771011352539" id="310212872708-linearGradient1" spreadMethod="pad">
        <stop stop-opacity="1" stop-color="black" offset="0%" />
        <stop stop-opacity="1" stop-color="rgb(51,51,153)" offset="100%" />
      </linearGradient>
      <linearGradient x1="272.7822570800781" gradientUnits="userSpaceOnUse" x2="270.2200012207031" y1="57.87602233886719" y2="57.29120635986328" id="310212872673-linearGradient1" spreadMethod="pad">
        <stop stop-opacity="1" stop-color="black" offset="0%" />
        <stop stop-opacity="1" stop-color="rgb(51,51,153)" offset="100%" />
      </linearGradient>
      <clipPath clipPathUnits="userSpaceOnUse" id="310212872633-clipPath1">
        <path d="M-287.0963134765625 -160.6512908935547 L112.9036865234375 -160.6512908935547 L112.9036865234375 239.3487091064453 L-287.0963134765625 239.3487091064453 L-287.0963134765625 -160.6512908935547 Z" />
      </clipPath>
      <clipPath clipPathUnits="userSpaceOnUse" id="310212872753-clipPath1">
        <path d="M-225.4197235107422 -7.3292694091796875 L174.5802764892578 -7.3292694091796875 L174.5802764892578 392.67071533203125 L-225.4197235107422 392.67071533203125 L-225.4197235107422 -7.3292694091796875 Z" />
      </clipPath>
      <clipPath clipPathUnits="userSpaceOnUse" id="310212872390-clipPath1">
        <path d="M-225.44216918945312 -32.62514877319336 L174.55783081054688 -32.62514877319336 L174.55783081054688 367.3748474121094 L-225.44216918945312 367.3748474121094 L-225.44216918945312 -32.62514877319336 Z" />
      </clipPath>
      <clipPath clipPathUnits="userSpaceOnUse" id="310212872751-clipPath1">
        <path d="M235.8523406982422 12.647628784179688 C238.9400634765625 12.647628784179688 241.4431610107422 15.150724411010742 241.4431610107422 18.238449096679688 L241.4431610107422 29.420089721679688 C241.4431610107422 32.507816314697266 238.9400634765625 35.01091003417969 235.8523406982422 35.01091003417969 L232.9871063232422 35.01091003417969 C229.89938354492188 35.01091003417969 227.3962860107422 32.507816314697266 227.3962860107422 29.420089721679688 L227.3962860107422 18.238449096679688 C227.3962860107422 15.150724411010742 229.89938354492188 12.647628784179688 232.9871063232422 12.647628784179688 ZM235.89822387695312 37.94350814819336 C238.98594665527344 37.94350814819336 241.48904418945312 40.44660186767578 241.48904418945312 43.53432846069336 L241.48904418945312 54.71596908569336 C241.48904418945312 57.80369186401367 238.98594665527344 60.30678939819336 235.89822387695312 60.30678939819336 L232.98611450195312 60.30678939819336 C229.8983917236328 60.30678939819336 227.39529418945312 57.80369186401367 227.39529418945312 54.71596908569336 L227.39529418945312 43.53432846069336 C227.39529418945312 40.44660186767578 229.8983917236328 37.94350814819336 232.98611450195312 37.94350814819336 ZM297.5523681640625 165.9696502685547 C300.64007568359375 165.9696502685547 303.1431884765625 168.47274780273438 303.1431884765625 171.5604705810547 L303.1431884765625 182.7421112060547 C303.1431884765625 185.82984924316406 300.64007568359375 188.3329315185547 297.5523681640625 188.3329315185547 L294.6402587890625 188.3329315185547 C291.5525207519531 188.3329315185547 289.0494384765625 185.82984924316406 289.0494384765625 182.7421112060547 L289.0494384765625 171.5604705810547 C289.0494384765625 168.47274780273438 291.5525207519531 165.9696502685547 294.6402587890625 165.9696502685547 ZM0 0 L0 400 L400 400 L400 0 Z" />
      </clipPath>
      <clipPath clipPathUnits="userSpaceOnUse" id="310212872418-clipPath1">
        <path d="M0 0 L400 0 L400 400 L0 400 L0 0 Z" />
      </clipPath>
    </defs>
    <g font-size="25" transform="translate(287.09630981465295,160.65129693822007)" fill="rgb(51,51,153)" text-rendering="optimizeLegibility" font-family="sans-serif" shape-rendering="geometricPrecision" stroke="rgb(51,51,153)">
      <text xml:space="preserve" x="0" y="27" clip-path="url(#310212872633-clipPath1)" stroke="none">N
      </text>
    </g>
    <g font-size="25" transform="translate(225.41972790918132,7.329269436232778)" fill="rgb(51,51,153)" text-rendering="optimizeLegibility" font-family="sans-serif" shape-rendering="geometricPrecision" stroke="rgb(51,51,153)">
      <text xml:space="preserve" x="0" y="27" clip-path="url(#310212872753-clipPath1)" stroke="none">H
      </text>
    </g>
    <g font-size="25" transform="translate(225.4421654091813,32.62514689289782)" fill="rgb(51,51,153)" text-rendering="optimizeLegibility" font-family="sans-serif" shape-rendering="geometricPrecision" stroke="rgb(51,51,153)">
      <text xml:space="preserve" x="0" y="27" clip-path="url(#310212872390-clipPath1)" stroke="none">N
      </text>
    </g>
    <g text-rendering="optimizeLegibility" font-size="25" shape-rendering="geometricPrecision" font-family="sans-serif">
      <path d="M294.9123840332031 63.7674560546875 L322.3510437011719 120.74445343017578 C322.6659851074219 121.3984603881836 323.4511413574219 121.6731948852539 324.1051330566406 121.35823822021484 C324.7591552734375 121.04328918457031 325.03387451171875 120.25814819335938 324.71893310546875 119.6041488647461 L297.2802429199219 62.62714767456055 C296.9653015136719 61.973148345947266 296.1801452636719 61.69841384887695 295.5261535644531 62.01336669921875 C294.8721618652344 62.32831573486328 294.597412109375 63.11345672607422 294.9123840332031 63.7674560546875 Z" clip-path="url(#310212872751-clipPath1)" stroke="none" />
    </g>
    <g font-size="25" fill="url(#310212872776-linearGradient1)" text-rendering="optimizeLegibility" font-family="sans-serif" shape-rendering="geometricPrecision" stroke="url(#310212872776-linearGradient1)">
      <path d="M322.3510437011719 119.6041488647461 L302.0714111328125 161.71522521972656 C301.7564697265625 162.3692169189453 302.0312194824219 163.15435791015625 302.6852111816406 163.4693145751953 C303.3392028808594 163.78427124023438 304.1243591308594 163.50953674316406 304.4393005371094 162.85552978515625 L324.71893310546875 120.74445343017578 C325.03387451171875 120.0904541015625 324.7591552734375 119.30531311035156 324.1051330566406 118.99036407470703 C323.4511413574219 118.6754150390625 322.6659851074219 118.95014190673828 322.3510437011719 119.6041488647461 Z" clip-path="url(#310212872751-clipPath1)" stroke="none" />
    </g>
    <g font-size="25" fill="url(#310212872464-linearGradient1)" text-rendering="optimizeLegibility" font-family="sans-serif" shape-rendering="geometricPrecision" stroke="url(#310212872464-linearGradient1)">
      <path d="M283.3089599609375 181.41778564453125 C284.0166320800781 181.2562713623047 284.4591979980469 180.55194091796875 284.29766845703125 179.84425354003906 C284.1361389160156 179.13656616210938 283.43182373046875 178.6940155029297 282.7241516113281 178.8555450439453 L234.14976501464844 189.94232177734375 C233.4420623779297 190.10385131835938 232.99951171875 190.8081817626953 233.16104125976562 191.51585388183594 C233.32257080078125 192.22354125976562 234.02688598632812 192.66610717773438 234.7345733642578 192.50457763671875 ZM280.7759704589844 170.32003784179688 C281.4836730957031 170.1585235595703 281.92620849609375 169.45419311523438 281.7646789550781 168.7465057373047 C281.6031494140625 168.038818359375 280.8988342285156 167.5962677001953 280.191162109375 167.75779724121094 L238.24229431152344 177.3323516845703 C237.53460693359375 177.49388122558594 237.092041015625 178.1981964111328 237.25357055664062 178.9058837890625 C237.41510009765625 179.6135711669922 238.11941528320312 180.05612182617188 238.8271026611328 179.8946075439453 Z" clip-path="url(#310212872751-clipPath1)" stroke="none" />
    </g>
    <g text-rendering="optimizeLegibility" font-size="25" shape-rendering="geometricPrecision" font-family="sans-serif">
      <path d="M233.16104125976562 190.93104553222656 L219.08888244628906 252.58518981933594 C218.92735290527344 253.29287719726562 219.3699188232422 253.99720764160156 220.07760620117188 254.15872192382812 C220.78529357910156 254.32025146484375 221.48960876464844 253.87770080566406 221.65113830566406 253.17001342773438 L235.72329711914062 191.51585388183594 C235.8848114013672 190.8081817626953 235.4422607421875 190.10385131835938 234.7345733642578 189.94232177734375 C234.02688598632812 189.7808074951172 233.32257080078125 190.22335815429688 233.16104125976562 190.93104553222656 Z" clip-path="url(#310212872751-clipPath1)" stroke="none" />
    </g>
    <g text-rendering="optimizeLegibility" font-size="25" shape-rendering="geometricPrecision" font-family="sans-serif">
      <path d="M221.26380920410156 251.91432189941406 C220.731689453125 251.42059326171875 219.90045166015625 251.45169067382812 219.40672302246094 251.98379516601562 C218.91299438476562 252.5159149169922 218.94410705566406 253.34715270996094 219.47621154785156 253.84088134765625 L265.8341979980469 296.85479736328125 C266.3663024902344 297.3485412597656 267.1975402832031 297.3174133300781 267.6912841796875 296.7853088378906 C268.18499755859375 296.2532043457031 268.1539001464844 295.4219665527344 267.6217956542969 294.92822265625 ZM219.30224609375 265.6226806640625 C218.77012634277344 265.12896728515625 217.9388885498047 265.1600646972656 217.44515991210938 265.6921691894531 C216.95143127441406 266.2242736816406 216.9825439453125 267.0555114746094 217.5146484375 267.54925537109375 L252.3107452392578 299.8352966308594 C252.8428497314453 300.32904052734375 253.67408752441406 300.29791259765625 254.16781616210938 299.76580810546875 C254.6615447998047 299.23370361328125 254.6304473876953 298.4024658203125 254.09832763671875 297.9087219238281 Z" clip-path="url(#310212872751-clipPath1)" stroke="none" />
    </g>
    <g text-rendering="optimizeLegibility" font-size="25" shape-rendering="geometricPrecision" font-family="sans-serif">
      <path d="M265.4468688964844 295.5990905761719 L251.3747100830078 357.2532653808594 C251.2131805419922 357.9609375 251.65573120117188 358.6652526855469 252.36341857910156 358.8267822265625 C253.07110595703125 358.9883117675781 253.7754364013672 358.5457458496094 253.93695068359375 357.83807373046875 L268.0091247558594 296.1839294433594 C268.1706237792969 295.4762268066406 267.72808837890625 294.77191162109375 267.0203857421875 294.6103820800781 C266.3127136230469 294.4488525390625 265.6083984375 294.89141845703125 265.4468688964844 295.5990905761719 Z" clip-path="url(#310212872751-clipPath1)" stroke="none" />
    </g>
    <g text-rendering="optimizeLegibility" font-size="25" shape-rendering="geometricPrecision" font-family="sans-serif">
      <path d="M253.0431671142578 358.8013610839844 C253.73680114746094 358.58740234375 254.12547302246094 357.8519592285156 253.91151428222656 357.1583251953125 C253.6975555419922 356.4646911621094 252.96214294433594 356.0760192871094 252.26849365234375 356.28997802734375 L191.83836364746094 374.9302062988281 C191.1447296142578 375.1441650390625 190.75604248046875 375.87957763671875 190.97000122070312 376.5732116699219 C191.1839599609375 377.266845703125 191.9193878173828 377.6555480957031 192.61302185058594 377.44158935546875 ZM242.1521453857422 350.2484130859375 C242.8457794189453 350.0344543457031 243.23446655273438 349.29901123046875 243.0205078125 348.6053771972656 C242.80654907226562 347.9117431640625 242.0711212158203 347.5230712890625 241.3774871826172 347.7370300292969 L196.01890563964844 361.7283020019531 C195.3252716064453 361.9422607421875 194.93658447265625 362.67767333984375 195.15054321289062 363.3713073730469 C195.364501953125 364.06494140625 196.0999298095703 364.4536437988281 196.79356384277344 364.23968505859375 Z" clip-path="url(#310212872751-clipPath1)" stroke="none" />
    </g>
    <g text-rendering="optimizeLegibility" font-size="25" shape-rendering="geometricPrecision" font-family="sans-serif">
      <path d="M193.11949157714844 375.22259521484375 L146.7615203857422 332.20867919921875 C146.22940063476562 331.7149658203125 145.39816284179688 331.7460632324219 144.90443420410156 332.2781677246094 C144.41070556640625 332.8102722167969 144.44180297851562 333.6415100097656 144.9739227294922 334.13525390625 L191.33189392089844 377.149169921875 C191.864013671875 377.64288330078125 192.69525146484375 377.6117858886719 193.18898010253906 377.0796813964844 C193.68270874023438 376.5475769042969 193.651611328125 375.7163391113281 193.11949157714844 375.22259521484375 Z" clip-path="url(#310212872751-clipPath1)" stroke="none" />
    </g>
    <g text-rendering="optimizeLegibility" font-size="25" shape-rendering="geometricPrecision" font-family="sans-serif">
      <path d="M144.5865936279297 332.8795471191406 C144.42506408691406 333.5872497558594 144.8676300048828 334.29156494140625 145.5753173828125 334.4530944824219 C146.2830047607422 334.6146240234375 146.98731994628906 334.17205810546875 147.1488494873047 333.4643859863281 L161.22100830078125 271.81024169921875 C161.3825225830078 271.1025390625 160.93997192382812 270.3982238769531 160.23228454589844 270.2366943359375 C159.52459716796875 270.0751647949219 158.82028198242188 270.5177307128906 158.65875244140625 271.22540283203125 ZM157.4391632080078 327.7241516113281 C157.27764892578125 328.43182373046875 157.72019958496094 329.1361389160156 158.42788696289062 329.29766845703125 C159.1355743408203 329.4591979980469 159.8398895263672 329.0166320800781 160.0014190673828 328.3089599609375 L170.5639190673828 282.0316467285156 C170.72544860839844 281.3239440917969 170.2828826904297 280.61962890625 169.5751953125 280.4580993652344 C168.8675079345703 280.29656982421875 168.16319274902344 280.7391357421875 168.0016632080078 281.4468078613281 Z" clip-path="url(#310212872751-clipPath1)" stroke="none" />
    </g>
    <g text-rendering="optimizeLegibility" font-size="25" shape-rendering="geometricPrecision" font-family="sans-serif">
      <path d="M219.98268127441406 251.6219024658203 L159.55255126953125 270.26214599609375 C158.85890197753906 270.4761047363281 158.47021484375 271.2115173339844 158.68417358398438 271.9051513671875 C158.89813232421875 272.5987854003906 159.63356018066406 272.98748779296875 160.32720947265625 272.7735290527344 L220.75733947753906 254.13328552246094 C221.4509735107422 253.91932678222656 221.83966064453125 253.18389892578125 221.62570190429688 252.49026489257812 C221.4117431640625 251.796630859375 220.6763153076172 251.40794372558594 219.98268127441406 251.6219024658203 Z" clip-path="url(#310212872751-clipPath1)" stroke="none" />
    </g>
    <g text-rendering="optimizeLegibility" font-size="25" shape-rendering="geometricPrecision" font-family="sans-serif">
      <path d="M235.261474609375 190.19607543945312 L185.81869506835938 150.7667694091797 C185.2511749267578 150.31417846679688 184.42457580566406 150.40731811523438 183.9720001220703 150.97483825683594 C183.5194091796875 151.5423583984375 183.612548828125 152.3689422607422 184.18006896972656 152.821533203125 L233.6228485107422 192.25083923339844 C234.19036865234375 192.7034149169922 235.0169677734375 192.61029052734375 235.46954345703125 192.0427703857422 C235.92213439941406 191.47525024414062 235.82899475097656 190.64865112304688 235.261474609375 190.19607543945312 Z" clip-path="url(#310212872751-clipPath1)" stroke="none" />
    </g>
    <g text-rendering="optimizeLegibility" font-size="25" shape-rendering="geometricPrecision" font-family="sans-serif">
      <path d="M185.6564178466797 152.9321746826172 C186.28504943847656 152.56922912597656 186.50033569335938 151.7657470703125 186.1374053955078 151.13711547851562 C185.7744598388672 150.50848388671875 184.97097778320312 150.29318237304688 184.34234619140625 150.6561279296875 L129.57516479492188 182.27597045898438 C128.94651794433594 182.638916015625 128.73123168945312 183.44239807128906 129.09417724609375 184.07102966308594 C129.45712280273438 184.69967651367188 130.26058959960938 184.9149627685547 130.8892364501953 184.55201721191406 ZM173.13525390625 147.0171356201172 C173.76388549804688 146.65420532226562 173.9791717529297 145.85072326660156 173.61624145507812 145.2220916748047 C173.2532958984375 144.59344482421875 172.44981384277344 144.37815856933594 171.82118225097656 144.74110412597656 L130.7131805419922 168.47482299804688 C130.0845489501953 168.83775329589844 129.86924743652344 169.6412353515625 130.23219299316406 170.26986694335938 C130.5951385498047 170.8985137939453 131.39862060546875 171.11380004882812 132.02725219726562 170.7508544921875 Z" clip-path="url(#310212872751-clipPath1)" stroke="none" />
    </g>
    <g text-rendering="optimizeLegibility" font-size="25" shape-rendering="geometricPrecision" font-family="sans-serif">
      <path d="M130.8892364501953 182.27597045898438 L76.1220474243164 150.6561279296875 C75.49341583251953 150.29318237304688 74.68993377685547 150.5084686279297 74.32698822021484 151.13711547851562 C73.96405029296875 151.7657470703125 74.1793441772461 152.56922912597656 74.80797576904297 152.93215942382812 L129.57516479492188 184.55201721191406 C130.20379638671875 184.9149627685547 131.0072784423828 184.6996612548828 131.37022399902344 184.07102966308594 C131.733154296875 183.44239807128906 131.5178680419922 182.638916015625 130.8892364501953 182.27597045898438 Z" clip-path="url(#310212872751-clipPath1)" stroke="none" />
    </g>
    <g text-rendering="optimizeLegibility" font-size="25" shape-rendering="geometricPrecision" font-family="sans-serif">
      <path d="M74.15093994140625 151.7941436767578 C74.15093994140625 152.52003479003906 74.73912811279297 153.10821533203125 75.46501159667969 153.10821533203125 C76.19090270996094 153.10821533203125 76.77908325195312 152.52003479003906 76.77908325195312 151.7941436767578 L76.77908325195312 88.55445098876953 C76.77908325195312 87.82856750488281 76.19090270996094 87.2403793334961 75.46501159667969 87.2403793334961 C74.73912811279297 87.2403793334961 74.15093994140625 87.82856750488281 74.15093994140625 88.55445098876953 ZM85.53408813476562 143.90802001953125 C85.53408813476562 144.63389587402344 86.12227630615234 145.2220916748047 86.84815979003906 145.2220916748047 C87.57404327392578 145.2220916748047 88.1622314453125 144.63389587402344 88.1622314453125 143.90802001953125 L88.1622314453125 96.44058990478516 C88.1622314453125 95.7146987915039 87.57404327392578 95.12651824951172 86.84815979003906 95.12651824951172 C86.12227630615234 95.12651824951172 85.53408813476562 95.7146987915039 85.53408813476562 96.44058990478516 Z" clip-path="url(#310212872751-clipPath1)" stroke="none" />
    </g>
    <g text-rendering="optimizeLegibility" font-size="25" shape-rendering="geometricPrecision" font-family="sans-serif">
      <path d="M76.1220474243164 89.69247436523438 L130.8892364501953 58.07262420654297 C131.5178680419922 57.709678649902344 131.73316955566406 56.90620040893555 131.37022399902344 56.277565002441406 C131.0072784423828 55.648929595947266 130.20379638671875 55.43363952636719 129.57516479492188 55.79658508300781 L74.80797576904297 87.41643524169922 C74.1793441772461 87.77937316894531 73.96405029296875 88.58285522460938 74.32699584960938 89.21148681640625 C74.68994140625 89.84012603759766 75.49341583251953 90.05541229248047 76.1220474243164 89.69247436523438 Z" clip-path="url(#310212872751-clipPath1)" stroke="none" />
    </g>
    <g text-rendering="optimizeLegibility" font-size="25" shape-rendering="geometricPrecision" font-family="sans-serif">
      <path d="M130.8892364501953 55.79658508300781 C130.26060485839844 55.43364334106445 129.45712280273438 55.64893341064453 129.09417724609375 56.27756881713867 C128.73123168945312 56.90620422363281 128.946533203125 57.70968246459961 129.57516479492188 58.07262420654297 L184.34234619140625 89.69247436523438 C184.97097778320312 90.05541229248047 185.7744598388672 89.84012603759766 186.1374053955078 89.21148681640625 C186.50035095214844 88.58285522460938 186.28504943847656 87.77937316894531 185.6564178466797 87.41643524169922 ZM132.02725219726562 69.59774780273438 C131.39862060546875 69.23480224609375 130.5951385498047 69.4500961303711 130.23219299316406 70.07872772216797 C129.86924743652344 70.70736694335938 130.0845489501953 71.5108413696289 130.7131805419922 71.87378692626953 L171.82118225097656 95.60749816894531 C172.44981384277344 95.97044372558594 173.2532958984375 95.7551498413086 173.61624145507812 95.12651062011719 C173.9791717529297 94.49787902832031 173.76388549804688 93.69440460205078 173.13525390625 93.33145904541016 Z" clip-path="url(#310212872751-clipPath1)" stroke="none" />
    </g>
    <g text-rendering="optimizeLegibility" font-size="25" shape-rendering="geometricPrecision" font-family="sans-serif">
      <path d="M186.31344604492188 151.7941436767578 L186.31344604492188 88.55445098876953 C186.31344604492188 87.82856750488281 185.7252655029297 87.2403793334961 184.99937438964844 87.2403793334961 C184.27349853515625 87.2403793334961 183.685302734375 87.82856750488281 183.685302734375 88.55445098876953 L183.685302734375 151.7941436767578 C183.685302734375 152.52003479003906 184.27349853515625 153.10821533203125 184.99937438964844 153.10821533203125 C185.7252655029297 153.10821533203125 186.31344604492188 152.52003479003906 186.31344604492188 151.7941436767578 Z" clip-path="url(#310212872751-clipPath1)" stroke="none" />
    </g>
    <g font-size="25" fill="url(#310212872708-linearGradient1)" text-rendering="optimizeLegibility" font-family="sans-serif" shape-rendering="geometricPrecision" stroke="url(#310212872708-linearGradient1)">
      <path d="M185.81869506835938 89.58183288574219 L223.5830535888672 59.46575927734375 C224.15057373046875 59.01317596435547 224.24371337890625 58.186588287353516 223.79112243652344 57.61906814575195 C223.3385467529297 57.05154800415039 222.51194763183594 56.958412170410156 221.94442749023438 57.41099548339844 L184.18006896972656 87.52706909179688 C183.612548828125 87.97965240478516 183.5194091796875 88.80624389648438 183.9720001220703 89.37376403808594 C184.42457580566406 89.9412841796875 185.2511749267578 90.03441619873047 185.81869506835938 89.58183288574219 Z" clip-path="url(#310212872751-clipPath1)" stroke="none" />
    </g>
    <g font-size="25" fill="url(#310212872673-linearGradient1)" text-rendering="optimizeLegibility" font-family="sans-serif" shape-rendering="geometricPrecision" stroke="url(#310212872673-linearGradient1)">
      <path d="M296.38873291015625 61.91617965698242 L247.1983642578125 50.68879699707031 C246.49066162109375 50.52727508544922 245.78634643554688 50.96982955932617 245.62481689453125 51.67751693725586 C245.4633026123047 52.38520050048828 245.90585327148438 53.08952331542969 246.61354064941406 53.25104904174805 L295.80389404296875 64.47843170166016 C296.5115966796875 64.63995361328125 297.2159118652344 64.19739532470703 297.37744140625 63.48971176147461 C297.5389709472656 62.78202438354492 297.0964050292969 62.077701568603516 296.38873291015625 61.91617965698242 Z" clip-path="url(#310212872751-clipPath1)" stroke="none" />
    </g>
  </g>
</svg>