<svg xmlns="http://www.w3.org/2000/svg" viewBox="0 0 400 400">
  <defs id="genericDefs" />
  <g>
    <defs id="1637876401786-defs1">
      <linearGradient x1="218.2677459716797" gradientUnits="userSpaceOnUse" x2="217.25782775878906" y1="211.18284606933594" y2="209.98513793945312" id="1637876401973-linearGradient1" spreadMethod="pad">
        <stop stop-opacity="1" stop-color="black" offset="0%" />
        <stop stop-opacity="1" stop-color="rgb(51,51,51)" offset="100%" />
      </linearGradient>
      <linearGradient x1="276.4378662109375" gradientUnits="userSpaceOnUse" x2="276.3247985839844" y1="174.4062042236328" y2="172.8436279296875" id="1637876401710-linearGradient1" spreadMethod="pad">
        <stop stop-opacity="1" stop-color="black" offset="0%" />
        <stop stop-opacity="1" stop-color="red" offset="100%" />
      </linearGradient>
      <linearGradient x1="318.8340148925781" gradientUnits="userSpaceOnUse" x2="319.3663024902344" y1="168.4429931640625" y2="166.9695281982422" id="1637876401168-linearGradient1" spreadMethod="pad">
        <stop stop-opacity="1" stop-color="black" offset="0%" />
        <stop stop-opacity="1" stop-color="red" offset="100%" />
      </linearGradient>
      <linearGradient x1="352.37298583984375" gradientUnits="userSpaceOnUse" x2="353.9151916503906" y1="206.91165161132812" y2="206.63589477539062" id="1637876401993-linearGradient1" spreadMethod="pad">
        <stop stop-opacity="1" stop-color="black" offset="0%" />
        <stop stop-opacity="1" stop-color="red" offset="100%" />
      </linearGradient>
      <linearGradient x1="170.2002410888672" gradientUnits="userSpaceOnUse" x2="169.19032287597656" y1="154.17750549316406" y2="152.97979736328125" id="1637876401380-linearGradient1" spreadMethod="pad">
        <stop stop-opacity="1" stop-color="black" offset="0%" />
        <stop stop-opacity="1" stop-color="red" offset="100%" />
      </linearGradient>
      <linearGradient x1="161.00636291503906" gradientUnits="userSpaceOnUse" x2="160.4740753173828" y1="211.54550170898438" y2="213.0189666748047" id="1637876401706-linearGradient1" spreadMethod="pad">
        <stop stop-opacity="1" stop-color="black" offset="0%" />
        <stop stop-opacity="1" stop-color="rgb(51,51,51)" offset="100%" />
      </linearGradient>
      <linearGradient x1="198.37197875976562" gradientUnits="userSpaceOnUse" x2="199.38189697265625" y1="238.2325897216797" y2="239.4302978515625" id="1637876401120-linearGradient1" spreadMethod="pad">
        <stop stop-opacity="1" stop-color="black" offset="0%" />
        <stop stop-opacity="1" stop-color="rgb(51,51,51)" offset="100%" />
      </linearGradient>
      <linearGradient x1="40.67625045776367" gradientUnits="userSpaceOnUse" x2="39.13404846191406" y1="221.51902770996094" y2="221.7947998046875" id="1637876401798-linearGradient1" spreadMethod="pad">
        <stop stop-opacity="1" stop-color="black" offset="0%" />
        <stop stop-opacity="1" stop-color="red" offset="100%" />
      </linearGradient>
      <clipPath clipPathUnits="userSpaceOnUse" id="1637876401613-clipPath1">
        <path d="M-197.57333374023438 -182.57015991210938 L202.42666625976562 -182.57015991210938 L202.42666625976562 217.42984008789062 L-197.57333374023438 217.42984008789062 L-197.57333374023438 -182.57015991210938 Z" />
      </clipPath>
      <clipPath clipPathUnits="userSpaceOnUse" id="1637876401660-clipPath1">
        <path d="M-268.95281982421875 -139.55999755859375 L131.04718017578125 -139.55999755859375 L131.04718017578125 260.44000244140625 L-268.95281982421875 260.44000244140625 L-268.95281982421875 -139.55999755859375 Z" />
      </clipPath>
      <clipPath clipPathUnits="userSpaceOnUse" id="1637876401953-clipPath1">
        <path d="M-321.2778625488281 -135.06874084472656 L78.72212982177734 -135.06874084472656 L78.72212982177734 264.9312744140625 L-321.2778625488281 264.9312744140625 L-321.2778625488281 -135.06874084472656 Z" />
      </clipPath>
      <clipPath clipPathUnits="userSpaceOnUse" id="1637876401138-clipPath1">
        <path d="M-370.19268798828125 -192.7083282470703 L29.80731773376465 -192.7083282470703 L29.80731773376465 207.2916717529297 L-370.19268798828125 207.2916717529297 L-370.19268798828125 -192.7083282470703 Z" />
      </clipPath>
      <clipPath clipPathUnits="userSpaceOnUse" id="1637876401130-clipPath1">
        <path d="M-139.3069610595703 -124.9305648803711 L260.6930236816406 -124.9305648803711 L260.6930236816406 275.0694274902344 L-139.3069610595703 275.0694274902344 L-139.3069610595703 -124.9305648803711 Z" />
      </clipPath>
      <clipPath clipPathUnits="userSpaceOnUse" id="1637876401803-clipPath1">
        <path d="M-147.65599060058594 -224.66099548339844 L252.34400939941406 -224.66099548339844 L252.34400939941406 175.33900451660156 L-147.65599060058594 175.33900451660156 L-147.65599060058594 -224.66099548339844 Z" />
      </clipPath>
      <clipPath clipPathUnits="userSpaceOnUse" id="1637876401580-clipPath1">
        <path d="M-209.06639099121094 -246.84527587890625 L190.93360900878906 -246.84527587890625 L190.93360900878906 153.15472412109375 L-209.06639099121094 153.15472412109375 L-209.06639099121094 -246.84527587890625 Z" />
      </clipPath>
      <clipPath clipPathUnits="userSpaceOnUse" id="1637876401725-clipPath1">
        <path d="M-11.027068138122559 -215.7477569580078 L388.9729309082031 -215.7477569580078 L388.9729309082031 184.2522430419922 L-11.027068138122559 184.2522430419922 L-11.027068138122559 -215.7477569580078 Z" />
      </clipPath>
      <clipPath clipPathUnits="userSpaceOnUse" id="1637876401881-clipPath1">
        <path d="M156.7337188720703 128.08096313476562 C158.6510772705078 128.08096313476562 160.2053985595703 129.63528442382812 160.2053985595703 131.55264282226562 L160.2053985595703 138.49600219726562 C160.2053985595703 140.41334533691406 158.6510772705078 141.96768188476562 156.7337188720703 141.96768188476562 L143.8802032470703 141.96768188476562 C141.9628448486328 141.96768188476562 140.4085235595703 140.41334533691406 140.4085235595703 138.49600219726562 L140.4085235595703 131.55264282226562 C140.4085235595703 129.63528442382812 141.9628448486328 128.08096313476562 143.8802032470703 128.08096313476562 ZM328.9468078613281 138.21913146972656 C330.8641662597656 138.21913146972656 332.4184875488281 139.77345275878906 332.4184875488281 141.69081115722656 L332.4184875488281 148.63417053222656 C332.4184875488281 150.55152893066406 330.8641662597656 152.10585021972656 328.9468078613281 152.10585021972656 L325.6089172363281 152.10585021972656 C323.6915588378906 152.10585021972656 322.1372375488281 150.55152893066406 322.1372375488281 148.63417053222656 L322.1372375488281 141.69081115722656 C322.1372375488281 139.77345275878906 323.6915588378906 138.21913146972656 325.6089172363281 138.21913146972656 ZM286.93426513671875 142.71038818359375 C288.85162353515625 142.71038818359375 290.40594482421875 144.2647247314453 290.40594482421875 146.18206787109375 L290.40594482421875 153.12542724609375 C290.40594482421875 155.04278564453125 288.85162353515625 156.59710693359375 286.93426513671875 156.59710693359375 L272.97137451171875 156.59710693359375 C271.05401611328125 156.59710693359375 269.49969482421875 155.04278564453125 269.49969482421875 153.12542724609375 L269.49969482421875 146.18206787109375 C269.49969482421875 144.2647247314453 271.05401611328125 142.71038818359375 272.97137451171875 142.71038818359375 ZM203.42977905273438 185.86117553710938 C205.28240966796875 185.86117553710938 206.78427124023438 187.363037109375 206.78427124023438 189.21566772460938 L206.78427124023438 195.92465209960938 C206.78427124023438 197.77728271484375 205.28240966796875 199.27914428710938 203.42977905273438 199.27914428710938 L201.71688842773438 199.27914428710938 C199.8642578125 199.27914428710938 198.36239624023438 197.77728271484375 198.36239624023438 195.92465209960938 L198.36239624023438 189.21566772460938 C198.36239624023438 187.363037109375 199.8642578125 185.86117553710938 201.71688842773438 185.86117553710938 ZM388.17413330078125 195.8587188720703 C390.09149169921875 195.8587188720703 391.64581298828125 197.4130401611328 391.64581298828125 199.3303985595703 L391.64581298828125 206.2737579345703 C391.64581298828125 208.1911163330078 390.09149169921875 209.7454376220703 388.17413330078125 209.7454376220703 L374.21124267578125 209.7454376220703 C372.29388427734375 209.7454376220703 370.73956298828125 208.1911163330078 370.73956298828125 206.2737579345703 L370.73956298828125 199.3303985595703 C370.73956298828125 197.4130401611328 372.29388427734375 195.8587188720703 374.21124267578125 195.8587188720703 ZM18.696012496948242 218.8981475830078 C20.61336898803711 218.8981475830078 22.167692184448242 220.4524688720703 22.167692184448242 222.3698272705078 L22.167692184448242 229.3131866455078 C22.167692184448242 231.2305450439453 20.61336898803711 232.7848663330078 18.696012496948242 232.7848663330078 L15.358122825622559 232.7848663330078 C13.440766334533691 232.7848663330078 11.886443138122559 231.2305450439453 11.886443138122559 229.3131866455078 L11.886443138122559 222.3698272705078 C11.886443138122559 220.4524688720703 13.440766334533691 218.8981475830078 15.358122825622559 218.8981475830078 ZM153.51243591308594 227.95201110839844 C155.3650665283203 227.95201110839844 156.86692810058594 229.45387268066406 156.86692810058594 231.30650329589844 L156.86692810058594 238.01548767089844 C156.86692810058594 239.8681182861328 155.3650665283203 241.36997985839844 153.51243591308594 241.36997985839844 L151.79954528808594 241.36997985839844 C149.9468994140625 241.36997985839844 148.44505310058594 239.8681182861328 148.44505310058594 238.01548767089844 L148.44505310058594 231.30650329589844 C148.44505310058594 229.45387268066406 149.9468994140625 227.95201110839844 151.79954528808594 227.95201110839844 ZM214.92283630371094 250.13629150390625 C216.7754669189453 250.13629150390625 218.27732849121094 251.6381378173828 218.27732849121094 253.49078369140625 L218.27732849121094 260.19976806640625 C218.27732849121094 262.0523986816406 216.7754669189453 263.55426025390625 214.92283630371094 263.55426025390625 L213.20994567871094 263.55426025390625 C211.35731506347656 263.55426025390625 209.85545349121094 262.0523986816406 209.85545349121094 260.19976806640625 L209.85545349121094 253.49078369140625 C209.85545349121094 251.6381378173828 211.35731506347656 250.13629150390625 213.20994567871094 250.13629150390625 ZM0 0 L0 400 L400 400 L400 0 Z" />
      </clipPath>
      <clipPath clipPathUnits="userSpaceOnUse" id="1637876401222-clipPath1">
        <path d="M0 0 L400 0 L400 400 L0 400 L0 0 Z" />
      </clipPath>
    </defs>
    <g font-size="15" transform="translate(197.57333657894821,182.57015914430883)" fill="rgb(51,51,51)" text-rendering="optimizeLegibility" font-family="sans-serif" shape-rendering="geometricPrecision" stroke="rgb(51,51,51)">
      <text xml:space="preserve" x="0" y="16" clip-path="url(#1637876401613-clipPath1)" stroke="none">H
      </text>
    </g>
    <g font-size="15" transform="translate(268.95282423465846,139.5600049222943)" fill="red" text-rendering="optimizeLegibility" font-family="sans-serif" shape-rendering="geometricPrecision" stroke="red">
      <text xml:space="preserve" x="0" y="16" clip-path="url(#1637876401660-clipPath1)" stroke="none">OH
      </text>
    </g>
    <g font-size="15" transform="translate(321.2778725312244,135.06873599017592)" fill="red" text-rendering="optimizeLegibility" font-family="sans-serif" shape-rendering="geometricPrecision" stroke="red">
      <text xml:space="preserve" x="0" y="16" clip-path="url(#1637876401953-clipPath1)" stroke="none">O
      </text>
    </g>
    <g font-size="15" transform="translate(370.1926822864561,192.70832999101282)" fill="red" text-rendering="optimizeLegibility" font-family="sans-serif" shape-rendering="geometricPrecision" stroke="red">
      <text xml:space="preserve" x="0" y="16" clip-path="url(#1637876401138-clipPath1)" stroke="none">OH
      </text>
    </g>
    <g font-size="15" transform="translate(139.30696432371656,124.93056514347188)" fill="red" text-rendering="optimizeLegibility" font-family="sans-serif" shape-rendering="geometricPrecision" stroke="red">
      <text xml:space="preserve" x="0" y="16" clip-path="url(#1637876401130-clipPath1)" stroke="none">HO
      </text>
    </g>
    <g font-size="15" transform="translate(147.6559839104023,224.6609940749396)" fill="rgb(51,51,51)" text-rendering="optimizeLegibility" font-family="sans-serif" shape-rendering="geometricPrecision" stroke="rgb(51,51,51)">
      <text xml:space="preserve" x="0" y="16" clip-path="url(#1637876401803-clipPath1)" stroke="none">H
      </text>
    </g>
    <g font-size="15" transform="translate(209.066392561099,246.84527211025187)" fill="rgb(51,51,51)" text-rendering="optimizeLegibility" font-family="sans-serif" shape-rendering="geometricPrecision" stroke="rgb(51,51,51)">
      <text xml:space="preserve" x="0" y="16" clip-path="url(#1637876401580-clipPath1)" stroke="none">H
      </text>
    </g>
    <g font-size="15" transform="translate(11.027067713543905,215.74775396983964)" fill="red" text-rendering="optimizeLegibility" font-family="sans-serif" shape-rendering="geometricPrecision" stroke="red">
      <text xml:space="preserve" x="0" y="16" clip-path="url(#1637876401725-clipPath1)" stroke="none">O
      </text>
    </g>
    <g font-size="15" fill="url(#1637876401973-linearGradient1)" text-rendering="optimizeLegibility" font-family="sans-serif" shape-rendering="geometricPrecision" stroke="url(#1637876401973-linearGradient1)">
      <path d="M224.69436645507812 220.5115509033203 L225.8871612548828 221.5550537109375 L225.8871612548828 221.5550537109375 L227.2039794921875 220.44468688964844 L227.2039794921875 220.44468688964844 L226.376953125 219.09278869628906 L226.376953125 219.09278869628906 L224.69436645507812 220.5115509033203 ZM220.70594787597656 217.02235412597656 L221.89874267578125 218.06585693359375 L221.89874267578125 218.06585693359375 L224.43856811523438 215.9242401123047 L224.43856811523438 215.9242401123047 L223.6115264892578 214.57232666015625 L220.70594787597656 217.02235412597656 ZM216.71754455566406 213.53314208984375 L217.91033935546875 214.57664489746094 L217.91033935546875 214.57664489746094 L221.67315673828125 211.40379333496094 L220.8461151123047 210.0518798828125 L220.8461151123047 210.0518798828125 L216.71754455566406 213.53314208984375 ZM212.7291259765625 210.04393005371094 L213.9219207763672 211.08743286132812 L213.9219207763672 211.08743286132812 L218.90774536132812 206.8833465576172 L218.08070373535156 205.53143310546875 L218.08070373535156 205.53143310546875 L212.7291259765625 210.04393005371094 ZM208.74070739746094 206.5547332763672 L209.9335174560547 207.5982208251953 L209.9335174560547 207.5982208251953 L216.14231872558594 202.36289978027344 L216.14231872558594 202.36289978027344 L215.31527709960938 201.010986328125 L208.74070739746094 206.5547332763672 ZM204.75230407714844 203.06552124023438 L205.94509887695312 204.10902404785156 L205.94509887695312 204.10902404785156 L213.3769073486328 197.84243774414062 L213.3769073486328 197.84243774414062 L212.54986572265625 196.4905242919922 L208.65109252929688 199.7780303955078 L204.75230407714844 203.06552124023438 Z" clip-path="url(#1637876401881-clipPath1)" stroke="none" />
    </g>
    <g text-rendering="optimizeLegibility" font-size="15" shape-rendering="geometricPrecision" font-family="sans-serif">
      <path d="M226.87449645996094 221.38995361328125 L226.39370727539062 222.00839233398438 L252.8485565185547 248.042236328125 L257.2868347167969 245.0330047607422 L261.7251281738281 242.02377319335938 L227.3552703857422 220.7715301513672 Z" clip-path="url(#1637876401881-clipPath1)" stroke="none" />
    </g>
    <g text-rendering="optimizeLegibility" font-size="15" shape-rendering="geometricPrecision" font-family="sans-serif">
      <path d="M257.076171875 245.1758270263672 L288.27825927734375 224.02029418945312 C288.63641357421875 223.7774658203125 288.7298583984375 223.2904815673828 288.4870300292969 222.93234252929688 C288.24420166015625 222.57418823242188 287.7572021484375 222.48074340820312 287.3990783691406 222.7235870361328 L256.1969909667969 243.87911987304688 C255.83883666992188 244.1219482421875 255.74539184570312 244.6089324951172 255.98822021484375 244.96707153320312 C256.2310485839844 245.32522583007812 256.718017578125 245.4186553955078 257.076171875 245.1758270263672 Z" clip-path="url(#1637876401881-clipPath1)" stroke="none" />
    </g>
    <g text-rendering="optimizeLegibility" font-size="15" shape-rendering="geometricPrecision" font-family="sans-serif">
      <path d="M288.59112548828125 223.15420532226562 L278.11297607421875 186.9418487548828 C277.9927062988281 186.52618408203125 277.5584411621094 186.28683471679688 277.1427917480469 186.4071044921875 C276.7271423339844 186.52737426757812 276.48779296875 186.96163940429688 276.6080627441406 187.37730407714844 L287.0862121582031 223.58966064453125 C287.20648193359375 224.0053253173828 287.6407470703125 224.2446746826172 288.056396484375 224.12440490722656 C288.4720458984375 224.00413513183594 288.7113952636719 223.5698699951172 288.59112548828125 223.15420532226562 Z" clip-path="url(#1637876401881-clipPath1)" stroke="none" />
    </g>
    <g font-size="15" fill="url(#1637876401710-linearGradient1)" text-rendering="optimizeLegibility" font-family="sans-serif" shape-rendering="geometricPrecision" stroke="url(#1637876401710-linearGradient1)">
      <path d="M276.360595703125 186.2820281982422 L276.5792236328125 187.21609497070312 L277.36053466796875 187.15957641601562 L278.1418151855469 187.10304260253906 L278.2237243652344 186.14724731445312 L276.360595703125 186.2820281982422 ZM275.1515808105469 181.11727905273438 L275.5131530761719 182.66188049316406 L275.5131530761719 182.66188049316406 L278.541259765625 182.44281005859375 L278.541259765625 182.44281005859375 L278.6767272949219 180.86224365234375 L278.6767272949219 180.86224365234375 L275.1515808105469 181.11727905273438 ZM273.9425964355469 175.95252990722656 L274.3041687011719 177.4971160888672 L274.3041687011719 177.4971160888672 L278.9942321777344 177.15780639648438 L278.9942321777344 177.15780639648438 L279.12969970703125 175.57725524902344 L279.12969970703125 175.57725524902344 L273.9425964355469 175.95252990722656 ZM272.7336120605469 170.7877655029297 L273.0951843261719 172.33236694335938 L273.0951843261719 172.33236694335938 L279.4472351074219 171.87281799316406 L279.4472351074219 171.87281799316406 L279.58270263671875 170.29226684570312 L272.7336120605469 170.7877655029297 ZM271.5246276855469 165.62301635742188 L271.8861999511719 167.16761779785156 L271.8861999511719 167.16761779785156 L279.90020751953125 166.58782958984375 L280.0356750488281 165.00726318359375 L271.5246276855469 165.62301635742188 ZM270.3156433105469 160.458251953125 L270.67718505859375 162.0028533935547 L280.35321044921875 161.30282592773438 L280.4886779785156 159.72227478027344 L275.40216064453125 160.09027099609375 L270.3156433105469 160.458251953125 Z" clip-path="url(#1637876401881-clipPath1)" stroke="none" />
    </g>
    <g text-rendering="optimizeLegibility" font-size="15" shape-rendering="geometricPrecision" font-family="sans-serif">
      <path d="M277.36053466796875 187.15957641601562 L277.4984130859375 187.93067932128906 L319.15625 184.86676025390625 L315.36016845703125 180.36483764648438 L311.5640869140625 175.8629150390625 L277.2226257324219 186.3884735107422 Z" clip-path="url(#1637876401881-clipPath1)" stroke="none" />
    </g>
    <g font-size="15" fill="url(#1637876401168-linearGradient1)" text-rendering="optimizeLegibility" font-family="sans-serif" shape-rendering="geometricPrecision" stroke="url(#1637876401168-linearGradient1)">
      <path d="M309.87652587890625 180.94749450683594 C309.7295227050781 181.35446166992188 309.9401550292969 181.80335998535156 310.3471374511719 181.9503631591797 C310.75408935546875 182.09738159179688 311.2029724121094 181.88674926757812 311.3500061035156 181.4797821044922 L321.2762756347656 154.00189208984375 C321.4233093261719 153.5949249267578 321.212646484375 153.14602661132812 320.8056945800781 152.99900817871094 C320.3987121582031 152.8520050048828 319.9498291015625 153.06263732910156 319.8028259277344 153.4696044921875 ZM316.25848388671875 183.25294494628906 C316.1114807128906 183.659912109375 316.3221130371094 184.1088104248047 316.7290954589844 184.25582885742188 C317.13604736328125 184.40284729003906 317.5849304199219 184.19219970703125 317.7319641113281 183.7852325439453 L327.6582336425781 156.30734252929688 C327.8052673339844 155.90037536621094 327.5946044921875 155.4514923095703 327.1876525878906 155.30447387695312 C326.7806701660156 155.15745544433594 326.331787109375 155.3680877685547 326.1847839355469 155.77505493164062 Z" clip-path="url(#1637876401881-clipPath1)" stroke="none" />
    </g>
    <g text-rendering="optimizeLegibility" font-size="15" shape-rendering="geometricPrecision" font-family="sans-serif">
      <path d="M313.87091064453125 181.0290069580078 L338.1720886230469 209.8488006591797 C338.4510192871094 210.1796112060547 338.9450988769531 210.2216339111328 339.27587890625 209.9427032470703 C339.606689453125 209.66375732421875 339.6487121582031 209.16969299316406 339.3697814941406 208.83888244628906 L315.0686340332031 180.0190887451172 C314.7897033691406 179.68829345703125 314.2956237792969 179.64625549316406 313.9648132324219 179.92520141601562 C313.6340026855469 180.20413208007812 313.59197998046875 180.69821166992188 313.87091064453125 181.0290069580078 Z" clip-path="url(#1637876401881-clipPath1)" stroke="none" />
    </g>
    <g font-size="15" fill="url(#1637876401993-linearGradient1)" text-rendering="optimizeLegibility" font-family="sans-serif" shape-rendering="geometricPrecision" stroke="url(#1637876401993-linearGradient1)">
      <path d="M338.9088134765625 210.1149444580078 L367.6551513671875 204.9748077392578 C368.08111572265625 204.8986358642578 368.3645324707031 204.4917755126953 368.2883605957031 204.06582641601562 C368.21221923828125 203.63987731933594 367.8053283691406 203.3564453125 367.37939453125 203.43260192871094 L338.633056640625 208.57275390625 C338.20709228515625 208.64891052246094 337.9236755371094 209.05577087402344 337.99981689453125 209.4817352294922 C338.07598876953125 209.90768432617188 338.48284912109375 210.1911163330078 338.9088134765625 210.1149444580078 Z" clip-path="url(#1637876401881-clipPath1)" stroke="none" />
    </g>
    <g text-rendering="optimizeLegibility" font-size="15" shape-rendering="geometricPrecision" font-family="sans-serif">
      <path d="M277.385986328125 186.37664794921875 L239.70803833007812 185.15171813964844 C239.2755584716797 185.13766479492188 238.91372680664062 185.47671508789062 238.89967346191406 185.9091796875 C238.8856201171875 186.34165954589844 239.2246551513672 186.7034912109375 239.65713500976562 186.71755981445312 L277.3350524902344 187.94248962402344 C277.7675476074219 187.95654296875 278.1293640136719 187.6175079345703 278.1434326171875 187.18502807617188 C278.1575012207031 186.75254821777344 277.8184509277344 186.39071655273438 277.385986328125 186.37664794921875 Z" clip-path="url(#1637876401881-clipPath1)" stroke="none" />
    </g>
    <g text-rendering="optimizeLegibility" font-size="15" shape-rendering="geometricPrecision" font-family="sans-serif">
      <path d="M227.61122131347656 221.65609741210938 L240.41932678222656 186.20079040527344 C240.56634521484375 185.7938232421875 240.35569763183594 185.3449249267578 239.94873046875 185.19790649414062 C239.54176330566406 185.05088806152344 239.09286499023438 185.26153564453125 238.94586181640625 185.6685028076172 L226.13775634765625 221.12380981445312 C225.99073791503906 221.53077697753906 226.20138549804688 221.97967529296875 226.6083526611328 222.12669372558594 C227.01531982421875 222.27371215820312 227.46420288085938 222.0630645751953 227.61122131347656 221.65609741210938 Z" clip-path="url(#1637876401881-clipPath1)" stroke="none" />
    </g>
    <g text-rendering="optimizeLegibility" font-size="15" shape-rendering="geometricPrecision" font-family="sans-serif">
      <path d="M239.68258666992188 185.9346466064453 L240.38746643066406 186.27633666992188 L260.7156677246094 154.2369384765625 L256.1266174316406 152.01235961914062 L251.53756713867188 149.7877960205078 L238.9777069091797 185.5929412841797 Z" clip-path="url(#1637876401881-clipPath1)" stroke="none" />
    </g>
    <g text-rendering="optimizeLegibility" font-size="15" shape-rendering="geometricPrecision" font-family="sans-serif">
      <path d="M239.68258666992188 185.9346466064453 L240.2814483642578 185.4296875 L220.5951690673828 155.38681030273438 L214.79835510253906 156.42333984375 L209.0015411376953 157.4598846435547 L239.083740234375 186.43960571289062 Z" clip-path="url(#1637876401881-clipPath1)" stroke="none" />
    </g>
    <g text-rendering="optimizeLegibility" font-size="15" shape-rendering="geometricPrecision" font-family="sans-serif">
      <path d="M215.24356079101562 156.34373474121094 L178.13430786132812 162.97926330566406 C177.70834350585938 163.055419921875 177.42491149902344 163.46229553222656 177.50108337402344 163.88824462890625 C177.57723999023438 164.31419372558594 177.98411560058594 164.59762573242188 178.41006469726562 164.52146911621094 L215.51931762695312 157.8859405517578 C215.9452667236328 157.80978393554688 216.22869873046875 157.4029083251953 216.1525421142578 156.97695922851562 C216.0763702392578 156.55101013183594 215.6695098876953 156.267578125 215.24356079101562 156.34373474121094 Z" clip-path="url(#1637876401881-clipPath1)" stroke="none" />
    </g>
    <g font-size="15" fill="url(#1637876401380-linearGradient1)" text-rendering="optimizeLegibility" font-family="sans-serif" shape-rendering="geometricPrecision" stroke="url(#1637876401380-linearGradient1)">
      <path d="M178.27218627929688 163.7503662109375 L178.87103271484375 163.2454071044922 L165.01718139648438 140.11944580078125 L161.11839294433594 143.4069366455078 L157.21961975097656 146.69444274902344 L177.67332458496094 164.2553253173828 Z" clip-path="url(#1637876401881-clipPath1)" stroke="none" />
    </g>
    <g text-rendering="optimizeLegibility" font-size="15" shape-rendering="geometricPrecision" font-family="sans-serif">
      <path d="M165.46408081054688 199.20567321777344 L166.20082092285156 199.47181701660156 L184.37631225585938 161.86312866210938 L178.65574645996094 162.88601684570312 L174.6290283203125 158.8251495361328 L164.72735595703125 198.9395294189453 Z" clip-path="url(#1637876401881-clipPath1)" stroke="none" />
    </g>
    <g font-size="15" fill="url(#1637876401706-linearGradient1)" text-rendering="optimizeLegibility" font-family="sans-serif" shape-rendering="geometricPrecision" stroke="url(#1637876401706-linearGradient1)">
      <path d="M165.88795471191406 201.0755615234375 L166.1915283203125 199.51947021484375 L166.1915283203125 199.51947021484375 L164.7040557861328 198.98211669921875 L164.7040557861328 198.98211669921875 L163.9430389404297 200.37295532226562 L163.9430389404297 200.37295532226562 L165.88795471191406 201.0755615234375 ZM164.8729248046875 206.27874755859375 L165.17649841308594 204.72265625 L165.17649841308594 204.72265625 L162.159423828125 203.63275146484375 L162.159423828125 203.63275146484375 L161.39842224121094 205.02359008789062 L164.8729248046875 206.27874755859375 ZM163.85789489746094 211.48193359375 L164.16146850585938 209.92584228515625 L164.16146850585938 209.92584228515625 L159.61480712890625 208.2833709716797 L159.61480712890625 208.2833709716797 L158.85379028320312 209.67420959472656 L158.85379028320312 209.67420959472656 L163.85789489746094 211.48193359375 ZM162.84286499023438 216.68511962890625 L163.1464385986328 215.1290283203125 L163.1464385986328 215.1290283203125 L157.07017517089844 212.9340057373047 L156.30917358398438 214.32484436035156 L156.30917358398438 214.32484436035156 L162.84286499023438 216.68511962890625 ZM161.8278350830078 221.8883056640625 L162.13140869140625 220.33221435546875 L162.13140869140625 220.33221435546875 L154.5255584716797 217.58462524414062 L153.76454162597656 218.9754638671875 L153.76454162597656 218.9754638671875 L161.8278350830078 221.8883056640625 ZM160.81280517578125 227.09149169921875 L161.1163787841797 225.535400390625 L151.98092651367188 222.23526000976562 L151.98092651367188 222.23526000976562 L151.2199249267578 223.6260986328125 L156.01637268066406 225.35879516601562 L160.81280517578125 227.09149169921875 Z" clip-path="url(#1637876401881-clipPath1)" stroke="none" />
    </g>
    <g text-rendering="optimizeLegibility" font-size="15" shape-rendering="geometricPrecision" font-family="sans-serif">
      <path d="M164.865234375 199.71063232421875 L189.1663818359375 228.53042602539062 C189.44532775878906 228.86123657226562 189.93939208984375 228.90325927734375 190.27020263671875 228.62432861328125 C190.6009979248047 228.34539794921875 190.6430206298828 227.851318359375 190.3640899658203 227.5205078125 L166.0629425048828 198.70071411132812 C165.78399658203125 198.3699188232422 165.28993225097656 198.32789611816406 164.95912170410156 198.60682678222656 C164.62832641601562 198.88575744628906 164.58628845214844 199.3798370361328 164.865234375 199.71063232421875 Z" clip-path="url(#1637876401881-clipPath1)" stroke="none" />
    </g>
    <g text-rendering="optimizeLegibility" font-size="15" shape-rendering="geometricPrecision" font-family="sans-serif">
      <path d="M226.7366180419922 220.6188507080078 L189.6273651123047 227.25437927246094 C189.20140075683594 227.33053588867188 188.91796875 227.73739624023438 188.994140625 228.16336059570312 C189.07029724121094 228.5893096923828 189.4771728515625 228.87274169921875 189.9031219482422 228.79656982421875 L227.0123748779297 222.1610565185547 C227.43832397460938 222.08489990234375 227.7217559814453 221.6780242919922 227.64559936523438 221.2520751953125 C227.56942749023438 220.8261260986328 227.16256713867188 220.54269409179688 226.7366180419922 220.6188507080078 Z" clip-path="url(#1637876401881-clipPath1)" stroke="none" />
    </g>
    <g font-size="15" fill="url(#1637876401120-linearGradient1)" text-rendering="optimizeLegibility" font-family="sans-serif" shape-rendering="geometricPrecision" stroke="url(#1637876401120-linearGradient1)">
      <path d="M189.76524353027344 228.02548217773438 L189.1663818359375 228.5304412841797 L204.08985900878906 252.92489624023438 L207.9886474609375 249.6374053955078 L211.88742065429688 246.34991455078125 L190.3640899658203 227.52052307128906 Z" clip-path="url(#1637876401881-clipPath1)" stroke="none" />
    </g>
    <g text-rendering="optimizeLegibility" font-size="15" shape-rendering="geometricPrecision" font-family="sans-serif">
      <path d="M189.76524353027344 228.02548217773438 L189.02850341796875 227.75933837890625 L170.85301208496094 265.3680419921875 L176.6498260498047 264.3315124511719 L182.44664001464844 263.2949523925781 L190.50196838378906 228.29161071777344 Z" clip-path="url(#1637876401881-clipPath1)" stroke="none" />
    </g>
    <g text-rendering="optimizeLegibility" font-size="15" shape-rendering="geometricPrecision" font-family="sans-serif">
      <path d="M176.8192596435547 262.7096862792969 L139.7100067138672 269.34521484375 C139.2840576171875 269.42138671875 139.00062561035156 269.8282470703125 139.0767822265625 270.2541809082031 C139.1529541015625 270.6801452636719 139.559814453125 270.96356201171875 139.9857635498047 270.8874206542969 L177.0950164794922 264.25189208984375 C177.52096557617188 264.17572021484375 177.8043975830078 263.76885986328125 177.72824096679688 263.3428955078125 C177.65206909179688 262.9169616699219 177.24520874023438 262.6335144042969 176.8192596435547 262.7096862792969 Z" clip-path="url(#1637876401881-clipPath1)" stroke="none" />
    </g>
    <g text-rendering="optimizeLegibility" font-size="15" shape-rendering="geometricPrecision" font-family="sans-serif">
      <path d="M140.4467315673828 269.6113586425781 L116.14558410644531 240.7915496826172 C115.86664581298828 240.46075439453125 115.37257385253906 240.41873168945312 115.0417709350586 240.69766235351562 C114.71096801757812 240.97659301757812 114.66893768310547 241.47067260742188 114.9478759765625 241.8014678955078 L139.24903869628906 270.62127685546875 C139.52796936035156 270.9520568847656 140.02203369140625 270.9941101074219 140.35284423828125 270.71514892578125 C140.6836395263672 270.43621826171875 140.72567749023438 269.9421691894531 140.4467315673828 269.6113586425781 Z" clip-path="url(#1637876401881-clipPath1)" stroke="none" />
    </g>
    <g text-rendering="optimizeLegibility" font-size="15" shape-rendering="geometricPrecision" font-family="sans-serif">
      <path d="M115.68460845947266 242.06761169433594 C116.11056518554688 241.991455078125 116.39399719238281 241.58457946777344 116.31783294677734 241.15863037109375 C116.24166870117188 240.73268127441406 115.83480072021484 240.44924926757812 115.40885162353516 240.52540588378906 L78.29959106445312 247.1609344482422 C77.87364196777344 247.23709106445312 77.5902099609375 247.6439666748047 77.66637420654297 248.06991577148438 C77.74253845214844 248.49586486816406 78.14939880371094 248.779296875 78.57535552978516 248.70314025878906 ZM109.86260986328125 236.2154083251953 C110.28855895996094 236.13925170898438 110.57199096679688 235.7323760986328 110.4958267211914 235.30642700195312 C110.41966247558594 234.88047790527344 110.01280212402344 234.5970458984375 109.58684539794922 234.6732177734375 L81.7328109741211 239.65379333496094 C81.30685424804688 239.72996520996094 81.02342224121094 240.13682556152344 81.0995864868164 240.5627899169922 C81.17575073242188 240.98873901367188 81.5826187133789 241.2721710205078 82.00857543945312 241.1959991455078 Z" clip-path="url(#1637876401881-clipPath1)" stroke="none" />
    </g>
    <g text-rendering="optimizeLegibility" font-size="15" shape-rendering="geometricPrecision" font-family="sans-serif">
      <path d="M79.03633117675781 247.4270782470703 L54.73517608642578 218.60728454589844 C54.45623779296875 218.27647399902344 53.96216583251953 218.2344512939453 53.63136291503906 218.5133819580078 C53.300559997558594 218.7923126220703 53.2585334777832 219.28639221191406 53.53746795654297 219.61720275878906 L77.838623046875 248.43699645996094 C78.11756134033203 248.76779174804688 78.61163330078125 248.809814453125 78.94243621826172 248.5308837890625 C79.27323913574219 248.251953125 79.31526947021484 247.75787353515625 79.03633117675781 247.4270782470703 Z" clip-path="url(#1637876401881-clipPath1)" stroke="none" />
    </g>
    <g font-size="15" fill="url(#1637876401798-linearGradient1)" text-rendering="optimizeLegibility" font-family="sans-serif" shape-rendering="geometricPrecision" stroke="url(#1637876401798-linearGradient1)">
      <path d="M56.799652099609375 222.8783721923828 C57.22560501098633 222.80221557617188 57.509037017822266 222.3953399658203 57.4328727722168 221.96939086914062 C57.35670852661133 221.54344177246094 56.94984436035156 221.260009765625 56.52389144897461 221.336181640625 L26.13329315185547 226.77032470703125 C25.707340240478516 226.84649658203125 25.423908233642578 227.25335693359375 25.500072479248047 227.67930603027344 C25.576236724853516 228.1052703857422 25.98310089111328 228.38870239257812 26.409053802490234 228.31253051757812 ZM55.60525894165039 216.19871520996094 C56.031211853027344 216.12254333496094 56.31464385986328 215.71568298339844 56.23847961425781 215.28973388671875 C56.162315368652344 214.86378479003906 55.75545120239258 214.58033752441406 55.329498291015625 214.65650939941406 L24.93889808654785 220.09066772460938 C24.51294708251953 220.1668243408203 24.229515075683594 220.57369995117188 24.305679321289062 220.99964904785156 C24.38184356689453 221.42559814453125 24.788707733154297 221.7090301513672 25.21466064453125 221.6328582763672 Z" clip-path="url(#1637876401881-clipPath1)" stroke="none" />
    </g>
    <g text-rendering="optimizeLegibility" font-size="15" shape-rendering="geometricPrecision" font-family="sans-serif">
      <path d="M54.87305450439453 219.3783721923828 L67.68115234375 183.92306518554688 C67.82817077636719 183.51609802246094 67.6175308227539 183.06719970703125 67.21056365966797 182.92018127441406 C66.80359649658203 182.77316284179688 66.35469818115234 182.9838104248047 66.20768737792969 183.39077758789062 L53.39958953857422 218.84609985351562 C53.25257110595703 219.25306701660156 53.46321105957031 219.7019500732422 53.87017822265625 219.84896850585938 C54.27714538574219 219.99598693847656 54.72603988647461 219.78533935546875 54.87305450439453 219.3783721923828 Z" clip-path="url(#1637876401881-clipPath1)" stroke="none" />
    </g>
    <g text-rendering="optimizeLegibility" font-size="15" shape-rendering="geometricPrecision" font-family="sans-serif">
      <path d="M67.0822982788086 184.4280242919922 L104.19155883789062 177.79249572753906 C104.61750793457031 177.71633911132812 104.90093994140625 177.30946350097656 104.82477569580078 176.88351440429688 C104.74861145019531 176.4575653076172 104.34175109863281 176.17413330078125 103.9157943725586 176.25030517578125 L66.8065414428711 182.8858184814453 C66.38058471679688 182.96197509765625 66.09715270996094 183.3688507080078 66.1733169555664 183.7947998046875 C66.24948120117188 184.2207489013672 66.6563491821289 184.50418090820312 67.0822982788086 184.4280242919922 Z" clip-path="url(#1637876401881-clipPath1)" stroke="none" />
    </g>
    <g text-rendering="optimizeLegibility" font-size="15" shape-rendering="geometricPrecision" font-family="sans-serif">
      <path d="M128.35482788085938 205.84120178222656 L128.9536895751953 205.33624267578125 L109.26741790771484 175.2933807373047 L103.47059631347656 176.3299102783203 L97.67378234863281 177.36643981933594 L127.75597381591797 206.34616088867188 Z" clip-path="url(#1637876401881-clipPath1)" stroke="none" />
    </g>
    <g text-rendering="optimizeLegibility" font-size="15" shape-rendering="geometricPrecision" font-family="sans-serif">
      <path d="M165.32620239257812 198.4345703125 L128.21694946289062 205.07009887695312 C127.79100036621094 205.14625549316406 127.50756072998047 205.55313110351562 127.58372497558594 205.9790802001953 C127.6598892211914 206.405029296875 128.06675720214844 206.68846130371094 128.49270629882812 206.6123046875 L165.60195922851562 199.97677612304688 C166.0279083251953 199.90061950683594 166.3113555908203 199.49374389648438 166.2351837158203 199.0677947998047 C166.1590118408203 198.641845703125 165.7521514892578 198.35841369628906 165.32620239257812 198.4345703125 Z" clip-path="url(#1637876401881-clipPath1)" stroke="none" />
    </g>
    <g text-rendering="optimizeLegibility" font-size="15" shape-rendering="geometricPrecision" font-family="sans-serif">
      <path d="M116.28346252441406 241.56265258789062 L129.09156799316406 206.1073455810547 C129.2385711669922 205.70037841796875 129.02793884277344 205.25148010253906 128.6209716796875 205.10446166992188 C128.21400451660156 204.9574432373047 127.7651138305664 205.1680908203125 127.61809539794922 205.57505798339844 L114.80999755859375 241.03036499023438 C114.66297912597656 241.4373321533203 114.87361907958984 241.88623046875 115.28058624267578 242.0332489013672 C115.68755340576172 242.18026733398438 116.1364517211914 241.96961975097656 116.28346252441406 241.56265258789062 Z" clip-path="url(#1637876401881-clipPath1)" stroke="none" />
    </g>
    <g text-rendering="optimizeLegibility" font-size="15" shape-rendering="geometricPrecision" font-family="sans-serif">
      <path d="M128.35482788085938 205.84120178222656 L129.09156799316406 206.1073455810547 L145.95936584472656 172.1185760498047 L141.16293334960938 170.38587951660156 L136.36648559570312 168.65318298339844 L127.61809539794922 205.57505798339844 Z" clip-path="url(#1637876401881-clipPath1)" stroke="none" />
    </g>
  </g>
</svg>