<svg xmlns="http://www.w3.org/2000/svg" viewBox="0 0 400 400">
  <defs id="genericDefs" />
  <g>
    <defs id="1391119179491-defs1">
      <clipPath clipPathUnits="userSpaceOnUse" id="1391119179420-clipPath1">
        <path d="M0 0 L0 400 L400 400 L400 0 Z" />
      </clipPath>
      <clipPath clipPathUnits="userSpaceOnUse" id="1391119179593-clipPath1">
        <path d="M0 0 L400 0 L400 400 L0 400 L0 0 Z" />
      </clipPath>
    </defs>
    <g text-rendering="optimizeLegibility" shape-rendering="geometricPrecision">
      <path d="M31.389320373535156 201.1122283935547 L108.9777603149414 245.90792846679688 C109.86834716796875 246.422119140625 111.00662994384766 246.1171112060547 111.52081298828125 245.22653198242188 C112.03498840332031 244.3359375 111.72998809814453 243.19766235351562 110.83940124511719 242.68348693847656 L33.25096130371094 197.8877716064453 C32.360374450683594 197.37359619140625 31.222091674804688 197.6785888671875 30.70791244506836 198.56918334960938 C30.19373321533203 199.4597625732422 30.498735427856445 200.59805297851562 31.389320373535156 201.1122283935547 Z" clip-path="url(#1391119179420-clipPath1)" stroke="none" />
    </g>
    <g text-rendering="optimizeLegibility" shape-rendering="geometricPrecision">
      <path d="M111.77022552490234 244.29571533203125 L111.77022552490234 154.7042999267578 C111.77022552490234 153.67593383789062 110.93694305419922 152.8426513671875 109.90858459472656 152.8426513671875 C108.8802261352539 152.8426513671875 108.04694366455078 153.67593383789062 108.04694366455078 154.7042999267578 L108.04694366455078 244.29571533203125 C108.04694366455078 245.32406616210938 108.8802261352539 246.1573486328125 109.90858459472656 246.1573486328125 C110.93694305419922 246.1573486328125 111.77022552490234 245.32406616210938 111.77022552490234 244.29571533203125 Z" clip-path="url(#1391119179420-clipPath1)" stroke="none" />
    </g>
    <g text-rendering="optimizeLegibility" shape-rendering="geometricPrecision">
      <path d="M33.25096130371094 201.1122283935547 L110.83940124511719 156.31651306152344 C111.72998809814453 155.80233764648438 112.03498840332031 154.6640625 111.52081298828125 153.77346801757812 C111.00662994384766 152.8828887939453 109.86834716796875 152.577880859375 108.9777603149414 153.09207153320312 L31.389320373535156 197.8877716064453 C30.498735427856445 198.40194702148438 30.19373321533203 199.5402374267578 30.70791244506836 200.43081665039062 C31.222091674804688 201.3214111328125 32.360374450683594 201.62640380859375 33.25096130371094 201.1122283935547 Z" clip-path="url(#1391119179420-clipPath1)" stroke="none" />
    </g>
    <g text-rendering="optimizeLegibility" shape-rendering="geometricPrecision">
      <path d="M109.90858459472656 156.56593322753906 L199.5 156.56593322753906 C200.52835083007812 156.56593322753906 201.36163330078125 155.73265075683594 201.36163330078125 154.70428466796875 C201.36163330078125 153.67593383789062 200.52835083007812 152.8426513671875 199.5 152.8426513671875 L109.90858459472656 152.8426513671875 C108.8802261352539 152.8426513671875 108.04694366455078 153.67593383789062 108.04694366455078 154.70428466796875 C108.04694366455078 155.73265075683594 108.8802261352539 156.56593322753906 109.90858459472656 156.56593322753906 Z" clip-path="url(#1391119179420-clipPath1)" stroke="none" />
    </g>
    <g text-rendering="optimizeLegibility" shape-rendering="geometricPrecision">
      <path d="M199.5 156.56593322753906 L289.0914001464844 156.56593322753906 C290.1197814941406 156.56593322753906 290.95306396484375 155.73265075683594 290.95306396484375 154.70428466796875 C290.95306396484375 153.67593383789062 290.1197814941406 152.8426513671875 289.0914001464844 152.8426513671875 L199.5 152.8426513671875 C198.4716339111328 152.8426513671875 197.63836669921875 153.67593383789062 197.63836669921875 154.70428466796875 C197.63836669921875 155.73265075683594 198.4716339111328 156.56593322753906 199.5 156.56593322753906 Z" clip-path="url(#1391119179420-clipPath1)" stroke="none" />
    </g>
    <g text-rendering="optimizeLegibility" shape-rendering="geometricPrecision">
      <path d="M288.16058349609375 156.31651306152344 L365.7490234375 201.1122283935547 C366.6396179199219 201.62640380859375 367.77789306640625 201.3214111328125 368.2920837402344 200.43081665039062 C368.8062744140625 199.5402374267578 368.5012512207031 198.40194702148438 367.6106872558594 197.8877716064453 L290.0222473144531 153.09207153320312 C289.13165283203125 152.577880859375 287.9933776855469 152.8828887939453 287.47918701171875 153.77346801757812 C286.9649963378906 154.6640625 287.27001953125 155.80233764648438 288.16058349609375 156.31651306152344 Z" clip-path="url(#1391119179420-clipPath1)" stroke="none" />
    </g>
    <g text-rendering="optimizeLegibility" shape-rendering="geometricPrecision">
      <path d="M365.7490539550781 197.8877716064453 L288.16058349609375 242.68348693847656 C287.27001953125 243.19766235351562 286.9649963378906 244.3359375 287.47918701171875 245.22653198242188 C287.9933776855469 246.1171112060547 289.13165283203125 246.422119140625 290.0222473144531 245.90792846679688 L367.6106872558594 201.1122283935547 C368.5012512207031 200.59805297851562 368.8062744140625 199.4597625732422 368.2920837402344 198.56918334960938 C367.77789306640625 197.6785888671875 366.6396179199219 197.37359619140625 365.7490539550781 197.8877716064453 Z" clip-path="url(#1391119179420-clipPath1)" stroke="none" />
    </g>
    <g text-rendering="optimizeLegibility" shape-rendering="geometricPrecision">
      <path d="M287.2297668457031 154.70428466796875 L287.2297668457031 244.2957000732422 C287.2297668457031 245.32406616210938 288.06304931640625 246.1573486328125 289.0914306640625 246.1573486328125 C290.1197814941406 246.1573486328125 290.95306396484375 245.32406616210938 290.95306396484375 244.2957000732422 L290.95306396484375 154.70428466796875 C290.95306396484375 153.67593383789062 290.1197814941406 152.8426513671875 289.0914306640625 152.8426513671875 C288.06304931640625 152.8426513671875 287.2297668457031 153.67593383789062 287.2297668457031 154.70428466796875 Z" clip-path="url(#1391119179420-clipPath1)" stroke="none" />
    </g>
    <g text-rendering="optimizeLegibility" shape-rendering="geometricPrecision">
      <path d="M289.0914306640625 242.43406677246094 L199.5 242.43406677246094 C198.47164916992188 242.43406677246094 197.63836669921875 243.26734924316406 197.63836669921875 244.29571533203125 C197.63836669921875 245.32406616210938 198.47164916992188 246.1573486328125 199.5 246.1573486328125 L289.0914306640625 246.1573486328125 C290.1197814941406 246.1573486328125 290.95306396484375 245.32406616210938 290.95306396484375 244.29571533203125 C290.95306396484375 243.26734924316406 290.1197814941406 242.43406677246094 289.0914306640625 242.43406677246094 Z" clip-path="url(#1391119179420-clipPath1)" stroke="none" />
    </g>
    <g text-rendering="optimizeLegibility" shape-rendering="geometricPrecision">
      <path d="M109.90858459472656 246.1573486328125 L199.5 246.1573486328125 C200.52835083007812 246.1573486328125 201.36163330078125 245.32406616210938 201.36163330078125 244.29571533203125 C201.36163330078125 243.26734924316406 200.52835083007812 242.43406677246094 199.5 242.43406677246094 L109.90858459472656 242.43406677246094 C108.8802261352539 242.43406677246094 108.04694366455078 243.26734924316406 108.04694366455078 244.29571533203125 C108.04694366455078 245.32406616210938 108.8802261352539 246.1573486328125 109.90858459472656 246.1573486328125 Z" clip-path="url(#1391119179420-clipPath1)" stroke="none" />
    </g>
    <g text-rendering="optimizeLegibility" shape-rendering="geometricPrecision">
      <path d="M197.63836669921875 154.70428466796875 L197.63836669921875 244.2957000732422 C197.63836669921875 245.32406616210938 198.4716339111328 246.1573486328125 199.5 246.1573486328125 C200.5283660888672 246.1573486328125 201.36163330078125 245.32406616210938 201.36163330078125 244.2957000732422 L201.36163330078125 154.70428466796875 C201.36163330078125 153.67593383789062 200.5283660888672 152.8426513671875 199.5 152.8426513671875 C198.4716339111328 152.8426513671875 197.63836669921875 153.67593383789062 197.63836669921875 154.70428466796875 Z" clip-path="url(#1391119179420-clipPath1)" stroke="none" />
    </g>
  </g>
</svg>