<svg xmlns="http://www.w3.org/2000/svg" viewBox="0 0 400 400">
  <defs id="genericDefs" />
  <g>
    <defs id="405488475915-defs1">
      <clipPath clipPathUnits="userSpaceOnUse" id="405488475642-clipPath1">
        <path d="M0 0 L0 400 L400 400 L400 0 Z" />
      </clipPath>
      <clipPath clipPathUnits="userSpaceOnUse" id="405488475663-clipPath1">
        <path d="M0 0 L400 0 L400 400 L0 400 L0 0 Z" />
      </clipPath>
    </defs>
    <g text-rendering="optimizeLegibility" shape-rendering="geometricPrecision">
      <path d="M19.64778709411621 184.91249084472656 L35.672096252441406 240.2923583984375 C35.85602951049805 240.9280242919922 36.5201530456543 241.2940673828125 37.155818939208984 241.11013793945312 C37.79148864746094 240.92620849609375 38.15753173828125 240.2620849609375 37.97359848022461 239.6264190673828 L21.949289321899414 184.24655151367188 C21.765356063842773 183.6108856201172 21.101232528686523 183.24484252929688 20.465564727783203 183.42877197265625 C19.829896926879883 183.61270141601562 19.463855743408203 184.27682495117188 19.64778709411621 184.91249084472656 Z" clip-path="url(#405488475642-clipPath1)" stroke="none" />
    </g>
    <g text-rendering="optimizeLegibility" shape-rendering="geometricPrecision">
      <path d="M36.78392028808594 241.15670776367188 L94.40509033203125 243.03001403808594 C95.06648254394531 243.051513671875 95.61983489990234 242.5330047607422 95.64134216308594 241.87161254882812 C95.662841796875 241.21022033691406 95.14433288574219 240.6568603515625 94.48294067382812 240.63536071777344 L36.86177444458008 238.76206970214844 C36.20037841796875 238.74057006835938 35.64702606201172 239.25906372070312 35.625526428222656 239.9204559326172 C35.60402297973633 240.5818634033203 36.122528076171875 241.1352081298828 36.78392028808594 241.15670776367188 Z" clip-path="url(#405488475642-clipPath1)" stroke="none" />
    </g>
    <g text-rendering="optimizeLegibility" shape-rendering="geometricPrecision">
      <path d="M93.52818298339844 242.60491943359375 L130.692138671875 286.6792907714844 C131.1187286376953 287.1851806640625 131.8743133544922 287.24945068359375 132.38021850585938 286.8228759765625 C132.8861083984375 286.39630126953125 132.95037841796875 285.64068603515625 132.5238037109375 285.1347961425781 L95.35984802246094 241.06044006347656 C94.93326568603516 240.55455017089844 94.17768096923828 240.4902801513672 93.6717758178711 240.91685485839844 C93.16587829589844 241.3434295654297 93.10160827636719 242.09902954101562 93.52818298339844 242.60491943359375 Z" clip-path="url(#405488475642-clipPath1)" stroke="none" />
    </g>
    <g text-rendering="optimizeLegibility" shape-rendering="geometricPrecision">
      <path d="M131.81883239746094 287.0863037109375 L188.57032775878906 276.93853759765625 C189.22174072265625 276.8220520019531 189.6551971435547 276.1998291015625 189.53871154785156 275.5484313964844 C189.4222412109375 274.8970031738281 188.80001831054688 274.46356201171875 188.1486053466797 274.5800476074219 L131.39710998535156 284.727783203125 C130.74569702148438 284.8442687988281 130.31224060058594 285.46649169921875 130.42872619628906 286.1178894042969 C130.54519653320312 286.7693176269531 131.16741943359375 287.2027587890625 131.81883239746094 287.0863037109375 Z" clip-path="url(#405488475642-clipPath1)" stroke="none" />
    </g>
    <g text-rendering="optimizeLegibility" shape-rendering="geometricPrecision">
      <path d="M189.4861602783203 276.1662902832031 L209.0736846923828 221.94419860839844 C209.29852294921875 221.32180786132812 208.9763946533203 220.63531494140625 208.35400390625 220.41049194335938 C207.73162841796875 220.18565368652344 207.04513549804688 220.50778198242188 206.82029724121094 221.13015747070312 L187.23277282714844 275.3522644042969 C187.0079345703125 275.9746398925781 187.330078125 276.6611328125 187.95245361328125 276.885986328125 C188.5748291015625 277.1108093261719 189.26132202148438 276.7886657714844 189.4861602783203 276.1662902832031 Z" clip-path="url(#405488475642-clipPath1)" stroke="none" />
    </g>
    <g text-rendering="optimizeLegibility" shape-rendering="geometricPrecision">
      <path d="M208.86282348632812 220.7649383544922 L171.69886779785156 176.69058227539062 C171.2722930908203 176.1846923828125 170.51669311523438 176.1204071044922 170.01080322265625 176.5469970703125 C169.50489807128906 176.97357177734375 169.4406280517578 177.72915649414062 169.86720275878906 178.2350616455078 L207.03115844726562 222.30941772460938 C207.45774841308594 222.8153076171875 208.2133331298828 222.8795928955078 208.71923828125 222.4530029296875 C209.22512817382812 222.02642822265625 209.28939819335938 221.27084350585938 208.86282348632812 220.7649383544922 Z" clip-path="url(#405488475642-clipPath1)" stroke="none" />
    </g>
    <g text-rendering="optimizeLegibility" shape-rendering="geometricPrecision">
      <path d="M171.90972900390625 177.86984252929688 L191.4972686767578 123.6477279663086 C191.7220916748047 123.02535247802734 191.39996337890625 122.33885192871094 190.777587890625 122.11402130126953 C190.1551971435547 121.88919067382812 189.4687042236328 122.2113265991211 189.24388122558594 122.83370208740234 L169.65634155273438 177.05581665039062 C169.4315185546875 177.67819213867188 169.75364685058594 178.36468505859375 170.3760223388672 178.5895233154297 C170.99839782714844 178.81434631347656 171.68490600585938 178.49221801757812 171.90972900390625 177.86984252929688 Z" clip-path="url(#405488475642-clipPath1)" stroke="none" />
    </g>
    <g text-rendering="optimizeLegibility" shape-rendering="geometricPrecision">
      <path d="M190.58143615722656 124.41996765136719 L247.33291625976562 114.27220916748047 C247.9843292236328 114.15573120117188 248.41778564453125 113.53350830078125 248.3013153076172 112.88209533691406 C248.18482971191406 112.23068237304688 247.56260681152344 111.79723358154297 246.91119384765625 111.91371154785156 L190.1597137451172 122.06146240234375 C189.50830078125 122.17794036865234 189.07484436035156 122.80016326904297 189.19131469726562 123.45157623291016 C189.30780029296875 124.10298919677734 189.93002319335938 124.53644561767578 190.58143615722656 124.41996765136719 Z" clip-path="url(#405488475642-clipPath1)" stroke="none" />
    </g>
    <g text-rendering="optimizeLegibility" shape-rendering="geometricPrecision">
      <path d="M246.2062225341797 113.86519622802734 L283.37017822265625 157.93954467773438 C283.7967529296875 158.44544982910156 284.5523681640625 158.5097198486328 285.0582580566406 158.08314514160156 C285.56414794921875 157.6565704345703 285.62841796875 156.90097045898438 285.20184326171875 156.39508056640625 L248.0378875732422 112.32072448730469 C247.61131286621094 111.8148193359375 246.855712890625 111.75054931640625 246.34982299804688 112.17713165283203 C245.8439178466797 112.60370635986328 245.77964782714844 113.35929870605469 246.2062225341797 113.86519622802734 Z" clip-path="url(#405488475642-clipPath1)" stroke="none" />
    </g>
    <g text-rendering="optimizeLegibility" shape-rendering="geometricPrecision">
      <path d="M284.49688720703125 158.34657287597656 L341.24835205078125 148.1988067626953 C341.8997802734375 148.08233642578125 342.3332214355469 147.46011352539062 342.2167663574219 146.80870056152344 C342.10028076171875 146.15728759765625 341.4780578613281 145.7238311767578 340.8266296386719 145.84030151367188 L284.0751647949219 155.98806762695312 C283.4237365722656 156.1045379638672 282.99029541015625 156.7267608642578 283.10675048828125 157.378173828125 C283.2232360839844 158.0295867919922 283.845458984375 158.46304321289062 284.49688720703125 158.34657287597656 Z" clip-path="url(#405488475642-clipPath1)" stroke="none" />
    </g>
    <g text-rendering="optimizeLegibility" shape-rendering="geometricPrecision">
      <path d="M340.1216735839844 147.7917938232422 L377.28564453125 191.86614990234375 C377.71221923828125 192.37205505371094 378.4678039550781 192.4363250732422 378.97369384765625 192.00975036621094 C379.4796142578125 191.58316040039062 379.54388427734375 190.82757568359375 379.1172790527344 190.32167053222656 L341.9533386230469 146.24732971191406 C341.5267639160156 145.74142456054688 340.77117919921875 145.67715454101562 340.2652587890625 146.10372924804688 C339.7593688964844 146.53030395507812 339.6950988769531 147.28590393066406 340.1216735839844 147.7917938232422 Z" clip-path="url(#405488475642-clipPath1)" stroke="none" />
    </g>
    <g text-rendering="optimizeLegibility" shape-rendering="geometricPrecision">
      <path d="M377.07476806640625 190.68690490722656 L357.48724365234375 244.9090118408203 C357.2624206542969 245.53138732910156 357.58453369140625 246.21788024902344 358.2069091796875 246.44271850585938 C358.82928466796875 246.66754150390625 359.5157775878906 246.3454132080078 359.7406311035156 245.72303771972656 L379.3281555175781 191.5009307861328 C379.552978515625 190.87855529785156 379.2308654785156 190.19204711914062 378.6084899902344 189.96722412109375 C377.986083984375 189.7423858642578 377.2995910644531 190.0645294189453 377.07476806640625 190.68690490722656 Z" clip-path="url(#405488475642-clipPath1)" stroke="none" />
    </g>
    <g text-rendering="optimizeLegibility" shape-rendering="geometricPrecision">
      <path d="M358.403076171875 244.1367645263672 L301.6515808105469 254.28453063964844 C301.00018310546875 254.4010009765625 300.56671142578125 255.02322387695312 300.6831970214844 255.6746368408203 C300.7996826171875 256.3260498046875 301.4219055175781 256.759521484375 302.07330322265625 256.6430358886719 L358.8247985839844 246.49526977539062 C359.4761962890625 246.37879943847656 359.90966796875 245.75657653808594 359.7931823730469 245.10516357421875 C359.67669677734375 244.45375061035156 359.0544738769531 244.02029418945312 358.403076171875 244.1367645263672 Z" clip-path="url(#405488475642-clipPath1)" stroke="none" />
    </g>
    <g text-rendering="optimizeLegibility" shape-rendering="geometricPrecision">
      <path d="M302.77825927734375 254.69154357910156 L265.61431884765625 210.6171875 C265.187744140625 210.1112823486328 264.4321594238281 210.04701232910156 263.9262390136719 210.4735870361328 C263.42034912109375 210.90017700195312 263.3560791015625 211.65576171875 263.78265380859375 212.1616668701172 L300.9466247558594 256.23602294921875 C301.3731994628906 256.7419128417969 302.1287841796875 256.8061828613281 302.6346740722656 256.3796081542969 C303.14056396484375 255.95303344726562 303.2048645019531 255.1974334716797 302.77825927734375 254.69154357910156 Z" clip-path="url(#405488475642-clipPath1)" stroke="none" />
    </g>
    <g text-rendering="optimizeLegibility" shape-rendering="geometricPrecision">
      <path d="M208.15785217285156 222.7164306640625 L264.9093322753906 212.5686798095703 C265.5607604980469 212.4521942138672 265.99420166015625 211.82997131347656 265.87774658203125 211.17855834960938 C265.7612609863281 210.5271453857422 265.1390380859375 210.09368896484375 264.48760986328125 210.21017456054688 L207.7361297607422 220.35792541503906 C207.084716796875 220.4744110107422 206.65126037597656 221.0966339111328 206.7677459716797 221.748046875 C206.88421630859375 222.39944458007812 207.50643920898438 222.83290100097656 208.15785217285156 222.7164306640625 Z" clip-path="url(#405488475642-clipPath1)" stroke="none" />
    </g>
    <g text-rendering="optimizeLegibility" shape-rendering="geometricPrecision">
      <path d="M283.1593322753906 156.7602996826172 L263.57177734375 210.98240661621094 C263.3469543457031 211.6047821044922 263.6690979003906 212.29129028320312 264.2914733886719 212.51611328125 C264.9138488769531 212.74095153808594 265.600341796875 212.41880798339844 265.8251647949219 211.7964324951172 L285.4127197265625 157.57432556152344 C285.6375427246094 156.9519500732422 285.3153991699219 156.2654571533203 284.6930236816406 156.04061889648438 C284.0706481933594 155.8157958984375 283.3841552734375 156.13792419433594 283.1593322753906 156.7602996826172 Z" clip-path="url(#405488475642-clipPath1)" stroke="none" />
    </g>
    <g text-rendering="optimizeLegibility" shape-rendering="geometricPrecision">
      <path d="M170.57217407226562 176.2835693359375 L113.82068634033203 186.4313201904297 C113.16927337646484 186.5478057861328 112.7358169555664 187.17002868652344 112.852294921875 187.82144165039062 C112.96878051757812 188.4728546142578 113.59100341796875 188.90631103515625 114.2424087524414 188.78982543945312 L170.993896484375 178.64207458496094 C171.6453094482422 178.5255889892578 172.07876586914062 177.9033660888672 171.96229553222656 177.251953125 C171.84580993652344 176.60055541992188 171.2235870361328 176.16709899902344 170.57217407226562 176.2835693359375 Z" clip-path="url(#405488475642-clipPath1)" stroke="none" />
    </g>
    <g text-rendering="optimizeLegibility" shape-rendering="geometricPrecision">
      <path d="M95.57070922851562 242.2397003173828 L115.15824127197266 188.01759338378906 C115.38307189941406 187.3952178955078 115.06094360351562 186.70870971679688 114.43856048583984 186.48388671875 C113.8161849975586 186.25904846191406 113.12968444824219 186.58119201660156 112.90485382080078 187.2035675048828 L93.31732177734375 241.42567443847656 C93.09249114990234 242.0480499267578 93.41462707519531 242.7345428466797 94.03700256347656 242.95938110351562 C94.65938568115234 243.1842041015625 95.34587860107422 242.86207580566406 95.57070922851562 242.2397003173828 Z" clip-path="url(#405488475642-clipPath1)" stroke="none" />
    </g>
    <g text-rendering="optimizeLegibility" shape-rendering="geometricPrecision">
      <path d="M114.76680755615234 186.664794921875 L69.25140380859375 151.2803955078125 C68.72895812988281 150.87425231933594 67.97651672363281 150.96847534179688 67.57036590576172 151.4909210205078 C67.16421508789062 152.0133514404297 67.25843811035156 152.7657928466797 67.7808837890625 153.1719512939453 L113.2962875366211 188.5563507080078 C113.8187255859375 188.96250915527344 114.5711669921875 188.86827087402344 114.97732543945312 188.34584045410156 C115.38347625732422 187.82339477539062 115.28925323486328 187.07095336914062 114.76680755615234 186.664794921875 Z" clip-path="url(#405488475642-clipPath1)" stroke="none" />
    </g>
    <g text-rendering="optimizeLegibility" shape-rendering="geometricPrecision">
      <path d="M21.470815658569336 185.57106018066406 L69.18841552734375 153.21771240234375 C69.73612976074219 152.84634399414062 69.87903594970703 152.1016082763672 69.50767517089844 151.55389404296875 C69.13631439208984 151.0061798095703 68.3915786743164 150.86328125 67.84386444091797 151.23463439941406 L20.12626075744629 183.58798217773438 C19.578542709350586 183.9593505859375 19.435640335083008 184.70407104492188 19.807003021240234 185.25180053710938 C20.17836570739746 185.7995147705078 20.923097610473633 185.94241333007812 21.470815658569336 185.57106018066406 Z" clip-path="url(#405488475642-clipPath1)" stroke="none" />
    </g>
  </g>
</svg>