<svg xmlns="http://www.w3.org/2000/svg" viewBox="0 0 400 400">
  <defs id="genericDefs" />
  <g>
    <defs id="843867341631-defs1">
      <clipPath clipPathUnits="userSpaceOnUse" id="843867341426-clipPath1">
        <path d="M0 0 L0 400 L400 400 L400 0 Z" />
      </clipPath>
      <clipPath clipPathUnits="userSpaceOnUse" id="843867341828-clipPath1">
        <path d="M0 0 L400 0 L400 400 L0 400 L0 0 Z" />
      </clipPath>
    </defs>
    <g text-rendering="optimizeLegibility" shape-rendering="geometricPrecision">
      <path d="M354.31915283203125 250.55731201171875 L230.4638214111328 250.55731201171875 C229.04217529296875 250.55731201171875 227.8902130126953 251.7092742919922 227.8902130126953 253.13092041015625 C227.8902130126953 254.55258178710938 229.04217529296875 255.7045440673828 230.4638214111328 255.7045440673828 L354.31915283203125 255.7045440673828 C355.74078369140625 255.7045440673828 356.89276123046875 254.55258178710938 356.89276123046875 253.13092041015625 C356.89276123046875 251.7092742919922 355.74078369140625 250.55731201171875 354.31915283203125 250.55731201171875 Z" clip-path="url(#843867341426-clipPath1)" stroke="none" />
    </g>
    <g text-rendering="optimizeLegibility" shape-rendering="geometricPrecision">
      <path d="M232.69264221191406 251.8441162109375 L170.76498413085938 144.58226013183594 C170.05416870117188 143.35107421875 168.4805450439453 142.92942810058594 167.24935913085938 143.6402587890625 C166.01817321777344 144.35108947753906 165.59652709960938 145.92469787597656 166.30735778808594 147.1558837890625 L228.23501586914062 254.41773986816406 C228.94583129882812 255.64892578125 230.5194549560547 256.070556640625 231.75064086914062 255.3597412109375 C232.98182678222656 254.64891052246094 233.40347290039062 253.07530212402344 232.69264221191406 251.8441162109375 Z" clip-path="url(#843867341426-clipPath1)" stroke="none" />
    </g>
    <g text-rendering="optimizeLegibility" shape-rendering="geometricPrecision">
      <path d="M168.5361785888672 143.2954559326172 L44.68085479736328 143.2954559326172 C43.25920104980469 143.2954559326172 42.10723876953125 144.44741821289062 42.10723876953125 145.86907958984375 C42.10723876953125 147.2907257080078 43.25920104980469 148.44268798828125 44.68085479736328 148.44268798828125 L168.5361785888672 148.44268798828125 C169.95782470703125 148.44268798828125 171.1097869873047 147.2907257080078 171.1097869873047 145.86907958984375 C171.1097869873047 144.44741821289062 169.95782470703125 143.2954559326172 168.5361785888672 143.2954559326172 Z" clip-path="url(#843867341426-clipPath1)" stroke="none" />
    </g>
  </g>
</svg>